<svg id="Capa_1" data-name="Capa 1" xmlns="http://www.w3.org/2000/svg" xmlns:xlink="http://www.w3.org/1999/xlink" viewBox="0 0 634.73 634.73"><defs><style>.cls-1{fill:url(#radial-gradient);}.cls-2{fill:#211915;}.cls-3{fill:#fff;}.cls-4{fill:#003a76;}.cls-5{fill:none;stroke:#003a76;stroke-miterlimit:10;stroke-width:1.83px;}</style><radialGradient id="radial-gradient" cx="238.68" cy="240.86" r="106.26" gradientTransform="translate(0 9.81) scale(1 1.01)" gradientUnits="userSpaceOnUse"><stop offset="0" stop-color="#fff"/><stop offset="1" stop-color="#d4d4d4"/></radialGradient></defs><title>Mesa de trabajo 1 copia 4</title><g id="_Grupo_" data-name="&lt;Grupo&gt;"><path id="_Trazado_" data-name="&lt;Trazado&gt;" class="cls-1" d="M347.75,253.51c0,57.77-48.82,104.6-109.06,104.6s-109.07-46.83-109.07-104.6,48.84-104.61,109.07-104.61S347.75,195.74,347.75,253.51Z"/><path id="_Trazado_2" data-name="&lt;Trazado&gt;" class="cls-2" d="M266.63,165.33S255.08,178.1,263,184.17s20.07,6.09,18.26-4.86c2.43-2.43,14.59,8.51,11.55,12.78s-12,14-16,12.77S263,212.15,263,212.15s-2.43,6.7,0,9.73-3,1.84-7.29-3c-3.66,0-12.79,15.81,0,10.34,2.43,4.87,3,12.16,3,12.16l1.83,6.09s15.21,14,29.81,20.68c12.16,6.08,13.12,20.07,2.91,28.59a86.4,86.4,0,0,1-18.59,12.16s-5,20.06-15.35,18.84c-4.86,7.93-10.22,22.51-10.22,22.51s-7.42-.6-6.21-7.31,8.53-29.78,6.1-41.35-1.5-15.2-6.23-20.07-7.44-23.73,0-30.41,16-10.34,9.27-15.81-18.86-10.95-22.5-27.37c-.61-3.66-4.26-3-3.66,6.08-1.83,2.44-10.34-5.47-10.95-21.89-.61-3.66-4.25-4.27-9.12,3s-18.85-6.09-12.16-18.24,9.12-20.68,40.75-22.5C264.2,155.6,258.71,164.72,266.63,165.33Z"/><path id="_Trazado_3" data-name="&lt;Trazado&gt;" class="cls-2" d="M167.49,248S162,276.63,154.71,273,169.68,238.94,167.49,248Z"/><path id="_Trazado_4" data-name="&lt;Trazado&gt;" class="cls-2" d="M149.85,313.72s7.3,13.08,25.45,24.92c-1.83-5.48-1.13-10.94-5.39-13.66S156.53,308.25,149.85,313.72Z"/><path id="_Trazado_5" data-name="&lt;Trazado&gt;" class="cls-2" d="M134,282.7c-2.47-9.4-15.82-52.3,21.1-96.44,7,7.9,9.91,31.36,6.55,39.87S146.2,245,146.2,252.3s-6.1,13.38-4.87,18.24S136.74,293.12,134,282.7Z"/><g id="_Grupo_2" data-name="&lt;Grupo&gt;"><path class="cls-3" d="M386.92,359.59A104.86,104.86,0,1,1,491.8,254.73,105,105,0,0,1,386.92,359.59Z"/><path class="cls-4" d="M386.92,151.23A103.49,103.49,0,1,1,283.43,254.73,102.83,102.83,0,0,1,386.92,151.23m0-2.75A106.24,106.24,0,1,0,493.17,254.73,106.24,106.24,0,0,0,386.92,148.49Z"/></g><path id="_Trazado_6" data-name="&lt;Trazado&gt;" class="cls-5" d="M472.48,254.73a85.56,85.56,0,1,1-85.56-85.55A85.58,85.58,0,0,1,472.48,254.73Z"/><path id="_Trazado_7" data-name="&lt;Trazado&gt;" class="cls-4" d="M379.53,309.87s-42-76.23-44.82-80.28-7.69-17.44,3.66-17.44h93.26c4.48,0,8.52,7.29,4.48,14.6s-16.23,26.76-16.23,26.76H401.23v41l-11.77,18.65V254.73c0-5.26,2.45-10.95,8.11-10.95H411l6.49-10.94s4.06-7.71-4.06-7.71H355.13c-3,0-8.24,2-4.18,8.93s4.18,8.91,4.18,8.91l23.8.41s-.84,7.29-4.88,8.92-10.95,5.27-8.9,7.3,14.39,29.19,14.39,29.19Z"/><path class="cls-2" d="M73.57,415.5H72.05a10.82,10.82,0,0,0-1.77-3.44,4.47,4.47,0,0,0-2.57-2,14.62,14.62,0,0,0-1.48-.11c-.58,0-1.22-.05-2-.05h-4.8v11.52h3.3a7.52,7.52,0,0,0,2.31-.29,3.8,3.8,0,0,0,1.43-1,4.07,4.07,0,0,0,.74-1.37,7.83,7.83,0,0,0,.43-2H69.2V428H67.68a9.49,9.49,0,0,0-.41-2,5.21,5.21,0,0,0-.76-1.63,3,3,0,0,0-1.54-1,7.79,7.79,0,0,0-2.2-.27h-3.3v9.85a2.63,2.63,0,0,0,.25,1.19,2,2,0,0,0,.93.86,7.39,7.39,0,0,0,1.32.33,8.09,8.09,0,0,0,1.53.22V437H51.08v-1.42l1.62-.11a4.39,4.39,0,0,0,1.32-.25,1.71,1.71,0,0,0,.88-.77,2.55,2.55,0,0,0,.27-1.24V412.49a3.16,3.16,0,0,0-.22-1.19,1.7,1.7,0,0,0-.93-.84,7,7,0,0,0-1.46-.46,10.42,10.42,0,0,0-1.47-.24v-1.43H73.57Z"/><path class="cls-2" d="M101.85,428.54l-.54,8.43H77.51v-1.42c.41,0,1-.08,1.63-.17a4.74,4.74,0,0,0,1.31-.27,1.9,1.9,0,0,0,.9-.79,2.66,2.66,0,0,0,.26-1.22v-20.6a2.86,2.86,0,0,0-.23-1.19,1.67,1.67,0,0,0-.93-.84A6.88,6.88,0,0,0,79,410a10.76,10.76,0,0,0-1.48-.24v-1.43H99.69v6.89H98.17A9.36,9.36,0,0,0,96.44,412a4.49,4.49,0,0,0-2.56-1.88,14.91,14.91,0,0,0-1.49-.11c-.59,0-1.25-.05-2-.05h-4.5v11.4h3.23a6.85,6.85,0,0,0,2.28-.29,3.22,3.22,0,0,0,1.25-1,5.5,5.5,0,0,0,.76-1.57,8.47,8.47,0,0,0,.42-1.83h1.51v11.22H93.84a9.26,9.26,0,0,0-.44-2,5.07,5.07,0,0,0-.74-1.57,2.9,2.9,0,0,0-1.41-1,7.52,7.52,0,0,0-2.12-.24H85.91v8.59a8.49,8.49,0,0,0,.18,2,1.91,1.91,0,0,0,.7,1.15,3.12,3.12,0,0,0,1.43.48,23,23,0,0,0,2.58.11h1.76c.73,0,1.34,0,1.83-.07A10.23,10.23,0,0,0,96,435a2.47,2.47,0,0,0,1.16-.57,12.51,12.51,0,0,0,2-2.94,18.34,18.34,0,0,0,1.3-2.91Z"/><path class="cls-2" d="M133.88,422.82a13.71,13.71,0,0,1-1.37,6.34,12.84,12.84,0,0,1-3.57,4.4,15.1,15.1,0,0,1-5,2.56,18.82,18.82,0,0,1-5.72.84H106.35v-1.42a14.15,14.15,0,0,0,1.53-.11,4.4,4.4,0,0,0,1.25-.25,1.74,1.74,0,0,0,.86-.77,2.55,2.55,0,0,0,.27-1.24V412.49a3,3,0,0,0-.23-1.24,1.78,1.78,0,0,0-.91-.86,4.83,4.83,0,0,0-1.37-.44,9.84,9.84,0,0,0-1.24-.18v-1.43H119a16.56,16.56,0,0,1,5.07.79,15.51,15.51,0,0,1,4.37,2.14,12.53,12.53,0,0,1,4,4.72A15.37,15.37,0,0,1,133.88,422.82Zm-4.95,0a16.78,16.78,0,0,0-.77-5.23,12.18,12.18,0,0,0-2.24-4.06,10,10,0,0,0-3.43-2.6,10.43,10.43,0,0,0-4.52-1c-.56,0-1.17,0-1.87,0s-1.21,0-1.54,0v22a2.81,2.81,0,0,0,1.07,2.56,6,6,0,0,0,3.28.69,10.16,10.16,0,0,0,4.49-.92,7.78,7.78,0,0,0,3.12-2.52,10.86,10.86,0,0,0,1.83-3.91A21.2,21.2,0,0,0,128.94,422.82Z"/><path class="cls-2" d="M163.16,428.54l-.55,8.43H138.83v-1.42c.4,0,.93-.08,1.62-.17a5,5,0,0,0,1.31-.27,1.91,1.91,0,0,0,.9-.79,2.65,2.65,0,0,0,.26-1.22v-20.6a2.84,2.84,0,0,0-.23-1.19,1.68,1.68,0,0,0-.92-.84,7.09,7.09,0,0,0-1.47-.46,10.48,10.48,0,0,0-1.45-.24v-1.43H161v6.89h-1.51a9.47,9.47,0,0,0-1.76-3.27,4.46,4.46,0,0,0-2.54-1.88,15.06,15.06,0,0,0-1.51-.11q-.85-.05-2-.05h-4.51v11.4h3.23a6.76,6.76,0,0,0,2.27-.29,3.24,3.24,0,0,0,1.26-1,5.25,5.25,0,0,0,.77-1.57,9.7,9.7,0,0,0,.4-1.83h1.52v11.22h-1.52a8.36,8.36,0,0,0-.43-2,4.85,4.85,0,0,0-.74-1.57,3,3,0,0,0-1.42-1,7.39,7.39,0,0,0-2.12-.24h-3.23v8.59a9,9,0,0,0,.18,2,2.11,2.11,0,0,0,.7,1.15,3.29,3.29,0,0,0,1.43.48,23.58,23.58,0,0,0,2.6.11h1.75c.73,0,1.34,0,1.85-.07a10.25,10.25,0,0,0,1.58-.29,2.61,2.61,0,0,0,1.17-.57,12.88,12.88,0,0,0,1.93-2.94,19.62,19.62,0,0,0,1.31-2.91Z"/><path class="cls-2" d="M195.65,437h-7.71c-1.72-2.67-3.25-5-4.63-6.93s-2.87-4-4.49-6h-2.93v9.08a3.27,3.27,0,0,0,.22,1.24,1.55,1.55,0,0,0,.94.8,5.92,5.92,0,0,0,1.28.28,13.77,13.77,0,0,0,1.55.13V437H167.74v-1.42l1.42-.13a4.73,4.73,0,0,0,1.27-.28,1.68,1.68,0,0,0,.89-.75,2.76,2.76,0,0,0,.27-1.3V412.36a3.68,3.68,0,0,0-.2-1.24,1.55,1.55,0,0,0-1-.84,12.46,12.46,0,0,0-1.32-.33,12.29,12.29,0,0,0-1.37-.18v-1.43H181a14.47,14.47,0,0,1,3.42.37,9.77,9.77,0,0,1,2.89,1.19,6.18,6.18,0,0,1,2,2.12,6.31,6.31,0,0,1,.74,3.12,7.79,7.79,0,0,1-.5,2.92A6.22,6.22,0,0,1,188,420.3a9.6,9.6,0,0,1-2.18,1.5,16.62,16.62,0,0,1-2.81,1.06c1.41,1.88,2.59,3.45,3.53,4.75s2.08,2.81,3.45,4.64a9.6,9.6,0,0,0,1.6,1.79A7.24,7.24,0,0,0,193,435a5,5,0,0,0,1.31.42,10.75,10.75,0,0,0,1.32.15ZM185,415.63a5.23,5.23,0,0,0-5.71-5.65h-3.44v12.28h2.64a6.27,6.27,0,0,0,6.51-6.63Z"/><path class="cls-2" d="M225.13,437h-11.9v-1.42a11.79,11.79,0,0,0,2.61-.4c.69-.18,1-.44,1-.73a2.16,2.16,0,0,0,0-.46,1.63,1.63,0,0,0-.11-.46l-2.37-6.43H204.29c-.38,1-.69,1.77-.92,2.47s-.46,1.35-.64,2a12.69,12.69,0,0,0-.37,1.39,5.7,5.7,0,0,0-.1.9c0,.53.42,1,1.27,1.26a10,10,0,0,0,2.87.51V437H195.61v-1.42a9.81,9.81,0,0,0,1.32-.22,4.06,4.06,0,0,0,1.29-.51,5.21,5.21,0,0,0,1.26-1.15,7.21,7.21,0,0,0,.87-1.63c1.43-3.6,3-7.64,4.76-12.14s3.29-8.48,4.64-12h1.62l9.55,24.73a4.45,4.45,0,0,0,.69,1.24,4.53,4.53,0,0,0,1.07,1,4,4,0,0,0,1.21.47,5.22,5.22,0,0,0,1.24.2Zm-11.53-11.7-4.33-11.11L205,425.27Z"/><path class="cls-2" d="M240.43,437.66a12.28,12.28,0,0,1-4.91-1,12.86,12.86,0,0,1-4.18-2.91,14.24,14.24,0,0,1-2.85-4.64,16.66,16.66,0,0,1-1.07-6.18,17.65,17.65,0,0,1,1-6.21,14.66,14.66,0,0,1,2.9-4.83,12.41,12.41,0,0,1,4.35-3.09,13.11,13.11,0,0,1,5.35-1.1,12.59,12.59,0,0,1,3.83.53,14.19,14.19,0,0,1,3.26,1.46l.84-1.35h1.61l.18,10.2h-1.64a27.4,27.4,0,0,0-1-3.24,13.14,13.14,0,0,0-1.5-3,7.38,7.38,0,0,0-2.3-2.14,6,6,0,0,0-3-.79,7.69,7.69,0,0,0-3.64.86,8.24,8.24,0,0,0-2.92,2.58,12.25,12.25,0,0,0-1.83,4.15,21.71,21.71,0,0,0-.68,5.63,17.46,17.46,0,0,0,.69,5.06,13.67,13.67,0,0,0,2,4A9.36,9.36,0,0,0,238,434.4a7.89,7.89,0,0,0,3.93,1,8.87,8.87,0,0,0,3-.51,8.16,8.16,0,0,0,2.38-1.37,10.54,10.54,0,0,0,1.77-2,11.51,11.51,0,0,0,1.26-2.45l1.52.73a11.33,11.33,0,0,1-11.43,7.89Z"/><path class="cls-2" d="M268.56,437H255.64v-1.42c.37,0,.89-.08,1.59-.11a5.78,5.78,0,0,0,1.44-.25,1.93,1.93,0,0,0,1-.71,2.22,2.22,0,0,0,.31-1.26V412.44a3.17,3.17,0,0,0-.22-1.17,1.87,1.87,0,0,0-1.06-.8,14.65,14.65,0,0,0-1.52-.44,8.75,8.75,0,0,0-1.52-.25v-1.43h12.92v1.43a10.08,10.08,0,0,0-1.52.15,11.64,11.64,0,0,0-1.5.33,1.66,1.66,0,0,0-1,.8,2.85,2.85,0,0,0-.26,1.21V433a2.34,2.34,0,0,0,.29,1.19,1.91,1.91,0,0,0,1,.8,6.88,6.88,0,0,0,1.37.37,8.75,8.75,0,0,0,1.64.2Z"/><path class="cls-2" d="M297,411.72a14.06,14.06,0,0,1,3,4.77,18.49,18.49,0,0,1,0,12.39,14.12,14.12,0,0,1-3,4.75,13.18,13.18,0,0,1-4.35,3,14.13,14.13,0,0,1-10.82-.08,12.46,12.46,0,0,1-4.35-3.12,14.49,14.49,0,0,1-2.87-4.75,17.43,17.43,0,0,1-1-6,16.6,16.6,0,0,1,1.1-6.21,14.57,14.57,0,0,1,3-4.73,12.31,12.31,0,0,1,4.4-3,13,13,0,0,1,5.26-1.06,13.94,13.94,0,0,1,5.37,1.06A13,13,0,0,1,297,411.72Zm-3,20.31a13.31,13.31,0,0,0,1.64-4.15,23.94,23.94,0,0,0,.51-5.21,25,25,0,0,0-.57-5.41,13.2,13.2,0,0,0-1.7-4.18,8.14,8.14,0,0,0-2.78-2.69,7.78,7.78,0,0,0-3.84-.95,7.43,7.43,0,0,0-4.11,1.1,8.72,8.72,0,0,0-2.78,3,14.75,14.75,0,0,0-1.5,4.17,24.58,24.58,0,0,0-.49,5,23.12,23.12,0,0,0,.53,5.27,13.6,13.6,0,0,0,1.64,4.17,8.49,8.49,0,0,0,2.74,2.78,7.65,7.65,0,0,0,4,1,7.53,7.53,0,0,0,3.89-1A8,8,0,0,0,293.94,432Z"/><path class="cls-2" d="M335.63,409.77a7.73,7.73,0,0,0-1.72.31,5.89,5.89,0,0,0-1.68.64,2.8,2.8,0,0,0-1,1.94,21.55,21.55,0,0,0-.26,3.62v21h-1.74l-17.38-23.43v14.77a18.33,18.33,0,0,0,.31,3.82,3.46,3.46,0,0,0,1,1.9,4.77,4.77,0,0,0,1.92.82,10.07,10.07,0,0,0,1.92.4V437H305.21v-1.42a10.12,10.12,0,0,0,1.85-.39,5.21,5.21,0,0,0,1.63-.64,3,3,0,0,0,1-1.72,21.65,21.65,0,0,0,.26-4V414.7a5.59,5.59,0,0,0-.33-1.86,3.51,3.51,0,0,0-.88-1.43,6,6,0,0,0-2-1.13,6.42,6.42,0,0,0-2-.51v-1.43h8.19L329,430.17V416.53a17.41,17.41,0,0,0-.33-3.84,3.15,3.15,0,0,0-.92-1.79,7.44,7.44,0,0,0-1.86-.73,8.38,8.38,0,0,0-1.94-.4v-1.43h11.64Z"/><path class="cls-2" d="M373.19,415.4a8.88,8.88,0,0,1-.88,4,8,8,0,0,1-2.45,2.85,10.73,10.73,0,0,1-3.36,1.66,14.34,14.34,0,0,1-3.91.51h-3.22v8.7a3.25,3.25,0,0,0,.24,1.24,1.56,1.56,0,0,0,1,.8,5.44,5.44,0,0,0,1.28.28,14.83,14.83,0,0,0,1.68.13V437h-12.3v-1.42l1.41-.13a4.64,4.64,0,0,0,1.28-.28,1.69,1.69,0,0,0,.88-.75,2.76,2.76,0,0,0,.27-1.3V412.42a4,4,0,0,0-.2-1.28,1.56,1.56,0,0,0-1-.86,9.38,9.38,0,0,0-1.53-.37c-.49-.07-.93-.13-1.3-.15v-1.43h13.09a10.34,10.34,0,0,1,6.51,1.9A6.22,6.22,0,0,1,373.19,415.4ZM367,420.3a5.91,5.91,0,0,0,.9-2,9.08,9.08,0,0,0,.22-1.86,10.42,10.42,0,0,0-.27-2.34A5.65,5.65,0,0,0,367,412a5,5,0,0,0-1.86-1.48,7.26,7.26,0,0,0-2.87-.51h-2.85v12.65h2.07A8.34,8.34,0,0,0,365,422,5.8,5.8,0,0,0,367,420.3Z"/><path class="cls-2" d="M404.83,437h-11.9v-1.42a11.81,11.81,0,0,0,2.62-.4c.67-.18,1-.44,1-.73s0-.27,0-.46a2.76,2.76,0,0,0-.13-.46L394,427.06H384c-.38,1-.68,1.77-.93,2.47s-.44,1.35-.62,2a13.51,13.51,0,0,0-.39,1.39,6.75,6.75,0,0,0-.09.9c0,.53.44,1,1.28,1.26a9.72,9.72,0,0,0,2.85.51V437H375.31v-1.42a9.89,9.89,0,0,0,1.32-.22,4.5,4.5,0,0,0,1.3-.51,5.09,5.09,0,0,0,1.24-1.15A5.87,5.87,0,0,0,380,432c1.46-3.6,3-7.64,4.79-12.14s3.27-8.48,4.64-12h1.61l9.54,24.73a5.21,5.21,0,0,0,.69,1.24,5.07,5.07,0,0,0,1.06,1,4.51,4.51,0,0,0,1.23.47,5.42,5.42,0,0,0,1.24.2Zm-11.53-11.7L389,414.15l-4.3,11.11Z"/><path class="cls-2" d="M430.82,416.09h-1.37a13.35,13.35,0,0,0-.68-1.72,15,15,0,0,0-1.08-1.88,8.26,8.26,0,0,0-1.32-1.63,2.57,2.57,0,0,0-1.39-.81c-.4,0-.93-.09-1.57-.11s-1.21-.05-1.76-.05H420.5v22.94a2.64,2.64,0,0,0,.28,1.21,1.9,1.9,0,0,0,1,.86,11.67,11.67,0,0,0,1.5.38,8.47,8.47,0,0,0,1.83.26V437H411.56v-1.42c.38,0,1-.08,1.73-.15a8.08,8.08,0,0,0,1.61-.29,2.13,2.13,0,0,0,1-.77,2.52,2.52,0,0,0,.29-1.31V409.89H415l-1.55,0c-.62,0-1.23.07-1.77.13a2.53,2.53,0,0,0-1.39.81,10.58,10.58,0,0,0-1.31,1.63,13.72,13.72,0,0,0-1.08,1.92,10.88,10.88,0,0,0-.64,1.68h-1.41v-7.75h25Z"/><path class="cls-2" d="M462.68,437H455c-1.72-2.67-3.25-5-4.64-6.93s-2.87-4-4.5-6h-2.92v9.08a3.3,3.3,0,0,0,.22,1.24,1.58,1.58,0,0,0,1,.8,5.46,5.46,0,0,0,1.26.28,13.72,13.72,0,0,0,1.55.13V437H434.75v-1.42l1.43-.13a5,5,0,0,0,1.28-.28,1.69,1.69,0,0,0,.88-.75,2.76,2.76,0,0,0,.27-1.3V412.36a3.65,3.65,0,0,0-.2-1.24,1.63,1.63,0,0,0-.95-.84c-.37-.11-.79-.22-1.32-.33a12.19,12.19,0,0,0-1.39-.18v-1.43H448a14.58,14.58,0,0,1,3.42.37,9.88,9.88,0,0,1,2.89,1.19,6.18,6.18,0,0,1,2,2.12,6,6,0,0,1,.73,3.12,8,8,0,0,1-.48,2.92,6.47,6.47,0,0,1-1.5,2.23,9.4,9.4,0,0,1-2.19,1.5,16.45,16.45,0,0,1-2.82,1.06c1.43,1.88,2.6,3.45,3.55,4.75s2.08,2.81,3.44,4.64a9.5,9.5,0,0,0,1.61,1.79,7,7,0,0,0,1.43.93,4.92,4.92,0,0,0,1.3.42,11,11,0,0,0,1.33.15ZM452,415.63a5.22,5.22,0,0,0-5.7-5.65h-3.44v12.28h2.63a6.27,6.27,0,0,0,6.51-6.63Z"/><path class="cls-2" d="M488.58,411.72a14.08,14.08,0,0,1,3,4.77,17.19,17.19,0,0,1,1.08,6.18,16.87,16.87,0,0,1-1.1,6.21,13.57,13.57,0,0,1-3,4.75,13.2,13.2,0,0,1-9.65,4,13.41,13.41,0,0,1-5.52-1.11,12.61,12.61,0,0,1-4.35-3.12,14.13,14.13,0,0,1-2.85-4.75,17,17,0,0,1-1.06-6,16.6,16.6,0,0,1,1.1-6.21,14.59,14.59,0,0,1,3-4.73,12.33,12.33,0,0,1,4.4-3,13,13,0,0,1,5.27-1.06,13.93,13.93,0,0,1,5.37,1.06A13,13,0,0,1,488.58,411.72Zm-3,20.31a13.31,13.31,0,0,0,1.65-4.15,23.89,23.89,0,0,0,.53-5.21,24.94,24.94,0,0,0-.58-5.41,13.21,13.21,0,0,0-1.7-4.18,8.14,8.14,0,0,0-2.78-2.69,7.77,7.77,0,0,0-3.84-.95,7.43,7.43,0,0,0-4.11,1.1,8.72,8.72,0,0,0-2.78,3,15.29,15.29,0,0,0-1.5,4.17,25.94,25.94,0,0,0-.5,5,24.19,24.19,0,0,0,.53,5.27,13.61,13.61,0,0,0,1.64,4.17,8.37,8.37,0,0,0,2.76,2.78,8.26,8.26,0,0,0,7.86,0A7.89,7.89,0,0,0,485.57,432Z"/><path class="cls-2" d="M527.26,409.77a7.73,7.73,0,0,0-1.72.31,5.84,5.84,0,0,0-1.68.64,2.86,2.86,0,0,0-1,1.94,21.81,21.81,0,0,0-.24,3.62v21h-1.77L503.5,413.82v14.77a18.44,18.44,0,0,0,.31,3.82,3.59,3.59,0,0,0,1,1.9,4.78,4.78,0,0,0,1.92.82,10.36,10.36,0,0,0,1.92.4V437H496.86v-1.42a10,10,0,0,0,1.83-.39,5,5,0,0,0,1.63-.64,3,3,0,0,0,1-1.72,21.49,21.49,0,0,0,.26-4V414.7a6,6,0,0,0-.31-1.86,3.7,3.7,0,0,0-.88-1.43,8.06,8.06,0,0,0-4-1.64v-1.43h8.17l16.12,21.82V416.53a17.23,17.23,0,0,0-.35-3.84,3,3,0,0,0-.93-1.79,7,7,0,0,0-1.83-.73,8.49,8.49,0,0,0-2-.4v-1.43h11.64Z"/><path class="cls-2" d="M558,437H546.05v-1.42a11.61,11.61,0,0,0,2.61-.4c.69-.18,1-.44,1-.73s0-.27,0-.46a3,3,0,0,0-.13-.46l-2.37-6.43H537.11c-.37,1-.68,1.77-.92,2.47s-.46,1.35-.64,2a12.11,12.11,0,0,0-.37,1.39,5,5,0,0,0-.11.9c0,.53.42,1,1.28,1.26a9.73,9.73,0,0,0,2.87.51V437h-10.8v-1.42a9.89,9.89,0,0,0,1.32-.22,4.3,4.3,0,0,0,1.3-.51,5.09,5.09,0,0,0,1.24-1.15,6.29,6.29,0,0,0,.88-1.63q2.17-5.4,4.75-12.14c1.76-4.48,3.29-8.48,4.66-12h1.61l9.56,24.73a4.58,4.58,0,0,0,.68,1.24,4.67,4.67,0,0,0,1.08,1,4.14,4.14,0,0,0,1.21.47,5.4,5.4,0,0,0,1.26.2Zm-11.53-11.7-4.33-11.11-4.3,11.11Z"/><path class="cls-2" d="M583.65,428.45,583,437H560.66v-1.42l1.41-.13a4.64,4.64,0,0,0,1.26-.28,1.68,1.68,0,0,0,.9-.75,2.79,2.79,0,0,0,.27-1.3V412.58a3.13,3.13,0,0,0-.24-1.22,1.74,1.74,0,0,0-.93-.86A8.09,8.09,0,0,0,562,410a7.27,7.27,0,0,0-1.37-.25v-1.43h12.1v1.43a7.61,7.61,0,0,0-1.48.2c-.6.11-1,.24-1.3.31a1.48,1.48,0,0,0-.93.84,2.85,2.85,0,0,0-.26,1.24v19.25a14.17,14.17,0,0,0,.13,2.06,1.86,1.86,0,0,0,.6,1.14,2.62,2.62,0,0,0,1.39.47,19.23,19.23,0,0,0,2.6.13c.47,0,1,0,1.53-.05a13.08,13.08,0,0,0,1.54-.15,12.14,12.14,0,0,0,1.31-.33,2.15,2.15,0,0,0,.88-.55,18.11,18.11,0,0,0,1.92-2.82,20.59,20.59,0,0,0,1.53-3.07Z"/><path class="cls-2" d="M211.44,474a6,6,0,0,1,1.2,2,7.64,7.64,0,0,1-2.09,8,8.91,8.91,0,0,1-6.15,2.18,11,11,0,0,1-3.39-.53,12.65,12.65,0,0,1-2.92-1.28l-.77,1.31h-1.43l-.25-8.66h1.44a17.81,17.81,0,0,0,1,2.89,9.86,9.86,0,0,0,1.57,2.43,6.77,6.77,0,0,0,2.16,1.66,6.35,6.35,0,0,0,2.89.62,6.85,6.85,0,0,0,2.14-.31,3.83,3.83,0,0,0,1.49-.92,3.69,3.69,0,0,0,.86-1.37,5.76,5.76,0,0,0,.27-1.85,5,5,0,0,0-.86-2.81,5.27,5.27,0,0,0-2.56-2c-.76-.31-1.64-.66-2.65-1s-1.85-.73-2.58-1.06a8.27,8.27,0,0,1-3.32-2.52,6.37,6.37,0,0,1-1.19-4.06,6.17,6.17,0,0,1,.59-2.7,7.06,7.06,0,0,1,1.66-2.23,7.37,7.37,0,0,1,2.45-1.43,8,8,0,0,1,2.93-.53,8.49,8.49,0,0,1,3.14.53,15.75,15.75,0,0,1,2.51,1.24l.72-1.21h1.44l.14,8.37H210.5c-.27-1-.56-1.86-.89-2.74a9.63,9.63,0,0,0-1.27-2.39,6,6,0,0,0-1.86-1.65,5.41,5.41,0,0,0-2.71-.6,4.28,4.28,0,0,0-2.9,1.06,3.51,3.51,0,0,0-1.2,2.67,4.6,4.6,0,0,0,.77,2.72,5.75,5.75,0,0,0,2.23,1.77c.87.4,1.72.77,2.56,1.06s1.64.64,2.42,1a17.84,17.84,0,0,1,2.07,1A8,8,0,0,1,211.44,474Z"/><path class="cls-2" d="M237.44,478.2l-.47,7.44H216v-1.26c.37,0,.85-.07,1.43-.17a5.37,5.37,0,0,0,1.16-.24,1.51,1.51,0,0,0,.8-.69,2.53,2.53,0,0,0,.22-1.1V464a2.41,2.41,0,0,0-.19-1,1.52,1.52,0,0,0-.82-.75,5.09,5.09,0,0,0-1.3-.4,7.74,7.74,0,0,0-1.3-.22v-1.26h19.58v6.09H234.2a8.4,8.4,0,0,0-1.55-2.87,3.91,3.91,0,0,0-2.25-1.68l-1.32-.11c-.51,0-1.1,0-1.75,0h-4V471.8h2.85a5.55,5.55,0,0,0,2-.25,2.71,2.71,0,0,0,1.11-.86,4.8,4.8,0,0,0,.66-1.37,8,8,0,0,0,.37-1.64h1.34v9.91h-1.34a8,8,0,0,0-.37-1.79,4.76,4.76,0,0,0-.65-1.39,2.54,2.54,0,0,0-1.26-.91,6.38,6.38,0,0,0-1.85-.22h-2.85v7.59a8.64,8.64,0,0,0,.16,1.81,1.64,1.64,0,0,0,.62,1,2.86,2.86,0,0,0,1.27.44c.53.05,1.29.09,2.29.09h1.54a13.67,13.67,0,0,0,1.62-.07,8.29,8.29,0,0,0,1.41-.28,2,2,0,0,0,1-.51,10.83,10.83,0,0,0,1.72-2.56,18.52,18.52,0,0,0,1.15-2.56Z"/><path class="cls-2" d="M264.49,475.55l-1.13.16a4.55,4.55,0,0,0-1.17.33,1.56,1.56,0,0,0-.77.77,2.81,2.81,0,0,0-.22,1.15v2c0,1.43,0,2.39,0,2.89s0,.91.05,1.24a28.81,28.81,0,0,1-4.71,1.63,19.4,19.4,0,0,1-4.63.57,12.5,12.5,0,0,1-4.67-.91,11.64,11.64,0,0,1-3.92-2.58,12.21,12.21,0,0,1-2.7-4.13,14.17,14.17,0,0,1-1-5.41,14.86,14.86,0,0,1,1-5.36,12.89,12.89,0,0,1,2.71-4.28,11.68,11.68,0,0,1,4-2.78,12.91,12.91,0,0,1,5-1,11.9,11.9,0,0,1,3.71.51,12.34,12.34,0,0,1,2.8,1.24l.75-1.21h1.41l.16,8.85h-1.46a26.5,26.5,0,0,0-.93-2.89,10.28,10.28,0,0,0-1.43-2.56,6.66,6.66,0,0,0-2.12-1.77,6.22,6.22,0,0,0-3-.68,7.39,7.39,0,0,0-3.42.77,7.74,7.74,0,0,0-2.61,2.32,10.94,10.94,0,0,0-1.67,3.69A19.2,19.2,0,0,0,244,473a17.15,17.15,0,0,0,.57,4.53,11.43,11.43,0,0,0,1.69,3.69,8.2,8.2,0,0,0,2.78,2.5,8,8,0,0,0,3.77.92,8.32,8.32,0,0,0,2.85-.5,5.82,5.82,0,0,0,1.85-1c.07-.62.13-1.24.15-1.88v-3a4.36,4.36,0,0,0-.2-1.34,1.46,1.46,0,0,0-.84-.84,6.63,6.63,0,0,0-1.61-.4c-.66-.07-1.19-.15-1.57-.16v-1.3h11.08Z"/><path class="cls-2" d="M292.07,461.62a11.73,11.73,0,0,0-1.48.22,4.81,4.81,0,0,0-1.57.57,2.61,2.61,0,0,0-.82,1.7,17.17,17.17,0,0,0-.24,3.14v11a7.44,7.44,0,0,1-.86,3.66,8,8,0,0,1-2.3,2.56,10.2,10.2,0,0,1-3,1.37,11.68,11.68,0,0,1-3,.42,13.18,13.18,0,0,1-4.06-.59,9.9,9.9,0,0,1-3-1.61,7.06,7.06,0,0,1-1.79-2.34,6.54,6.54,0,0,1-.62-2.74V464a2.14,2.14,0,0,0-.2-1,1.7,1.7,0,0,0-.82-.77,3.33,3.33,0,0,0-1.15-.42,9.66,9.66,0,0,0-1.13-.18v-1.26h10.53v1.26a7.75,7.75,0,0,0-1.26.17,8,8,0,0,0-1.11.25,1.38,1.38,0,0,0-.81.71,3,3,0,0,0-.2,1.08v14a10.83,10.83,0,0,0,.22,2.12,6.16,6.16,0,0,0,.88,2.08,5.31,5.31,0,0,0,1.9,1.61,7.28,7.28,0,0,0,3.27.62,7.89,7.89,0,0,0,3.29-.62,5.31,5.31,0,0,0,2.1-1.65,6.31,6.31,0,0,0,1-2,7.54,7.54,0,0,0,.31-2.12V467.49a14.45,14.45,0,0,0-.29-3.25,2.71,2.71,0,0,0-.84-1.64,4.78,4.78,0,0,0-1.7-.69,10.18,10.18,0,0,0-1.65-.27v-1.26h10.35Z"/><path class="cls-2" d="M318.7,485.64h-6.8c-1.5-2.36-2.85-4.4-4.08-6.12s-2.54-3.51-4-5.34h-2.58v8a2.9,2.9,0,0,0,.18,1.11,1.39,1.39,0,0,0,.84.71,4.37,4.37,0,0,0,1.11.22,8.37,8.37,0,0,0,1.37.15v1.26H294.1v-1.26l1.22-.15a3.13,3.13,0,0,0,1.13-.22,1.41,1.41,0,0,0,.79-.69,2.43,2.43,0,0,0,.24-1.13V463.91a3,3,0,0,0-.18-1.1,1.32,1.32,0,0,0-.84-.73,7.19,7.19,0,0,0-1.15-.29c-.48-.07-.9-.15-1.21-.17v-1.26h11.66a13.1,13.1,0,0,1,3,.33,7.8,7.8,0,0,1,2.54,1.06,5.14,5.14,0,0,1,2.43,4.62,7.06,7.06,0,0,1-.46,2.58,4.94,4.94,0,0,1-1.32,1.94,8.09,8.09,0,0,1-1.92,1.35,15.13,15.13,0,0,1-2.47.95c1.24,1.65,2.27,3,3.11,4.17s1.83,2.48,3,4.09a8.62,8.62,0,0,0,1.41,1.59,7.59,7.59,0,0,0,1.26.82,4.13,4.13,0,0,0,1.17.37,8.11,8.11,0,0,0,1.13.15Zm-9.36-18.84a4.6,4.6,0,0,0-5-5h-3v10.82h2.32a5.52,5.52,0,0,0,5.74-5.85Z"/><path class="cls-2" d="M340.11,463.36a11.84,11.84,0,0,1,2.61,4.21,15.88,15.88,0,0,1,0,10.93,12.64,12.64,0,0,1-2.67,4.18,11.67,11.67,0,0,1-3.86,2.65,12.13,12.13,0,0,1-4.66.91,11.94,11.94,0,0,1-4.88-1,11.33,11.33,0,0,1-3.84-2.74,12.69,12.69,0,0,1-2.52-4.21,15.75,15.75,0,0,1,0-10.78,13.2,13.2,0,0,1,2.65-4.17,11.37,11.37,0,0,1,3.91-2.67,11.83,11.83,0,0,1,4.64-1,12.16,12.16,0,0,1,4.73,1A11.38,11.38,0,0,1,340.11,463.36Zm-2.65,17.91a11.27,11.27,0,0,0,1.44-3.67,20.67,20.67,0,0,0,.46-4.57,20.32,20.32,0,0,0-.49-4.77,11.92,11.92,0,0,0-1.5-3.71,6.88,6.88,0,0,0-2.45-2.36,7.28,7.28,0,0,0-7,.13,7.49,7.49,0,0,0-2.45,2.61,12.26,12.26,0,0,0-1.32,3.68,20.35,20.35,0,0,0-.44,4.42,22.22,22.22,0,0,0,.46,4.62,11.39,11.39,0,0,0,1.46,3.68,7.42,7.42,0,0,0,2.43,2.45,7.07,7.07,0,0,0,6.93,0A6.88,6.88,0,0,0,337.46,481.27Z"/><path class="cls-2" d="M362.59,474a6,6,0,0,1,1.19,2,7.75,7.75,0,0,1,.38,2.47,7,7,0,0,1-2.49,5.52,8.89,8.89,0,0,1-6.14,2.18,10.79,10.79,0,0,1-3.38-.53,12.07,12.07,0,0,1-2.92-1.28l-.77,1.31H347l-.26-8.66h1.44a19.72,19.72,0,0,0,1,2.89,9.94,9.94,0,0,0,1.59,2.43A6.54,6.54,0,0,0,353,484a6.25,6.25,0,0,0,2.87.62,7,7,0,0,0,2.16-.31,3.89,3.89,0,0,0,1.48-.92,3.45,3.45,0,0,0,.84-1.37,5.78,5.78,0,0,0,.29-1.85,5.08,5.08,0,0,0-.86-2.81,5.26,5.26,0,0,0-2.56-2c-.77-.31-1.64-.66-2.65-1s-1.86-.73-2.58-1.06a8.31,8.31,0,0,1-3.33-2.52,7.1,7.1,0,0,1-.6-6.76,7.17,7.17,0,0,1,4.11-3.66,8.15,8.15,0,0,1,2.94-.53,8.37,8.37,0,0,1,3.13.53,14.76,14.76,0,0,1,2.52,1.24l.73-1.21H363l.13,8.37h-1.44q-.38-1.43-.88-2.74a10.26,10.26,0,0,0-1.26-2.39,6.2,6.2,0,0,0-1.88-1.65,5.43,5.43,0,0,0-2.7-.6,4.24,4.24,0,0,0-2.89,1.06,3.49,3.49,0,0,0-1.21,2.67,4.48,4.48,0,0,0,.79,2.72,5.6,5.6,0,0,0,2.21,1.77c.88.4,1.72.77,2.56,1.06s1.64.64,2.43,1a16.78,16.78,0,0,1,2.07,1A8.57,8.57,0,0,1,362.59,474Z"/><path class="cls-2" d="M391.87,474a6,6,0,0,1,1.17,2,7.32,7.32,0,0,1,.4,2.47A7,7,0,0,1,391,484a8.9,8.9,0,0,1-6.14,2.18,11,11,0,0,1-3.4-.53,12.58,12.58,0,0,1-2.91-1.28l-.77,1.31H376.3L376,477h1.46a17.81,17.81,0,0,0,1,2.89,9.93,9.93,0,0,0,1.59,2.43,6.59,6.59,0,0,0,2.16,1.66,6.26,6.26,0,0,0,2.87.62,6.82,6.82,0,0,0,2.14-.31,3.94,3.94,0,0,0,1.5-.92,3.88,3.88,0,0,0,.84-1.37,5.26,5.26,0,0,0,.29-1.85,5,5,0,0,0-.88-2.81,5.06,5.06,0,0,0-2.54-2c-.77-.31-1.66-.66-2.65-1s-1.86-.73-2.58-1.06a8.18,8.18,0,0,1-3.33-2.52,6.48,6.48,0,0,1-1.19-4.06,6.12,6.12,0,0,1,.59-2.7,7.11,7.11,0,0,1,4.13-3.66,7.89,7.89,0,0,1,2.92-.53,8.32,8.32,0,0,1,3.13.53,15.87,15.87,0,0,1,2.54,1.24l.71-1.21h1.44l.13,8.37h-1.44q-.39-1.43-.88-2.74a9.65,9.65,0,0,0-1.28-2.39A5.93,5.93,0,0,0,386.9,462a5.44,5.44,0,0,0-2.71-.6,4.25,4.25,0,0,0-2.89,1.06,3.49,3.49,0,0,0-1.21,2.67,4.61,4.61,0,0,0,.77,2.72,5.84,5.84,0,0,0,2.23,1.77c.88.4,1.72.77,2.56,1.06s1.65.64,2.43,1a17,17,0,0,1,2.07,1A8.07,8.07,0,0,1,391.87,474Z"/><path class="cls-2" d="M402.25,483.59a2.34,2.34,0,0,1-.73,1.7,2.47,2.47,0,0,1-3.44,0,2.33,2.33,0,0,1-.73-1.7,2.41,2.41,0,0,1,.73-1.74,2.43,2.43,0,0,1,3.44,0A2.42,2.42,0,0,1,402.25,483.59Z"/><path class="cls-2" d="M430,485.64H419.51v-1.26a11.56,11.56,0,0,0,2.3-.37c.62-.18.91-.4.91-.66a1.51,1.51,0,0,0,0-.38,1.29,1.29,0,0,0-.11-.42l-2.08-5.67h-8.88c-.33.84-.59,1.56-.8,2.18s-.4,1.19-.57,1.72a6.89,6.89,0,0,0-.31,1.24,3.67,3.67,0,0,0-.11.79c0,.47.38.84,1.13,1.1a8.9,8.9,0,0,0,2.54.47v1.26H404v-1.26a10.5,10.5,0,0,0,1.15-.22,4.15,4.15,0,0,0,1.15-.44,4.3,4.3,0,0,0,1.1-1,6.73,6.73,0,0,0,.77-1.44q1.89-4.77,4.21-10.69c1.54-3.95,2.89-7.48,4.09-10.56h1.43l8.43,21.82a4.88,4.88,0,0,0,.6,1.11,3.92,3.92,0,0,0,.95.82,3.81,3.81,0,0,0,1.06.44,4.8,4.8,0,0,0,1.1.18Zm-10.16-10.33L416,465.48l-3.79,9.83Z"/><path class="cls-2" d="M436.58,483.59a2.33,2.33,0,0,1-.73,1.7,2.47,2.47,0,0,1-3.44,0,2.34,2.34,0,0,1-.73-1.7,2.42,2.42,0,0,1,.73-1.74,2.42,2.42,0,0,1,3.44,0A2.41,2.41,0,0,1,436.58,483.59Z"/></g></svg>