<?xml version="1.0" encoding="utf-8"?>
<!-- Generator: Adobe Illustrator 21.0.2, SVG Export Plug-In . SVG Version: 6.00 Build 0)  -->
<svg version="1.1" id="Capa_1" xmlns="http://www.w3.org/2000/svg" xmlns:xlink="http://www.w3.org/1999/xlink" x="0px" y="0px"
	 viewBox="0 0 634.7 634.7" style="enable-background:new 0 0 634.7 634.7;" xml:space="preserve">
<style type="text/css">
	.st0{fill:#25366F;}
	.st1{fill:#3756AD;}
</style>
<title>Mesa de trabajo 1 copia 7</title>
<g>
	<path class="st0" d="M193.5,490.4c-1.5-0.7-3.1-0.7-4.7-1c-8.9-2.1-16.4-6.5-21.6-14.3c-3-4.5-4.5-9.6-4.8-15
		c-0.6-9.8-0.2-19.7-0.3-29.5c-0.1-7.6-0.1-15.1-0.2-22.7c0-3.4-0.7-6.5-2.9-9.2c-0.6-0.7-1.3-1.3-2.1-2.1c9.1,0,18.1,0,27.3,0
		c-1.4,2.4-2.4,4.8-2.7,7.5c-0.3,2.8-0.5,5.7-0.5,8.5c0,15.4-0.3,30.7,0.2,46.1c0.1,2.2,0.3,4.3,0.8,6.4c1.3,5,4.5,8.5,9.2,10.5
		c6.1,2.7,12.5,3.1,18.8,1.1c7.5-2.4,11.5-7.8,12.3-15.6c0.4-3.7,0.5-7.4,0.5-11.1c0-11.9,0-23.8,0-35.6c0-3.8-0.1-7.7-0.7-11.5
		c-0.3-2.2-1.2-4.3-2.5-6.3c8.9,0,17.7,0,26.6,0c-0.8,0.8-1.6,1.4-2.3,2.2c-2.3,2.6-3,5.8-3.2,9.1c-0.3,4-0.1,8-0.1,12
		c0,11.3,0.1,22.6-0.2,33.9c-0.1,5.1-0.5,10.1-2.1,14.9c-3,8.8-9.3,14.5-17.6,18.2c-3.8,1.7-7.8,2.5-11.9,3c-0.3,0-0.6-0.1-0.8,0.3
		C203.3,490.4,198.4,490.4,193.5,490.4z"/>
	<path class="st1" d="M252,301.3c5-2.6,10.2-3.9,15.6-4.7c6.6-1,13.3-1.3,20-1c7.4,0.3,14.7,1.4,22,2.4c9.6,1.4,19.1,3.2,28.8,3.5
		c6.2,0.2,12.3-0.3,18.2-2.7c9.1-3.7,15.7-10.2,20.5-18.6c3-5.3,5.4-11,7-16.9c0.2-0.9,0.1-1.2-0.9-1.5c-2.9-0.7-2.9-0.7-4.3,1.9
		c-4.9,8.8-11.6,15.9-21.1,19.8c-5,2-10.2,2.7-15.6,2.9c-7.9,0.2-15.7-0.4-23.6-0.9c-8.4-0.5-16.8-1.2-25.2-0.9
		c-2,0.1-4,0.3-6.3,0.4c25.8-34.6,51.5-68.9,77.3-103.3c-0.4-0.4-0.8-0.2-1.2-0.2c-31.6,0-63.2,0-94.8,0c-0.8,0-1.3,0-1.6,1
		c-2.3,9.1-4.7,18.3-7.1,27.4c-0.2,0.9,0,1.1,0.8,1.3c1.1,0.2,2.4,0.8,3.4,0.5c1-0.3,1.2-1.8,1.7-2.7c2.9-4.7,6.2-9.1,11.1-11.9
		c3.6-2.1,7.6-2.8,11.7-3.4c9.2-1.3,18.4-1.1,27.7-1.1c2.6,0,5.2,0,8.1,0c-26,34.2-51.8,68.1-77.7,102.1
		c-25.7-32.1-28.4-86.7,8.6-123.2c38.2-37.6,99.1-35.8,135.1,3.8c35.3,38.8,31.4,100.1-8.6,133.9C341.6,343.2,284,336.8,252,301.3z"
		/>
	<path class="st0" d="M546.9,396.6c9.9,0,19.6,0,29.5,0c-1.3,1.1-2.4,2.1-3.2,3.4c-2.1,3.3-2.6,7.1-2.6,10.9
		c-0.1,9.5-0.1,19-0.1,28.5c0,11.4-0.2,22.7,0,34.1c0.1,5.7,0,8.3,5,14c-9.5,0-19,0-28.9,0c0.6-0.5,1-0.7,1.3-1
		c3.1-2.8,4.2-6.4,4.4-10.4c0.5-9.6,0.1-19.3,0.3-28.9c0-1.1-0.7-0.8-1.3-0.8c-9.8,0-19.7,0-29.5,0c-3,0-6,0-9.1,0c-0.8,0-1,0.2-1,1
		c0.1,9.4-0.2,18.8,0.2,28.2c0.2,4.4,1.6,8.3,4.6,11.5c0.1,0.1,0.2,0.2,0.2,0.3c0,0,0,0.1,0,0.2c-9.4,0-18.7,0-28.3,0
		c1.6-1.5,3-2.9,3.8-4.7c1.2-2.4,1.6-4.9,1.7-7.5c0.3-10.4,0.1-20.9,0.1-31.4c0-10.8,0.1-21.5-0.1-32.3c-0.1-6.5-0.2-9.6-5.3-15.1
		c9.6,0,19.1,0,28.6,0c0.1,0.4-0.3,0.5-0.5,0.7c-2.9,3.1-4.5,6.7-4.7,10.9c-0.4,8.6-0.1,17.2-0.2,25.8c0,0.8,0.2,1.1,1.1,1.1
		c12.9,0,25.8,0,38.7,0c0.7,0,1.1,0,1.1-0.9c-0.1-8.4,0.1-16.8-0.1-25.3C552.3,404.2,550.8,400,546.9,396.6z"/>
	<path class="st0" d="M58.4,487.4c18.5-26.4,36.9-52.8,55.4-79.1c0-0.3-0.2-0.3-0.4-0.3c-8,0-16-0.2-24,0.5
		c-8.6,0.7-16.7,3-24.3,6.9c-0.3,0.1-0.5,0.4-1,0.3c0.6-1.2,1.1-2.4,1.6-3.6c2.2-4.8,4.4-9.7,6.5-14.5c0.3-0.7,0.6-1,1.4-1
		c23.3,0,46.6,0,70,0c0.2,0,0.3,0,0.7,0.1c-18.4,26.5-36.7,52.9-55.1,79.5c0.4,0,0.6,0.1,0.8,0.1c8.4-0.1,16.8,0.2,25.3-0.3
		c10.6-0.5,20.6-3.1,29.8-8.5c0.2-0.1,0.4-0.2,0.7-0.3c0.3,0.5-0.1,0.8-0.2,1.1c-2.7,6.1-5.4,12.2-8,18.4c-0.3,0.7-0.7,1-1.5,1
		c-25.5,0-51,0-76.4,0C59.2,487.6,58.8,487.7,58.4,487.4z"/>
	<path class="st0" d="M473,469c0,5.5,0,10.7,0,15.9c0,0.6-0.4,0.8-0.9,0.9c-6.3,2-12.8,3.5-19.5,4c-7.9,0.6-15.7,0.4-23.4-1.8
		c-16.3-4.5-27.8-14.4-32.1-30.9c-4.9-18.4-1.1-34.9,12.9-48.4c7.2-7,16.1-11,25.9-13c11.7-2.4,23.4-2,35,1.1
		c1.2,0.3,1.7,0.8,1.7,2.2c-0.1,4.5,0,9.1,0,13.6c0,0.5,0.3,1.3-0.2,1.5c-0.4,0.2-0.8-0.4-1.3-0.7c-13.5-7.6-27.3-9.1-41.2-1.2
		c-8.1,4.6-12.4,12.2-14.3,21.1c-2.1,10.1-1.3,20,4,29.1c5.5,9.4,13.8,14.4,24.6,15.3c9.8,0.8,18.6-2.3,26.8-7.5
		C471.6,469.9,472.2,469.5,473,469z"/>
	<path class="st0" d="M381,487.6c-9.7,0-19,0-28.4,0c0.1-0.2,0.1-0.3,0.1-0.4c4-3.7,5.2-8.6,5.2-13.8c0-21.4,0.2-42.7-0.1-64.1
		c-0.1-4.9-1.2-9.4-5.6-12.7c9.8,0,19.4,0,29,0c-0.7,0.8-1.5,1.4-2.1,2.2c-2.1,2.5-3,5.5-3.2,8.7c-0.2,3.7-0.2,7.3-0.2,11
		c0,18.3,0,36.6,0,54.9c0,3.8,0.5,7.5,2.6,10.8C379,485.4,379.8,486.4,381,487.6z"/>
	<path class="st0" d="M306.6,446.8c0.2-0.1,0.2-0.2,0.3-0.2c0.4-0.2,0.9-0.3,1.3-0.5c5.3-1.8,10.2-4.3,14.4-8.1
		c9.7-8.8,9.9-23.1,0.6-32.2c-3.6-3.5-7.8-5.7-12.6-7.1c-5.8-1.7-11.7-1.9-17.7-2c-10.1-0.1-20.1-0.1-30.2-0.1
		c-0.3,0-0.7-0.2-0.9,0.3c1.1,1,2.1,2.1,2.9,3.3c2,3.1,2.3,6.6,2.3,10.1c0,13.6,0,27.2,0,40.8c0,8.1,0,16.2,0,24.4
		c0,4.6-1.4,8.7-5,11.7c-0.1,0.1-0.3,0.2-0.2,0.4c9.4,0,18.8,0,28.3,0c-0.1-0.2-0.2-0.3-0.2-0.4c-3.6-3.5-4.8-7.9-4.8-12.8
		c0-8.3,0-16.6,0-24.9c0-0.2,0-0.4,0.1-0.9c0.3,0.4,0.5,0.5,0.6,0.7c6.3,7.5,12.6,15.1,19,22.6c3.7,4.4,7.5,8.7,12.3,12
		c2.7,1.8,5.5,3.2,8.8,3.5c6.1,0.5,12.3,0.2,18.4,0.3c0.1,0,0.1-0.1,0.2-0.2C330.1,475.5,318.7,460.8,306.6,446.8z M303.9,435.9
		c-5.4,3.6-11.5,4.7-17.8,4.8c-0.8,0-1-0.3-1-1.1c0-5.3,0-10.5,0-15.8c0-5.3,0-10.5,0-15.8c0-0.9,0.3-1.1,1.2-1.1
		c4.5,0,9,0.2,13.3,1.5c5.7,1.7,9.7,5.1,10.7,11.2C311.4,426.3,309.8,432,303.9,435.9z"/>
</g>
</svg>
