<?xml version="1.0" encoding="utf-8"?>
<!-- Generator: Adobe Illustrator 21.0.2, SVG Export Plug-In . SVG Version: 6.00 Build 0)  -->
<svg version="1.1" id="Capa_1" xmlns="http://www.w3.org/2000/svg" xmlns:xlink="http://www.w3.org/1999/xlink" x="0px" y="0px"
	 viewBox="0 0 201 126" enable-background="new 0 0 201 126" xml:space="preserve">
<g>
	<g>
		
			<radialGradient id="XMLID_664_" cx="70.7333" cy="29.8479" r="40.026" gradientTransform="matrix(1 0 0 1.0118 0 8.9298)" gradientUnits="userSpaceOnUse">
			<stop  offset="0" style="stop-color:#FFFFFF"/>
			<stop  offset="1" style="stop-color:#D4D4D4"/>
		</radialGradient>
		<ellipse id="XMLID_981_" fill="url(#XMLID_664_)" cx="70.734" cy="39.131" rx="41.081" ry="39.402"/>
		<path id="XMLID_980_" fill="#211915" d="M81.259,5.914c0,0-4.352,4.81-1.377,7.099c2.974,2.293,7.559,2.293,6.878-1.832
			c0.916-0.915,5.494,3.205,4.352,4.813c-1.15,1.601-4.53,5.271-6.045,4.809c-1.522-0.458-5.184,2.747-5.184,2.747
			s-0.916,2.523,0,3.667c0.915,1.143-1.143,0.692-2.747-1.143c-1.377,0-4.816,5.956,0,3.894c0.915,1.835,1.143,4.579,1.143,4.579
			l0.688,2.293c0,0,5.729,5.271,11.229,7.79c4.579,2.289,4.944,7.56,1.095,10.768c-3.849,3.208-7.002,4.582-7.002,4.582
			s-1.886,7.556-5.783,7.098c-1.831,2.985-3.849,8.479-3.849,8.479s-2.795-0.228-2.338-2.754c0.458-2.521,3.212-11.219,2.296-15.574
			c-0.919-4.352-0.565-5.725-2.348-7.56c-1.779-1.832-2.802-8.937,0-11.454c2.803-2.52,6.011-3.894,3.491-5.956
			c-2.524-2.066-7.105-4.124-8.476-10.31c-0.231-1.377-1.604-1.146-1.377,2.289c-0.688,0.919-3.894-2.062-4.125-8.245
			c-0.231-1.377-1.601-1.608-3.436,1.143c-1.835,2.751-7.102-2.292-4.582-6.871c2.517-4.582,3.436-7.79,15.35-8.476
			C80.343,2.248,78.277,5.684,81.259,5.914z"/>
		<path id="XMLID_979_" fill="#211915" d="M43.914,37.07c0,0-2.062,10.768-4.812,9.391C36.351,45.087,44.74,33.641,43.914,37.07z"/>
		<path id="XMLID_978_" fill="#211915" d="M37.27,61.811c0,0,2.751,4.926,9.587,9.388c-0.689-2.062-0.427-4.121-2.031-5.146
			C43.222,65.019,39.787,59.749,37.27,61.811z"/>
		<path id="XMLID_977_" fill="#211915" d="M31.315,50.127c-0.929-3.542-5.959-19.702,7.949-36.325
			c2.62,2.978,3.732,11.814,2.468,15.02c-1.26,3.208-5.836,7.102-5.836,9.853c-0.003,2.75-2.296,5.04-1.835,6.871
			C34.52,47.376,32.334,54.052,31.315,50.127z"/>
	</g>
	<g id="XMLID_976_">
		<path fill="#FFFFFF" d="M126.569,78.229c-21.307,0-38.641-17.334-38.641-38.641c0-21.309,17.334-38.644,38.641-38.644
			c21.311,0,38.647,17.335,38.647,38.644C165.217,60.896,147.88,78.229,126.569,78.229z"/>
		<path fill="#003A76" d="M126.57,2.319c20.552,0,37.273,16.719,37.273,37.27c0,20.549-16.721,37.266-37.273,37.266
			c-20.549,0-37.267-16.718-37.267-37.266C89.302,19.038,106.021,2.319,126.57,2.319 M126.57-0.43
			c-22.102,0-40.016,17.918-40.016,40.019c0,22.104,17.914,40.016,40.016,40.016c22.107,0,40.022-17.911,40.022-40.016
			C166.592,17.489,148.677-0.43,126.57-0.43L126.57-0.43z"/>
	</g>
	<path id="XMLID_971_" fill="none" stroke="#003A76" stroke-width="1.8328" stroke-miterlimit="10" d="M158.798,39.589
		c0,17.798-14.431,32.236-32.229,32.236c-17.805,0-32.229-14.438-32.229-32.236c0-17.798,14.424-32.225,32.229-32.225
		C144.367,7.364,158.798,21.791,158.798,39.589z"/>
	<path id="XMLID_970_" fill="#003A76" d="M123.788,60.362c0,0-15.815-28.714-16.883-30.239c-1.067-1.528-2.898-6.568,1.377-6.568
		c4.275,0,33.448,0,35.128,0c1.687,0,3.208,2.747,1.687,5.498c-1.535,2.75-6.114,10.08-6.114,10.08h-7.023v15.426l-4.434,7.026
		c0,0,0-20.005,0-21.995c0-1.983,0.923-4.124,3.057-4.124c2.135,0,5.04,0,5.04,0l2.444-4.121c0,0,1.528-2.906-1.528-2.906
		c-3.051,0-20.82,0-21.943,0c-1.122,0-3.104,0.768-1.576,3.364c1.521,2.595,1.576,3.356,1.576,3.356l8.965,0.155
		c0,0-0.316,2.747-1.839,3.36c-1.521,0.613-4.124,1.986-3.353,2.75c0.757,0.761,5.419,10.996,5.419,10.996V60.362z"/>
	<g>
		<path fill="#211915" d="M8.539,100.15H7.967c-0.11-0.398-0.33-0.833-0.668-1.294c-0.334-0.447-0.661-0.702-0.968-0.75
			c-0.158-0.021-0.344-0.035-0.558-0.042c-0.22-0.014-0.461-0.021-0.736-0.021H3.231v4.338h1.243c0.376,0,0.668-0.042,0.871-0.11
			c0.21-0.083,0.386-0.207,0.537-0.372c0.1-0.11,0.193-0.275,0.279-0.517c0.086-0.233,0.138-0.488,0.162-0.757h0.572v4.248H6.322
			c-0.017-0.227-0.069-0.482-0.155-0.765c-0.089-0.282-0.186-0.488-0.286-0.612c-0.155-0.193-0.348-0.316-0.579-0.386
			c-0.23-0.068-0.506-0.104-0.83-0.104H3.231v3.711c0,0.166,0.028,0.317,0.093,0.448c0.069,0.131,0.186,0.24,0.351,0.323
			c0.079,0.034,0.241,0.076,0.496,0.124c0.255,0.055,0.448,0.083,0.575,0.083v0.536H0.067v-0.536
			c0.155-0.008,0.361-0.028,0.609-0.042c0.258-0.027,0.42-0.055,0.496-0.096c0.155-0.062,0.262-0.166,0.331-0.29
			c0.069-0.123,0.103-0.282,0.103-0.468v-7.787c0-0.172-0.031-0.316-0.082-0.447c-0.058-0.131-0.168-0.234-0.351-0.316
			c-0.134-0.062-0.32-0.124-0.551-0.173c-0.227-0.048-0.417-0.082-0.554-0.089v-0.537h8.472V100.15z"/>
		<path fill="#211915" d="M19.19,105.059l-0.203,3.174h-8.964v-0.536c0.155-0.008,0.362-0.028,0.613-0.062
			c0.255-0.034,0.417-0.062,0.493-0.104c0.165-0.075,0.275-0.179,0.341-0.296c0.061-0.117,0.096-0.275,0.096-0.461v-7.76
			c0-0.172-0.028-0.316-0.086-0.447c-0.055-0.131-0.169-0.234-0.351-0.316c-0.134-0.062-0.317-0.124-0.547-0.173
			c-0.231-0.048-0.42-0.082-0.558-0.089v-0.537h8.356v2.596h-0.572c-0.096-0.386-0.32-0.792-0.654-1.232
			c-0.337-0.427-0.661-0.661-0.964-0.709c-0.159-0.021-0.348-0.035-0.561-0.042c-0.224-0.014-0.472-0.021-0.747-0.021h-1.693v4.296
			h1.215c0.389,0,0.678-0.041,0.857-0.109c0.179-0.076,0.334-0.2,0.472-0.372c0.11-0.151,0.207-0.345,0.286-0.592
			c0.082-0.241,0.134-0.469,0.158-0.688h0.568v4.227h-0.568c-0.024-0.247-0.076-0.502-0.165-0.771
			c-0.089-0.275-0.183-0.476-0.279-0.593c-0.155-0.199-0.334-0.33-0.53-0.392c-0.207-0.062-0.472-0.09-0.799-0.09h-1.215v3.236
			c0,0.323,0.02,0.578,0.069,0.764c0.041,0.187,0.131,0.331,0.265,0.434c0.127,0.09,0.306,0.151,0.54,0.18
			c0.224,0.027,0.551,0.041,0.971,0.041c0.168,0,0.389,0,0.664,0c0.275,0,0.506-0.014,0.688-0.027
			c0.193-0.021,0.393-0.056,0.596-0.11c0.207-0.055,0.351-0.124,0.437-0.214c0.238-0.24,0.483-0.619,0.737-1.108
			c0.258-0.495,0.42-0.86,0.489-1.095H19.19z"/>
		<path fill="#211915" d="M31.256,102.905c0,0.922-0.172,1.721-0.517,2.389c-0.348,0.682-0.795,1.232-1.346,1.659
			c-0.561,0.434-1.184,0.758-1.879,0.964c-0.699,0.221-1.415,0.316-2.155,0.316h-4.472v-0.536c0.145,0,0.337-0.015,0.575-0.042
			c0.234-0.027,0.392-0.055,0.472-0.096c0.149-0.062,0.255-0.166,0.324-0.29c0.069-0.123,0.104-0.282,0.104-0.468v-7.787
			c0-0.172-0.024-0.33-0.086-0.468c-0.059-0.131-0.168-0.241-0.341-0.324c-0.158-0.075-0.33-0.138-0.516-0.165
			c-0.179-0.034-0.337-0.062-0.468-0.068v-0.537h4.72c0.647,0,1.284,0.096,1.911,0.296c0.633,0.199,1.181,0.475,1.645,0.806
			c0.633,0.454,1.129,1.046,1.491,1.776C31.074,101.059,31.256,101.919,31.256,102.905z M29.394,102.905
			c0-0.724-0.096-1.378-0.289-1.97c-0.193-0.578-0.475-1.095-0.843-1.528c-0.351-0.413-0.785-0.743-1.291-0.978
			c-0.509-0.241-1.078-0.358-1.701-0.358c-0.21,0-0.441,0-0.706,0.014c-0.258,0-0.455,0.014-0.579,0.014v8.29
			c0,0.468,0.131,0.785,0.403,0.964c0.269,0.179,0.682,0.262,1.236,0.262c0.644,0,1.208-0.11,1.69-0.345
			c0.482-0.22,0.871-0.536,1.174-0.95c0.317-0.42,0.544-0.908,0.688-1.473C29.318,104.288,29.394,103.634,29.394,102.905z"/>
		<path fill="#211915" d="M42.286,105.059l-0.207,3.174h-8.958v-0.536c0.151-0.008,0.351-0.028,0.609-0.062
			c0.248-0.034,0.413-0.062,0.492-0.104c0.158-0.075,0.275-0.179,0.337-0.296c0.062-0.117,0.096-0.275,0.096-0.461v-7.76
			c0-0.172-0.027-0.316-0.086-0.447c-0.052-0.131-0.172-0.234-0.348-0.316c-0.138-0.062-0.32-0.124-0.554-0.173
			c-0.231-0.048-0.41-0.082-0.547-0.089v-0.537h8.348v2.596h-0.568c-0.104-0.386-0.32-0.792-0.661-1.232
			c-0.334-0.427-0.658-0.661-0.957-0.709c-0.162-0.021-0.348-0.035-0.568-0.042c-0.213-0.014-0.461-0.021-0.743-0.021h-1.697v4.296
			h1.215c0.396,0,0.678-0.041,0.857-0.109c0.179-0.076,0.337-0.2,0.475-0.372c0.114-0.151,0.21-0.345,0.289-0.592
			c0.076-0.241,0.127-0.469,0.152-0.688h0.571v4.227h-0.571c-0.014-0.247-0.076-0.502-0.162-0.771
			c-0.089-0.275-0.179-0.476-0.279-0.593c-0.158-0.199-0.337-0.33-0.534-0.392c-0.203-0.062-0.465-0.09-0.798-0.09h-1.215v3.236
			c0,0.323,0.024,0.578,0.069,0.764c0.048,0.187,0.138,0.331,0.265,0.434c0.134,0.09,0.313,0.151,0.54,0.18
			c0.231,0.027,0.558,0.041,0.978,0.041c0.165,0,0.385,0,0.658,0c0.275,0,0.506-0.014,0.695-0.027
			c0.192-0.021,0.392-0.056,0.595-0.11c0.203-0.055,0.351-0.124,0.441-0.214c0.23-0.24,0.475-0.619,0.726-1.108
			c0.258-0.495,0.42-0.86,0.493-1.095H42.286z"/>
		<path fill="#211915" d="M54.524,108.233h-2.905c-0.647-1.005-1.226-1.872-1.746-2.609c-0.52-0.736-1.081-1.493-1.69-2.271h-1.105
			v3.422c0,0.179,0.027,0.33,0.083,0.468c0.055,0.131,0.175,0.234,0.354,0.303c0.096,0.042,0.255,0.069,0.482,0.104
			c0.23,0.027,0.417,0.049,0.582,0.049v0.536h-4.568v-0.536c0.121-0.008,0.299-0.028,0.534-0.049
			c0.227-0.027,0.389-0.062,0.478-0.104c0.155-0.062,0.265-0.158,0.333-0.282c0.069-0.131,0.104-0.296,0.104-0.488v-7.808
			c0-0.18-0.027-0.331-0.076-0.469c-0.052-0.138-0.172-0.24-0.361-0.316c-0.127-0.041-0.293-0.083-0.496-0.124
			c-0.2-0.034-0.375-0.062-0.516-0.068v-0.537h4.981c0.461,0,0.888,0.041,1.287,0.138c0.399,0.096,0.768,0.248,1.088,0.447
			c0.314,0.207,0.565,0.468,0.754,0.799c0.183,0.323,0.279,0.723,0.279,1.177c0,0.421-0.062,0.785-0.189,1.102
			c-0.127,0.324-0.317,0.606-0.561,0.841c-0.227,0.213-0.503,0.399-0.823,0.564c-0.32,0.158-0.671,0.289-1.057,0.399
			c0.53,0.709,0.974,1.301,1.329,1.79c0.351,0.475,0.782,1.06,1.298,1.748c0.221,0.304,0.424,0.53,0.603,0.675
			c0.179,0.152,0.361,0.262,0.537,0.352c0.131,0.068,0.292,0.117,0.492,0.158c0.196,0.027,0.361,0.056,0.496,0.056V108.233z
			 M50.524,100.198c0-0.654-0.19-1.178-0.568-1.557c-0.372-0.378-0.902-0.571-1.583-0.571h-1.294v4.627h0.995
			c0.703,0,1.284-0.228,1.749-0.675C50.294,101.569,50.524,100.962,50.524,100.198z"/>
		<path fill="#211915" d="M65.627,108.233h-4.482v-0.536c0.393-0.028,0.723-0.069,0.985-0.152c0.261-0.068,0.389-0.165,0.389-0.275
			c0-0.055-0.003-0.103-0.017-0.172c-0.007-0.062-0.02-0.124-0.042-0.172l-0.892-2.424h-3.79c-0.145,0.358-0.262,0.668-0.348,0.93
			c-0.09,0.269-0.172,0.51-0.241,0.736c-0.069,0.207-0.11,0.393-0.138,0.523c-0.024,0.138-0.038,0.255-0.038,0.338
			c0,0.199,0.158,0.364,0.479,0.475c0.324,0.11,0.682,0.179,1.081,0.193v0.536h-4.065v-0.536c0.134-0.008,0.3-0.042,0.496-0.083
			c0.2-0.048,0.362-0.11,0.486-0.192c0.199-0.138,0.365-0.283,0.475-0.435c0.11-0.145,0.221-0.351,0.327-0.612
			c0.537-1.356,1.14-2.878,1.793-4.571c0.658-1.688,1.24-3.195,1.749-4.51h0.609l3.597,9.315c0.076,0.192,0.162,0.351,0.262,0.468
			c0.093,0.124,0.231,0.248,0.403,0.365c0.114,0.075,0.265,0.131,0.454,0.179c0.186,0.048,0.341,0.076,0.468,0.076V108.233z
			 M61.285,103.826l-1.632-4.186l-1.618,4.186H61.285z"/>
		<path fill="#211915" d="M71.389,108.494c-0.641,0-1.26-0.124-1.849-0.378c-0.589-0.255-1.116-0.62-1.573-1.095
			c-0.448-0.476-0.806-1.061-1.074-1.749c-0.272-0.688-0.403-1.46-0.403-2.327c0-0.86,0.131-1.639,0.393-2.341
			c0.262-0.709,0.63-1.309,1.091-1.818c0.465-0.509,1.009-0.895,1.639-1.163c0.623-0.275,1.298-0.413,2.014-0.413
			c0.53,0,1.009,0.062,1.442,0.199c0.434,0.131,0.844,0.317,1.229,0.551l0.317-0.509h0.606l0.069,3.842h-0.62
			c-0.09-0.372-0.207-0.778-0.372-1.219c-0.162-0.434-0.351-0.812-0.565-1.115c-0.248-0.345-0.534-0.613-0.868-0.806
			c-0.334-0.193-0.719-0.296-1.146-0.296c-0.493,0-0.95,0.103-1.37,0.323c-0.431,0.221-0.792,0.544-1.102,0.971
			c-0.296,0.413-0.527,0.93-0.689,1.563c-0.172,0.64-0.254,1.349-0.254,2.12c0,0.702,0.089,1.336,0.262,1.907
			c0.175,0.571,0.43,1.081,0.75,1.521c0.32,0.427,0.706,0.765,1.153,1.005c0.441,0.248,0.937,0.372,1.48,0.372
			c0.413,0,0.788-0.068,1.136-0.192c0.341-0.131,0.644-0.303,0.896-0.517c0.254-0.228,0.475-0.476,0.668-0.765
			c0.193-0.282,0.351-0.592,0.475-0.922l0.572,0.275c-0.434,1.066-1.019,1.831-1.735,2.285
			C73.241,108.268,72.384,108.494,71.389,108.494z"/>
		<path fill="#211915" d="M81.988,108.233h-4.867v-0.536c0.138-0.008,0.337-0.028,0.599-0.042c0.255-0.021,0.434-0.055,0.544-0.096
			c0.165-0.062,0.289-0.152,0.365-0.269c0.076-0.11,0.117-0.268,0.117-0.475v-7.821c0-0.172-0.034-0.316-0.082-0.44
			c-0.062-0.124-0.193-0.221-0.399-0.303c-0.151-0.056-0.344-0.11-0.571-0.166c-0.234-0.055-0.42-0.089-0.571-0.096v-0.537h4.867
			v0.537c-0.165,0-0.351,0.021-0.571,0.055c-0.213,0.034-0.406,0.076-0.564,0.124c-0.193,0.061-0.324,0.165-0.393,0.303
			c-0.062,0.138-0.096,0.282-0.096,0.454v7.809c0,0.165,0.034,0.316,0.11,0.447c0.069,0.131,0.2,0.227,0.379,0.303
			c0.104,0.048,0.275,0.09,0.517,0.138c0.241,0.048,0.447,0.076,0.619,0.076V108.233z"/>
		<path fill="#211915" d="M92.681,98.725c0.475,0.496,0.847,1.095,1.115,1.797c0.269,0.702,0.399,1.48,0.399,2.327
			c0,0.86-0.138,1.639-0.406,2.341c-0.275,0.702-0.661,1.295-1.143,1.79c-0.468,0.482-1.019,0.861-1.639,1.123
			c-0.627,0.268-1.295,0.392-1.997,0.392c-0.75,0-1.446-0.138-2.079-0.42c-0.641-0.282-1.184-0.668-1.639-1.177
			c-0.455-0.489-0.812-1.088-1.081-1.79c-0.255-0.702-0.393-1.453-0.393-2.259c0-0.874,0.138-1.652,0.413-2.341
			c0.275-0.688,0.654-1.28,1.136-1.783c0.475-0.503,1.026-0.881,1.659-1.136c0.633-0.275,1.294-0.399,1.983-0.399
			c0.716,0,1.391,0.138,2.024,0.399C91.669,97.858,92.213,98.236,92.681,98.725z M91.545,106.374
			c0.282-0.454,0.489-0.977,0.62-1.563c0.131-0.585,0.193-1.239,0.193-1.962c0-0.736-0.076-1.418-0.213-2.038
			c-0.145-0.612-0.358-1.142-0.64-1.576c-0.275-0.434-0.627-0.765-1.047-1.013c-0.42-0.233-0.902-0.357-1.446-0.357
			c-0.606,0-1.122,0.138-1.549,0.413c-0.434,0.282-0.771,0.654-1.046,1.122c-0.248,0.447-0.441,0.971-0.564,1.569
			c-0.124,0.6-0.186,1.226-0.186,1.88c0,0.737,0.062,1.397,0.2,1.983c0.131,0.585,0.337,1.108,0.62,1.569
			c0.275,0.44,0.62,0.792,1.033,1.047c0.42,0.248,0.916,0.371,1.494,0.371c0.544,0,1.033-0.123,1.466-0.378
			C90.919,107.187,91.27,106.828,91.545,106.374z"/>
		<path fill="#211915" d="M107.25,97.989c-0.138,0-0.358,0.041-0.647,0.117c-0.296,0.075-0.51,0.158-0.634,0.24
			c-0.186,0.124-0.31,0.372-0.371,0.73c-0.062,0.357-0.097,0.812-0.097,1.363v7.903h-0.654l-6.547-8.826v5.562
			c0,0.627,0.041,1.102,0.117,1.439c0.076,0.337,0.2,0.571,0.365,0.716c0.117,0.11,0.358,0.214,0.723,0.31
			c0.365,0.097,0.599,0.152,0.723,0.152v0.536h-4.434v-0.536c0.138-0.008,0.372-0.056,0.695-0.146
			c0.331-0.089,0.523-0.172,0.613-0.24c0.172-0.138,0.296-0.358,0.365-0.647c0.062-0.289,0.096-0.792,0.096-1.501v-5.315
			c0-0.233-0.041-0.468-0.124-0.702c-0.082-0.227-0.193-0.413-0.33-0.537c-0.179-0.165-0.427-0.31-0.736-0.427
			c-0.317-0.124-0.565-0.186-0.757-0.192v-0.537h3.085l6.066,8.221v-5.137c0-0.619-0.042-1.102-0.124-1.445
			c-0.083-0.338-0.193-0.558-0.345-0.675c-0.145-0.09-0.379-0.187-0.702-0.275c-0.316-0.097-0.565-0.145-0.729-0.151v-0.537h4.386
			V97.989z"/>
		<path fill="#211915" d="M121.399,100.109c0,0.564-0.117,1.061-0.33,1.494c-0.228,0.434-0.53,0.792-0.923,1.074
			c-0.386,0.289-0.812,0.488-1.267,0.626c-0.462,0.131-0.957,0.193-1.474,0.193h-1.212v3.277c0,0.179,0.034,0.33,0.09,0.468
			c0.055,0.131,0.179,0.234,0.364,0.303c0.09,0.042,0.248,0.069,0.482,0.104c0.234,0.027,0.44,0.049,0.634,0.049v0.536h-4.634
			v-0.536c0.124-0.008,0.296-0.028,0.53-0.049c0.233-0.027,0.392-0.062,0.481-0.104c0.151-0.062,0.262-0.158,0.33-0.282
			c0.069-0.131,0.104-0.296,0.104-0.488v-7.787c0-0.186-0.027-0.338-0.075-0.482c-0.056-0.145-0.173-0.247-0.358-0.323
			c-0.192-0.062-0.386-0.11-0.578-0.138c-0.186-0.027-0.352-0.048-0.489-0.055v-0.537h4.93c1.013,0,1.825,0.233,2.451,0.716
			C121.082,98.656,121.399,99.303,121.399,100.109z M119.085,101.954c0.165-0.248,0.282-0.503,0.338-0.765
			c0.055-0.262,0.082-0.489,0.082-0.702c0-0.282-0.034-0.585-0.104-0.882c-0.068-0.296-0.186-0.558-0.351-0.784
			c-0.179-0.234-0.413-0.42-0.702-0.558c-0.289-0.124-0.647-0.193-1.081-0.193h-1.074v4.765h0.778c0.551,0,0.991-0.083,1.343-0.248
			C118.651,102.408,118.906,102.201,119.085,101.954z"/>
		<path fill="#211915" d="M133.316,108.233h-4.482v-0.536c0.399-0.028,0.717-0.069,0.985-0.152c0.254-0.068,0.392-0.165,0.392-0.275
			c0-0.055-0.007-0.103-0.014-0.172c-0.014-0.062-0.027-0.124-0.048-0.172l-0.896-2.424h-3.786c-0.145,0.358-0.255,0.668-0.352,0.93
			c-0.082,0.269-0.165,0.51-0.233,0.736c-0.069,0.207-0.117,0.393-0.146,0.523c-0.02,0.138-0.034,0.255-0.034,0.338
			c0,0.199,0.165,0.364,0.482,0.475c0.316,0.11,0.675,0.179,1.074,0.193v0.536h-4.062v-0.536c0.138-0.008,0.296-0.042,0.496-0.083
			c0.192-0.048,0.357-0.11,0.488-0.192c0.2-0.138,0.358-0.283,0.469-0.435c0.116-0.145,0.227-0.351,0.323-0.612
			c0.551-1.356,1.143-2.878,1.804-4.571c0.647-1.688,1.232-3.195,1.749-4.51h0.606l3.595,9.315c0.082,0.192,0.165,0.351,0.261,0.468
			c0.097,0.124,0.234,0.248,0.4,0.365c0.124,0.075,0.275,0.131,0.462,0.179c0.186,0.048,0.351,0.076,0.468,0.076V108.233z
			 M128.972,103.826l-1.624-4.186l-1.618,4.186H128.972z"/>
		<path fill="#211915" d="M143.108,100.37h-0.517c-0.056-0.179-0.138-0.399-0.255-0.647c-0.117-0.247-0.255-0.481-0.406-0.709
			c-0.145-0.234-0.316-0.44-0.496-0.612c-0.179-0.18-0.35-0.275-0.522-0.304c-0.152-0.014-0.352-0.034-0.593-0.041
			c-0.233-0.014-0.454-0.021-0.661-0.021h-0.44v8.641c0,0.165,0.034,0.316,0.104,0.454c0.068,0.138,0.199,0.248,0.379,0.324
			c0.082,0.034,0.275,0.082,0.564,0.145c0.296,0.068,0.523,0.097,0.689,0.097v0.536h-5.102v-0.536
			c0.145-0.008,0.364-0.028,0.653-0.056c0.29-0.034,0.496-0.068,0.607-0.11c0.165-0.068,0.289-0.165,0.372-0.289
			c0.075-0.124,0.109-0.289,0.109-0.495v-8.71h-0.44c-0.151,0-0.344,0.007-0.585,0.014c-0.234,0.007-0.462,0.027-0.668,0.048
			c-0.165,0.021-0.345,0.124-0.524,0.304c-0.179,0.179-0.344,0.385-0.495,0.612c-0.152,0.228-0.29,0.469-0.406,0.723
			c-0.117,0.262-0.2,0.469-0.241,0.634h-0.53v-2.919h9.405V100.37z"/>
		<path fill="#211915" d="M155.108,108.233h-2.905c-0.648-1.005-1.226-1.872-1.749-2.609c-0.523-0.736-1.081-1.493-1.693-2.271
			h-1.102v3.422c0,0.179,0.027,0.33,0.082,0.468c0.056,0.131,0.18,0.234,0.358,0.303c0.09,0.042,0.248,0.069,0.476,0.104
			c0.227,0.027,0.42,0.049,0.585,0.049v0.536h-4.572v-0.536c0.124-0.008,0.304-0.028,0.537-0.049
			c0.228-0.027,0.386-0.062,0.482-0.104c0.151-0.062,0.262-0.158,0.33-0.282c0.069-0.131,0.104-0.296,0.104-0.488v-7.808
			c0-0.18-0.027-0.331-0.076-0.469c-0.055-0.138-0.179-0.24-0.357-0.316c-0.138-0.041-0.296-0.083-0.496-0.124
			c-0.206-0.034-0.371-0.062-0.523-0.068v-0.537h4.985c0.454,0,0.888,0.041,1.287,0.138c0.399,0.096,0.765,0.248,1.088,0.447
			c0.31,0.207,0.564,0.468,0.751,0.799c0.192,0.323,0.275,0.723,0.275,1.177c0,0.421-0.056,0.785-0.18,1.102
			c-0.138,0.324-0.316,0.606-0.564,0.841c-0.227,0.213-0.502,0.399-0.826,0.564c-0.316,0.158-0.675,0.289-1.061,0.399
			c0.537,0.709,0.978,1.301,1.336,1.79c0.345,0.475,0.785,1.06,1.295,1.748c0.22,0.304,0.427,0.53,0.605,0.675
			c0.179,0.152,0.358,0.262,0.537,0.352c0.131,0.068,0.289,0.117,0.489,0.158c0.199,0.027,0.364,0.056,0.502,0.056V108.233z
			 M151.101,100.198c0-0.654-0.186-1.178-0.564-1.557c-0.372-0.378-0.902-0.571-1.584-0.571h-1.294v4.627h0.991
			c0.702,0,1.287-0.228,1.749-0.675C150.866,101.569,151.101,100.962,151.101,100.198z"/>
		<path fill="#211915" d="M164.864,98.725c0.475,0.496,0.847,1.095,1.115,1.797c0.269,0.702,0.406,1.48,0.406,2.327
			c0,0.86-0.138,1.639-0.413,2.341c-0.269,0.702-0.654,1.295-1.144,1.79c-0.468,0.482-1.018,0.861-1.639,1.123
			c-0.626,0.268-1.287,0.392-1.996,0.392c-0.751,0-1.446-0.138-2.079-0.42c-0.634-0.282-1.185-0.668-1.639-1.177
			c-0.455-0.489-0.812-1.088-1.074-1.79c-0.262-0.702-0.399-1.453-0.399-2.259c0-0.874,0.138-1.652,0.413-2.341
			c0.275-0.688,0.654-1.28,1.136-1.783c0.476-0.503,1.026-0.881,1.659-1.136c0.634-0.275,1.295-0.399,1.983-0.399
			c0.716,0,1.391,0.138,2.023,0.399C163.852,97.858,164.396,98.236,164.864,98.725z M163.728,106.374
			c0.282-0.454,0.489-0.977,0.62-1.563c0.131-0.585,0.199-1.239,0.199-1.962c0-0.736-0.082-1.418-0.22-2.038
			c-0.145-0.612-0.358-1.142-0.641-1.576c-0.275-0.434-0.627-0.765-1.047-1.013c-0.42-0.233-0.901-0.357-1.445-0.357
			c-0.607,0-1.122,0.138-1.55,0.413c-0.434,0.282-0.771,0.654-1.046,1.122c-0.248,0.447-0.434,0.971-0.564,1.569
			c-0.117,0.6-0.187,1.226-0.187,1.88c0,0.737,0.069,1.397,0.2,1.983c0.131,0.585,0.337,1.108,0.619,1.569
			c0.275,0.44,0.62,0.792,1.04,1.047c0.42,0.248,0.916,0.371,1.487,0.371c0.544,0,1.032-0.123,1.473-0.378
			C163.102,107.187,163.459,106.828,163.728,106.374z"/>
		<path fill="#211915" d="M179.433,97.989c-0.138,0-0.358,0.041-0.648,0.117c-0.296,0.075-0.51,0.158-0.633,0.24
			c-0.186,0.124-0.304,0.372-0.372,0.73c-0.062,0.357-0.09,0.812-0.09,1.363v7.903h-0.668l-6.54-8.826v5.562
			c0,0.627,0.041,1.102,0.116,1.439c0.083,0.337,0.2,0.571,0.365,0.716c0.117,0.11,0.358,0.214,0.723,0.31
			c0.365,0.097,0.606,0.152,0.724,0.152v0.536h-4.428v-0.536c0.138-0.008,0.365-0.056,0.688-0.146
			c0.331-0.089,0.53-0.172,0.613-0.24c0.172-0.138,0.296-0.358,0.364-0.647c0.062-0.289,0.097-0.792,0.097-1.501v-5.315
			c0-0.233-0.041-0.468-0.117-0.702c-0.089-0.227-0.192-0.413-0.33-0.537c-0.186-0.165-0.434-0.31-0.744-0.427
			c-0.31-0.124-0.565-0.186-0.75-0.192v-0.537h3.077l6.073,8.221v-5.137c0-0.619-0.049-1.102-0.131-1.445
			c-0.076-0.338-0.193-0.558-0.352-0.675c-0.138-0.09-0.371-0.187-0.689-0.275c-0.323-0.097-0.564-0.145-0.736-0.151v-0.537h4.386
			V97.989z"/>
		<path fill="#211915" d="M190.999,108.233h-4.488v-0.536c0.399-0.028,0.723-0.069,0.984-0.152c0.262-0.068,0.393-0.165,0.393-0.275
			c0-0.055-0.007-0.103-0.014-0.172c-0.015-0.062-0.028-0.124-0.049-0.172l-0.895-2.424h-3.787c-0.138,0.358-0.255,0.668-0.345,0.93
			c-0.089,0.269-0.172,0.51-0.24,0.736c-0.069,0.207-0.11,0.393-0.138,0.523c-0.027,0.138-0.042,0.255-0.042,0.338
			c0,0.199,0.159,0.364,0.482,0.475c0.316,0.11,0.675,0.179,1.081,0.193v0.536h-4.069v-0.536c0.138-0.008,0.296-0.042,0.496-0.083
			c0.199-0.048,0.357-0.11,0.488-0.192c0.2-0.138,0.358-0.283,0.469-0.435c0.117-0.145,0.227-0.351,0.33-0.612
			c0.544-1.356,1.143-2.878,1.79-4.571c0.661-1.688,1.239-3.195,1.756-4.51h0.605l3.602,9.315c0.075,0.192,0.158,0.351,0.255,0.468
			c0.096,0.124,0.233,0.248,0.406,0.365c0.116,0.075,0.269,0.131,0.454,0.179c0.192,0.048,0.344,0.076,0.475,0.076V108.233z
			 M186.655,103.826l-1.632-4.186l-1.618,4.186H186.655z"/>
		<path fill="#211915" d="M200.673,105.025l-0.228,3.208h-8.434v-0.536c0.124-0.008,0.296-0.028,0.53-0.049
			c0.227-0.027,0.385-0.062,0.475-0.104c0.158-0.062,0.269-0.158,0.338-0.282c0.068-0.131,0.103-0.296,0.103-0.488v-7.726
			c0-0.179-0.034-0.33-0.089-0.461c-0.056-0.131-0.173-0.241-0.352-0.323c-0.11-0.056-0.275-0.117-0.488-0.18
			c-0.207-0.055-0.386-0.089-0.517-0.096v-0.537h4.558v0.537c-0.145,0-0.33,0.027-0.558,0.075c-0.228,0.042-0.386,0.09-0.489,0.117
			c-0.172,0.062-0.289,0.165-0.351,0.316c-0.069,0.145-0.097,0.304-0.097,0.469v7.25c0,0.337,0.02,0.599,0.048,0.777
			c0.035,0.187,0.11,0.331,0.227,0.428c0.124,0.096,0.296,0.158,0.523,0.179c0.234,0.034,0.558,0.048,0.978,0.048
			c0.179,0,0.379-0.007,0.578-0.021c0.207-0.007,0.399-0.027,0.579-0.055c0.179-0.035,0.344-0.076,0.495-0.124
			c0.151-0.056,0.255-0.124,0.331-0.207c0.206-0.233,0.447-0.585,0.723-1.061c0.275-0.475,0.468-0.854,0.578-1.156H200.673z"/>
		<path fill="#211915" d="M60.469,122.196c0.207,0.228,0.351,0.469,0.451,0.737c0.1,0.269,0.141,0.578,0.141,0.93
			c0,0.84-0.31,1.535-0.93,2.079c-0.623,0.551-1.391,0.819-2.316,0.819c-0.424,0-0.851-0.062-1.277-0.2
			c-0.42-0.131-0.789-0.289-1.098-0.481l-0.289,0.495h-0.537l-0.093-3.263h0.544c0.11,0.399,0.241,0.771,0.393,1.088
			c0.148,0.33,0.348,0.633,0.592,0.915c0.23,0.269,0.506,0.475,0.812,0.627c0.313,0.158,0.679,0.234,1.088,0.234
			c0.31,0,0.575-0.042,0.806-0.117c0.234-0.083,0.42-0.2,0.561-0.345c0.145-0.145,0.255-0.323,0.324-0.517
			c0.069-0.206,0.104-0.434,0.104-0.695c0-0.378-0.107-0.729-0.324-1.06c-0.217-0.331-0.534-0.579-0.964-0.751
			c-0.286-0.117-0.62-0.248-0.998-0.386c-0.372-0.138-0.695-0.275-0.971-0.399c-0.541-0.24-0.95-0.558-1.25-0.95
			c-0.303-0.385-0.448-0.895-0.448-1.528c0-0.364,0.072-0.702,0.224-1.019c0.145-0.31,0.355-0.593,0.627-0.84
			c0.258-0.228,0.568-0.413,0.922-0.537c0.351-0.138,0.72-0.2,1.105-0.2c0.437,0,0.833,0.062,1.181,0.2
			c0.344,0.138,0.661,0.289,0.946,0.468l0.272-0.454h0.541l0.052,3.153h-0.541c-0.103-0.358-0.21-0.702-0.334-1.033
			c-0.12-0.33-0.282-0.633-0.479-0.901c-0.192-0.262-0.43-0.462-0.702-0.62c-0.279-0.158-0.62-0.226-1.019-0.226
			c-0.43,0-0.788,0.138-1.091,0.398c-0.299,0.275-0.451,0.613-0.451,1.006c0,0.413,0.096,0.75,0.289,1.025
			c0.193,0.269,0.472,0.489,0.84,0.668c0.327,0.151,0.647,0.289,0.964,0.399c0.313,0.117,0.62,0.241,0.913,0.372
			c0.268,0.11,0.53,0.248,0.781,0.393C60.077,121.831,60.291,122.003,60.469,122.196z"/>
		<path fill="#211915" d="M70.263,123.766l-0.179,2.802h-7.911v-0.475c0.138-0.014,0.32-0.027,0.541-0.062
			c0.224-0.027,0.368-0.062,0.437-0.089c0.148-0.062,0.241-0.151,0.3-0.262c0.051-0.11,0.083-0.241,0.083-0.413v-6.844
			c0-0.145-0.021-0.275-0.072-0.386c-0.052-0.117-0.155-0.213-0.31-0.282c-0.12-0.062-0.282-0.11-0.489-0.151
			c-0.203-0.048-0.361-0.076-0.489-0.083v-0.475h7.374v2.293h-0.502c-0.093-0.338-0.283-0.696-0.582-1.081
			c-0.299-0.386-0.582-0.593-0.847-0.634c-0.138-0.014-0.31-0.027-0.496-0.041c-0.192-0.007-0.413-0.014-0.661-0.014h-1.494v3.786
			h1.074c0.341,0,0.592-0.027,0.754-0.096c0.158-0.062,0.299-0.173,0.42-0.324c0.093-0.131,0.179-0.296,0.248-0.517
			c0.069-0.22,0.121-0.427,0.138-0.619h0.506v3.731h-0.506c-0.017-0.213-0.065-0.44-0.141-0.675c-0.083-0.24-0.158-0.42-0.244-0.523
			c-0.138-0.179-0.3-0.289-0.475-0.344c-0.176-0.055-0.406-0.083-0.699-0.083h-1.074v2.857c0,0.282,0.021,0.51,0.059,0.682
			c0.038,0.158,0.117,0.289,0.234,0.372c0.117,0.082,0.275,0.138,0.479,0.165c0.2,0.021,0.485,0.034,0.861,0.034
			c0.145,0,0.341,0,0.582,0c0.241,0,0.444-0.007,0.609-0.027c0.169-0.021,0.344-0.048,0.53-0.104
			c0.179-0.041,0.31-0.109,0.386-0.192c0.206-0.207,0.42-0.53,0.647-0.964c0.227-0.44,0.368-0.758,0.434-0.964H70.263z"/>
		<path fill="#211915" d="M80.453,122.768c-0.103,0.014-0.248,0.034-0.427,0.062c-0.186,0.034-0.331,0.069-0.44,0.124
			c-0.138,0.068-0.234,0.165-0.29,0.289c-0.055,0.124-0.083,0.269-0.083,0.434v0.737c0,0.537,0.007,0.901,0.014,1.088
			c0,0.192,0.014,0.344,0.021,0.468c-0.599,0.262-1.184,0.468-1.776,0.612c-0.592,0.146-1.178,0.214-1.742,0.214
			c-0.606,0-1.191-0.117-1.759-0.344c-0.564-0.228-1.057-0.552-1.477-0.972c-0.423-0.42-0.768-0.942-1.016-1.556
			c-0.248-0.605-0.375-1.287-0.375-2.038c0-0.723,0.12-1.397,0.358-2.018c0.241-0.619,0.585-1.156,1.019-1.61
			c0.427-0.455,0.933-0.799,1.518-1.047c0.595-0.248,1.222-0.372,1.897-0.372c0.537,0,0.998,0.062,1.397,0.193
			c0.399,0.124,0.751,0.282,1.053,0.468l0.283-0.454h0.53l0.062,3.332H78.67c-0.096-0.372-0.213-0.729-0.351-1.088
			c-0.138-0.357-0.317-0.675-0.537-0.964c-0.22-0.275-0.482-0.502-0.798-0.668c-0.317-0.172-0.696-0.255-1.129-0.255
			c-0.482,0-0.909,0.097-1.288,0.29c-0.378,0.199-0.705,0.495-0.984,0.874c-0.272,0.372-0.482,0.833-0.63,1.391
			c-0.148,0.558-0.221,1.178-0.221,1.859c0,0.605,0.069,1.177,0.214,1.707c0.145,0.537,0.358,0.998,0.637,1.391
			c0.279,0.4,0.626,0.709,1.046,0.943c0.42,0.221,0.888,0.345,1.418,0.345c0.393,0,0.751-0.069,1.074-0.187
			c0.323-0.117,0.558-0.255,0.695-0.378c0.027-0.234,0.048-0.469,0.055-0.71c0-0.24,0-0.44,0-0.605V123.8
			c0-0.186-0.027-0.351-0.076-0.503c-0.048-0.138-0.158-0.247-0.316-0.316c-0.152-0.068-0.351-0.11-0.606-0.151
			c-0.248-0.027-0.448-0.055-0.592-0.062v-0.489h4.172V122.768z"/>
		<path fill="#211915" d="M90.843,117.521c-0.124,0.007-0.317,0.035-0.558,0.083c-0.241,0.048-0.434,0.117-0.592,0.213
			c-0.145,0.11-0.255,0.317-0.31,0.641c-0.062,0.324-0.089,0.716-0.089,1.185v4.138c0,0.53-0.11,0.991-0.324,1.377
			c-0.227,0.393-0.509,0.709-0.867,0.964c-0.358,0.234-0.73,0.413-1.122,0.517c-0.393,0.104-0.765,0.158-1.122,0.158
			c-0.571,0-1.081-0.076-1.528-0.221c-0.448-0.158-0.826-0.357-1.129-0.605c-0.296-0.262-0.523-0.551-0.675-0.881
			c-0.151-0.331-0.234-0.675-0.234-1.033v-5.632c0-0.151-0.021-0.289-0.076-0.386c-0.048-0.11-0.151-0.206-0.31-0.289
			c-0.11-0.069-0.254-0.124-0.434-0.158c-0.172-0.034-0.317-0.062-0.427-0.069v-0.475h3.966v0.475
			c-0.124,0.007-0.282,0.02-0.475,0.062c-0.186,0.027-0.324,0.068-0.42,0.096c-0.145,0.056-0.248,0.146-0.303,0.269
			c-0.048,0.124-0.076,0.262-0.076,0.406v5.261c0,0.255,0.027,0.523,0.083,0.799c0.062,0.282,0.172,0.544,0.33,0.784
			c0.179,0.248,0.413,0.448,0.716,0.606c0.296,0.151,0.709,0.233,1.232,0.233c0.496,0,0.909-0.082,1.239-0.233
			c0.337-0.158,0.599-0.358,0.791-0.62c0.179-0.24,0.31-0.495,0.386-0.757c0.076-0.262,0.117-0.523,0.117-0.799v-3.897
			c0-0.502-0.035-0.908-0.11-1.226c-0.069-0.316-0.179-0.516-0.317-0.619c-0.151-0.11-0.372-0.199-0.64-0.262
			c-0.269-0.061-0.475-0.097-0.62-0.103v-0.475h3.897V117.521z"/>
		<path fill="#211915" d="M100.874,126.568h-2.561c-0.564-0.888-1.074-1.659-1.536-2.306c-0.461-0.654-0.957-1.322-1.494-2.011
			h-0.971v3.016c0,0.165,0.021,0.303,0.069,0.42c0.055,0.117,0.158,0.213,0.316,0.269c0.076,0.034,0.228,0.062,0.42,0.082
			c0.206,0.035,0.372,0.056,0.517,0.056v0.475h-4.028v-0.475c0.103-0.014,0.255-0.027,0.461-0.056
			c0.207-0.014,0.351-0.041,0.427-0.082c0.138-0.056,0.234-0.138,0.296-0.262c0.055-0.104,0.09-0.248,0.09-0.427v-6.885
			c0-0.152-0.021-0.29-0.069-0.413c-0.042-0.117-0.152-0.214-0.317-0.275c-0.11-0.042-0.255-0.076-0.434-0.11
			c-0.179-0.027-0.337-0.056-0.455-0.062v-0.475H96c0.406,0,0.785,0.041,1.136,0.124c0.351,0.082,0.675,0.213,0.957,0.399
			c0.275,0.179,0.502,0.413,0.668,0.695c0.165,0.296,0.247,0.64,0.247,1.046c0,0.365-0.062,0.688-0.172,0.971
			c-0.11,0.29-0.275,0.53-0.496,0.73c-0.2,0.192-0.44,0.364-0.723,0.51c-0.282,0.138-0.592,0.261-0.93,0.357
			c0.468,0.62,0.854,1.143,1.17,1.57c0.31,0.427,0.688,0.936,1.143,1.542c0.193,0.275,0.379,0.468,0.53,0.599
			c0.165,0.124,0.316,0.234,0.475,0.31c0.117,0.056,0.262,0.11,0.44,0.138c0.172,0.028,0.317,0.056,0.427,0.056V126.568z
			 M97.349,119.47c0-0.579-0.166-1.033-0.496-1.37c-0.331-0.338-0.799-0.503-1.405-0.503h-1.136v4.076h0.875
			c0.62,0,1.129-0.2,1.542-0.593C97.143,120.688,97.349,120.144,97.349,119.47z"/>
		<path fill="#211915" d="M108.937,118.175c0.42,0.434,0.758,0.964,0.984,1.584c0.241,0.619,0.365,1.308,0.365,2.059
			c0,0.75-0.124,1.438-0.365,2.059c-0.248,0.612-0.578,1.143-1.005,1.576c-0.42,0.434-0.902,0.765-1.453,0.999
			c-0.551,0.227-1.136,0.344-1.755,0.344c-0.668,0-1.274-0.124-1.839-0.372c-0.558-0.247-1.047-0.592-1.446-1.032
			c-0.398-0.44-0.723-0.964-0.949-1.584c-0.228-0.619-0.352-1.287-0.352-1.989c0-0.778,0.131-1.467,0.365-2.072
			c0.248-0.606,0.578-1.13,0.998-1.57c0.427-0.44,0.916-0.778,1.474-1.005c0.558-0.234,1.136-0.358,1.749-0.358
			c0.626,0,1.225,0.124,1.783,0.358C108.049,117.41,108.537,117.748,108.937,118.175z M107.939,124.922
			c0.255-0.406,0.434-0.867,0.544-1.384c0.117-0.517,0.172-1.088,0.172-1.721c0-0.654-0.055-1.261-0.185-1.797
			c-0.131-0.551-0.317-1.013-0.565-1.398c-0.241-0.378-0.552-0.682-0.923-0.888c-0.372-0.221-0.799-0.316-1.273-0.316
			c-0.537,0-0.992,0.116-1.371,0.364c-0.378,0.241-0.682,0.571-0.922,0.984c-0.228,0.393-0.386,0.854-0.496,1.385
			c-0.117,0.529-0.165,1.08-0.165,1.666c0,0.64,0.062,1.226,0.172,1.741c0.117,0.523,0.296,0.985,0.551,1.385
			c0.248,0.392,0.544,0.695,0.916,0.922c0.365,0.228,0.806,0.338,1.315,0.338c0.475,0,0.908-0.11,1.294-0.345
			C107.388,125.639,107.697,125.322,107.939,124.922z"/>
		<path fill="#211915" d="M117.405,122.196c0.199,0.228,0.352,0.469,0.447,0.737c0.09,0.269,0.145,0.578,0.145,0.93
			c0,0.84-0.31,1.535-0.937,2.079c-0.619,0.551-1.391,0.819-2.313,0.819c-0.427,0-0.854-0.062-1.273-0.2
			c-0.434-0.131-0.792-0.289-1.102-0.481l-0.289,0.495h-0.537l-0.097-3.263h0.544c0.117,0.399,0.241,0.771,0.393,1.088
			c0.151,0.33,0.351,0.633,0.6,0.915c0.227,0.269,0.502,0.475,0.812,0.627c0.31,0.158,0.674,0.234,1.08,0.234
			c0.311,0,0.579-0.042,0.812-0.117c0.234-0.083,0.413-0.2,0.559-0.345c0.145-0.145,0.254-0.323,0.316-0.517
			c0.068-0.206,0.11-0.434,0.11-0.695c0-0.378-0.11-0.729-0.324-1.06c-0.213-0.331-0.537-0.579-0.964-0.751
			c-0.289-0.117-0.619-0.248-0.998-0.386c-0.372-0.138-0.702-0.275-0.971-0.399c-0.537-0.24-0.957-0.558-1.253-0.95
			c-0.296-0.385-0.448-0.895-0.448-1.528c0-0.364,0.076-0.702,0.221-1.019c0.151-0.31,0.358-0.593,0.634-0.84
			c0.255-0.228,0.564-0.413,0.915-0.537c0.358-0.138,0.731-0.2,1.108-0.2c0.441,0,0.833,0.062,1.178,0.2
			c0.352,0.138,0.668,0.289,0.95,0.468l0.275-0.454h0.544l0.048,3.153h-0.544c-0.096-0.358-0.206-0.702-0.33-1.033
			c-0.124-0.33-0.282-0.633-0.476-0.901c-0.199-0.262-0.434-0.462-0.709-0.62c-0.282-0.158-0.619-0.226-1.019-0.226
			c-0.427,0-0.792,0.138-1.088,0.398c-0.303,0.275-0.454,0.613-0.454,1.006c0,0.413,0.096,0.75,0.296,1.025
			c0.186,0.269,0.468,0.489,0.833,0.668c0.33,0.151,0.646,0.289,0.964,0.399c0.316,0.117,0.619,0.241,0.915,0.372
			c0.27,0.11,0.53,0.248,0.778,0.393C117.006,121.831,117.22,122.003,117.405,122.196z"/>
		<path fill="#211915" d="M128.435,122.196c0.2,0.228,0.345,0.469,0.441,0.737c0.096,0.269,0.151,0.578,0.151,0.93
			c0,0.84-0.317,1.535-0.936,2.079c-0.62,0.551-1.391,0.819-2.314,0.819c-0.427,0-0.854-0.062-1.28-0.2
			c-0.42-0.131-0.785-0.289-1.095-0.481l-0.289,0.495h-0.544l-0.097-3.263h0.551c0.11,0.399,0.241,0.771,0.393,1.088
			c0.151,0.33,0.351,0.633,0.599,0.915c0.228,0.269,0.503,0.475,0.812,0.627c0.31,0.158,0.675,0.234,1.081,0.234
			c0.31,0,0.578-0.042,0.806-0.117c0.234-0.083,0.42-0.2,0.564-0.345c0.138-0.145,0.248-0.323,0.316-0.517
			c0.076-0.206,0.11-0.434,0.11-0.695c0-0.378-0.11-0.729-0.33-1.06c-0.207-0.331-0.523-0.579-0.957-0.751
			c-0.289-0.117-0.627-0.248-0.999-0.386c-0.371-0.138-0.702-0.275-0.971-0.399c-0.544-0.24-0.957-0.558-1.253-0.95
			c-0.296-0.385-0.447-0.895-0.447-1.528c0-0.364,0.068-0.702,0.221-1.019c0.151-0.31,0.357-0.593,0.633-0.84
			c0.255-0.228,0.564-0.413,0.923-0.537c0.351-0.138,0.716-0.2,1.102-0.2c0.44,0,0.84,0.062,1.178,0.2
			c0.35,0.138,0.667,0.289,0.957,0.468l0.269-0.454h0.543l0.049,3.153h-0.544c-0.097-0.358-0.207-0.702-0.331-1.033
			c-0.123-0.33-0.282-0.633-0.481-0.901c-0.192-0.262-0.427-0.462-0.702-0.62c-0.282-0.158-0.62-0.226-1.02-0.226
			c-0.427,0-0.791,0.138-1.088,0.398c-0.303,0.275-0.454,0.613-0.454,1.006c0,0.413,0.097,0.75,0.289,1.025
			c0.193,0.269,0.476,0.489,0.84,0.668c0.331,0.151,0.647,0.289,0.964,0.399c0.317,0.117,0.62,0.241,0.916,0.372
			c0.269,0.11,0.53,0.248,0.778,0.393C128.036,121.831,128.256,122.003,128.435,122.196z"/>
		<path fill="#211915" d="M132.346,125.797c0,0.248-0.097,0.461-0.275,0.64c-0.179,0.173-0.393,0.262-0.647,0.262
			c-0.248,0-0.468-0.089-0.646-0.262c-0.18-0.179-0.275-0.392-0.275-0.64c0-0.255,0.096-0.469,0.275-0.654
			c0.179-0.179,0.398-0.269,0.646-0.269c0.255,0,0.469,0.09,0.647,0.269C132.249,125.328,132.346,125.542,132.346,125.797z"/>
		<path fill="#211915" d="M142.797,126.568h-3.952v-0.475c0.345-0.027,0.641-0.069,0.868-0.138c0.234-0.069,0.344-0.151,0.344-0.248
			c0-0.041,0-0.09-0.014-0.144c-0.007-0.062-0.021-0.117-0.041-0.158l-0.785-2.135h-3.346c-0.124,0.317-0.221,0.586-0.303,0.819
			c-0.076,0.234-0.152,0.448-0.214,0.647c-0.061,0.192-0.104,0.345-0.117,0.468c-0.027,0.117-0.041,0.221-0.041,0.297
			c0,0.179,0.145,0.316,0.427,0.413c0.275,0.103,0.605,0.158,0.957,0.179v0.475h-3.587v-0.475c0.11-0.014,0.262-0.041,0.434-0.083
			c0.172-0.041,0.316-0.096,0.434-0.165c0.179-0.124,0.316-0.248,0.413-0.386c0.097-0.131,0.193-0.31,0.289-0.544
			c0.476-1.197,1.006-2.54,1.584-4.027c0.578-1.487,1.088-2.816,1.542-3.979h0.537l3.174,8.221c0.069,0.165,0.145,0.316,0.228,0.42
			c0.082,0.104,0.206,0.213,0.357,0.31c0.104,0.069,0.234,0.117,0.399,0.165c0.166,0.042,0.304,0.069,0.413,0.069V126.568z
			 M138.969,122.678l-1.439-3.704l-1.426,3.704H138.969z"/>
		<path fill="#211915" d="M145.275,125.797c0,0.248-0.096,0.461-0.275,0.64c-0.179,0.173-0.398,0.262-0.646,0.262
			c-0.248,0-0.469-0.089-0.648-0.262c-0.179-0.179-0.275-0.392-0.275-0.64c0-0.255,0.097-0.469,0.275-0.654
			c0.179-0.179,0.399-0.269,0.648-0.269c0.248,0,0.468,0.09,0.646,0.269C145.18,125.328,145.275,125.542,145.275,125.797z"/>
	</g>
</g>
</svg>
