<svg id="Capa_1" data-name="Capa 1" xmlns="http://www.w3.org/2000/svg" viewBox="0 0 634.73 634.73"><defs><style>.cls-1{fill:#475993;}</style></defs><title>Mesa de trabajo 1</title><g id="_Grupo_" data-name="&lt;Grupo&gt;"><g id="_Grupo_2" data-name="&lt;Grupo&gt;"><path id="_Trazado_compuesto_" data-name="&lt;Trazado compuesto&gt;" class="cls-1" d="M110,322.27H93.21l9-29.58ZM84.51,355.41l5.73-19.63h22.68l5.37,19.63h21l-20.89-74.55c-1.19-4.37-3.82-6.44-8.36-6.44H80.32v6.92h2.52c3.08,0,4.77,1.21,4.77,3.63,0,1.57-.36,2.91-1.55,6.57l-20.9,63.87Z"/><path id="_Trazado_" data-name="&lt;Trazado&gt;" class="cls-1" d="M165.11,355.41v-74.8c0-3.89-2.24-6.19-5.88-6.19H141.09v6.92h1.2c3.11,0,4.41,1.34,4.41,4.5v69.56Z"/><path id="_Trazado_2" data-name="&lt;Trazado&gt;" class="cls-1" d="M197.63,355.41v-74.8c0-3.89-2.25-6.19-5.89-6.19H173.6v6.92h1.21c3.11,0,4.41,1.34,4.41,4.5v69.56Z"/><path id="_Trazado_compuesto_2" data-name="&lt;Trazado compuesto&gt;" class="cls-1" d="M230.15,281.78c0-5.37-3.83-8.59-10.45-8.59s-10.47,3.22-10.47,8.59,3.94,8.59,10.47,8.59S230.15,287.15,230.15,281.78Zm0,73.63V300.3c0-3.91-2.25-6.25-5.91-6.25h-18v7.36h1.07c3.11,0,4.41,1.46,4.41,4.64v49.35Z"/><path id="_Trazado_compuesto_3" data-name="&lt;Trazado compuesto&gt;" class="cls-1" d="M271.67,326.4v11.69c-3.15,3.25-7,5.19-10.28,5.19s-4.6-1.68-4.6-6.15,1-6.52,4.35-7.84A47.43,47.43,0,0,1,271.67,326.4Zm-25-14.13c6.18-3,12.92-4.72,18.25-4.72,5,0,6.77,1.82,6.77,7.13V316c-7.54,1.21-9.9,1.69-14.15,2.66a40.45,40.45,0,0,0-6.94,2.3c-7.44,3-11,8.93-11,18,0,11.49,4.83,17,14.86,17a25.92,25.92,0,0,0,9.9-1.94,34.7,34.7,0,0,0,7.9-5.23v.85c0,3.77,1.94,5.71,5.67,5.71h17.24v-6.92h-.85c-3.22,0-4.41-1.34-4.41-4.94V314.79c0-15.41-5.25-20.74-20.38-20.74a62.24,62.24,0,0,0-14.31,1.71c-4.64,1.09-7,2-12.63,4.85Z"/><path id="_Trazado_3" data-name="&lt;Trazado&gt;" class="cls-1" d="M323.58,355.41V314.2c3.32-3.53,6.77-5.12,10.72-5.12,4.22,0,5.23,1.59,5.23,7.69v38.64h18.41V313.68c0-9.68-.73-12.75-3.8-16.07-2.55-2.82-6.46-4.29-11.49-4.29-7.44,0-12.69,2.42-19.79,9.32v-2.51c0-4-1.9-6.08-5.67-6.08h-17.5v7.36h1.07c3.11,0,4.41,1.46,4.41,4.64v49.35Z"/><path id="_Trazado_4" data-name="&lt;Trazado&gt;" class="cls-1" d="M414.65,343h-26l24.83-35.35V295.28H374.16c-4.45,0-6.5,2-6.5,6.52v11H375v-1.09c0-2.78,1.43-4.12,4.4-4.12h13.39l-25.16,35.7v12.16h47Z"/><path id="_Trazado_compuesto_4" data-name="&lt;Trazado compuesto&gt;" class="cls-1" d="M514.35,351.61V284.06c0-5.39-1.74-7.19-7-7.19H492.18v7.36h2.5a2.34,2.34,0,0,1,1.59.84c.67.84.9,1.69.9,3.49v63Zm8.59,0h17.18V300.47c0-5.16-1.88-7.21-7.05-7.21H522.94Zm-33.13,0V293.26H479.64c-5,0-7,2-7,7.21v51.14Zm67.49-34.3c0,30.58-21.82,52.82-51.54,52.82s-51.54-22.24-51.54-52.82,21.68-52.71,51.54-52.71S557.3,286.84,557.3,317.31Zm12.27,0c0-37.22-27.25-65-63.75-65S442,280.09,442,317.31s27.36,65.09,63.87,65.09S569.57,354.64,569.57,317.31Z"/></g></g></svg>