<?xml version="1.0" encoding="utf-8"?>
<!-- Generator: Adobe Illustrator 21.0.2, SVG Export Plug-In . SVG Version: 6.00 Build 0)  -->
<svg version="1.1" id="Capa_1" xmlns="http://www.w3.org/2000/svg" xmlns:xlink="http://www.w3.org/1999/xlink" x="0px" y="0px"
	 viewBox="0 0 197 72" enable-background="new 0 0 197 72" xml:space="preserve">
<g id="XMLID_254_">
	<polygon id="XMLID_989_" fill="#962842" points="112.866,6.891 103.082,1.243 112.863,22.498 	"/>
	<polygon id="XMLID_988_" fill="#962842" points="89.426,19.719 86.9,25.167 98.454,31.846 109.864,25.257 107.335,19.719 	"/>
	<polygon id="XMLID_987_" fill="#962842" points="84.053,6.891 84.048,22.853 94.148,1.059 	"/>
	<polygon id="XMLID_986_" fill="#962842" points="90.847,16.523 105.917,16.523 98.387,-0.038 	"/>
	<path id="XMLID_983_" fill="#962842" d="M14.022,53.157l-8.719,0.004l-2.269,4.681l-3.309,0.003L9.804,37.358l9.719,20.488
		l-3.364-0.008L14.022,53.157z M12.771,50.426l-3.02-6.557l-3.164,6.557H12.771z"/>
	<polygon id="XMLID_982_" fill="#962842" points="32.24,40.362 25.143,40.362 25.143,45.266 31.989,45.266 31.989,48.149 
		25.146,48.151 25.143,57.844 22.072,57.844 22.069,37.473 32.24,37.473 	"/>
	<rect id="XMLID_981_" x="35.8" y="37.471" fill="#962842" width="3.08" height="20.373"/>
	<path id="XMLID_978_" fill="#962842" d="M55.729,53.165h-8.707l-2.274,4.678h-3.313L51.51,37.358l9.726,20.488l-3.361-0.003
		L55.729,53.165z M54.483,50.422l-3.026-6.553l-3.164,6.557L54.483,50.422z"/>
	<polygon id="XMLID_977_" fill="#962842" points="63.245,57.847 63.237,37.257 78.091,50.647 78.091,37.473 81.17,37.473 
		81.166,58.094 66.311,44.347 66.311,57.844 	"/>
	<polygon id="XMLID_976_" fill="#962842" points="89.031,54.95 98.803,54.95 98.803,57.844 83.976,57.844 93.98,40.362 
		85.614,40.362 85.611,37.477 99.027,37.473 	"/>
	<path id="XMLID_969_" fill="#962842" d="M114.364,53.165h-8.724l-2.269,4.678h-3.31l10.079-20.485l9.719,20.488h-3.361
		L114.364,53.165z M113.109,50.426l-3.022-6.557l-3.165,6.553L113.109,50.426z"/>
	<path id="XMLID_965_" fill="#962842" d="M121.868,57.847V37.473h4.276c2.042,0,3.658,0.208,4.852,0.612
		c1.275,0.389,2.429,1.071,3.468,2.017c2.1,1.917,3.146,4.439,3.148,7.556c0,3.136-1.093,5.669-3.285,7.608
		c-1.098,0.96-2.247,1.632-3.453,2.013c-1.126,0.379-2.721,0.564-4.783,0.564L121.868,57.847z M124.94,54.95h1.385
		c1.382,0,2.528-0.139,3.445-0.43c0.91-0.305,1.742-0.796,2.478-1.463c1.511-1.384,2.271-3.183,2.271-5.395
		c0-2.228-0.752-4.046-2.247-5.431c-1.341-1.236-3.326-1.868-5.942-1.86l-1.389-0.008L124.94,54.95L124.94,54.95z"/>
	<path id="XMLID_946_" fill="#962842" d="M139.926,47.57c0-2.866,1.054-5.327,3.154-7.388c2.092-2.055,4.605-3.087,7.544-3.087
		c2.902,0,5.388,1.038,7.467,3.113c2.078,2.078,3.123,4.57,3.123,7.472c0,2.933-1.045,5.419-3.136,7.46
		c-2.1,2.045-4.641,3.073-7.617,3.076c-2.627-0.003-4.984-0.912-7.077-2.739C141.082,53.465,139.926,50.831,139.926,47.57
		 M143.03,47.6c0,2.25,0.751,4.103,2.265,5.547c1.507,1.452,3.238,2.181,5.212,2.181c2.138-0.004,3.942-0.745,5.409-2.224
		c1.47-1.488,2.2-3.308,2.2-5.452c0-2.17-0.723-3.991-2.17-5.454c-1.444-1.478-3.231-2.213-5.364-2.213
		c-2.114,0-3.902,0.738-5.363,2.213C143.763,43.654,143.023,45.453,143.03,47.6"/>
	<path id="XMLID_899_" fill="#962842" d="M170.358,49.166l6.304,8.678h-3.76l-5.818-8.337l-0.548,0.003v8.338l-3.076-0.003
		l0.003-20.37l3.597,0.008c2.693-0.008,4.639,0.504,5.828,1.513c1.319,1.128,1.988,2.608,1.988,4.461
		c0,1.435-0.418,2.679-1.246,3.722C172.803,48.203,171.713,48.867,170.358,49.166 M166.537,46.827h0.973
		c2.908,0,4.364-1.108,4.371-3.337c0-2.08-1.422-3.121-4.25-3.121l-1.094-0.007V46.827L166.537,46.827z"/>
	<path id="XMLID_887_" fill="#962842" d="M191.692,53.165h-8.716l-2.272,4.678h-3.317l10.082-20.485l9.719,20.488l-3.359-0.003
		L191.692,53.165z M190.436,50.426l-3.02-6.557l-3.163,6.557H190.436z"/>
	<path id="XMLID_884_" fill="#010101" d="M3.811,65.624c-0.288-0.484-0.658-0.731-1.246-0.731c-0.617,0-1.297,0.421-1.297,1.102
		c0,0.607,0.597,0.926,1.081,1.111l0.556,0.216c1.102,0.433,1.924,1.039,1.924,2.338c0,1.409-1.091,2.417-2.481,2.417
		c-1.256,0-2.234-0.926-2.398-2.172l0.978-0.205c-0.01,0.853,0.669,1.471,1.503,1.471c0.833,0,1.431-0.7,1.431-1.512
		c0-0.834-0.67-1.195-1.338-1.472l-0.536-0.227c-0.885-0.381-1.688-0.886-1.688-1.966c0-1.254,1.112-2.008,2.285-2.008
		c0.865,0,1.574,0.421,1.997,1.175L3.811,65.624z"/>
	<polygon id="XMLID_843_" fill="#010101" points="11.037,64.152 15.205,64.152 15.205,65.037 12.004,65.037 12.004,67.21 
		15.113,67.21 15.113,68.093 12.004,68.093 12.004,71.027 15.205,71.027 15.205,71.913 11.037,71.913 	"/>
	<path id="XMLID_841_" fill="#010101" d="M28.619,68.002v0.308c0,2.13-1.503,3.767-3.675,3.767s-3.921-1.872-3.921-4.025
		c0-2.233,1.79-4.066,4.024-4.066c1.204,0,2.398,0.546,3.16,1.504l-0.679,0.649c-0.556-0.762-1.492-1.266-2.44-1.266
		c-1.739,0-3.098,1.41-3.098,3.149c0,1.626,1.338,3.172,3.016,3.172c1.204,0,2.501-1.04,2.543-2.306h-2.007v-0.886L28.619,68.002
		L28.619,68.002z"/>
	<path id="XMLID_835_" fill="#010101" d="M35.557,64.152v4.58c0,1.266,0.381,2.44,1.874,2.44c1.492,0,1.873-1.174,1.873-2.44v-4.58
		h0.967v4.909c0,1.708-1.061,3.016-2.84,3.016c-1.781,0-2.841-1.308-2.841-3.016v-4.909H35.557z"/>
	<path id="XMLID_717_" fill="#010101" d="M51.584,71.913H50.41l-2.285-3.284h-0.401v3.284h-0.967v-7.761h1.174
		c0.69,0,1.431,0.01,2.048,0.36c0.648,0.381,1.019,1.11,1.019,1.853c0,1.109-0.741,2.038-1.863,2.172L51.584,71.913z M47.724,67.827
		h0.308c0.988,0,2.059-0.185,2.059-1.42c0-1.216-1.153-1.391-2.11-1.391h-0.258V67.827z"/>
	<path id="XMLID_675_" fill="#010101" d="M65.078,68.032c0,2.305-1.822,4.046-4.066,4.046s-4.066-1.739-4.066-4.046
		c0-2.224,1.843-4.046,4.066-4.046C63.236,63.987,65.078,65.809,65.078,68.032 M64.112,68.032c0-1.709-1.276-3.139-3.098-3.139
		c-1.822,0-3.098,1.432-3.098,3.139c0,1.77,1.42,3.138,3.098,3.138C62.691,71.172,64.112,69.803,64.112,68.032"/>
	<path id="XMLID_672_" fill="#010101" d="M74.611,65.624c-0.288-0.484-0.659-0.731-1.246-0.731c-0.617,0-1.297,0.421-1.297,1.102
		c0,0.607,0.597,0.926,1.081,1.111l0.556,0.216c1.102,0.433,1.924,1.039,1.924,2.338c0,1.409-1.091,2.417-2.481,2.417
		c-1.256,0-2.233-0.926-2.398-2.172l0.978-0.205c-0.01,0.853,0.669,1.471,1.503,1.471c0.833,0,1.431-0.7,1.431-1.512
		c0-0.834-0.67-1.195-1.338-1.472l-0.536-0.227c-0.885-0.381-1.688-0.886-1.688-1.966c0-1.254,1.112-2.008,2.285-2.008
		c0.865,0,1.574,0.421,1.997,1.175L74.611,65.624z"/>
	<path id="XMLID_668_" fill="#010101" d="M89.877,64.152h1.606c2.377,0,4.354,1.255,4.354,3.839c0,2.645-1.935,3.921-4.385,3.921
		h-1.574V64.152z M90.845,71.027h0.34c1.977,0,3.685-0.741,3.685-2.994c0-2.265-1.708-2.995-3.685-2.995h-0.34V71.027z"/>
	<polygon id="XMLID_667_" fill="#010101" points="101.953,64.152 106.12,64.152 106.12,65.037 102.919,65.037 102.919,67.21 
		106.028,67.21 106.028,68.093 102.919,68.093 102.919,71.027 106.12,71.027 106.12,71.913 101.953,71.913 	"/>
	<path id="XMLID_666_" fill="#010101" d="M126.233,65.634c-0.555-0.494-1.317-0.762-2.048-0.762c-1.74,0-3.068,1.452-3.068,3.17
		c0,1.698,1.319,3.15,3.048,3.15c0.762,0,1.492-0.288,2.068-0.803v1.142c-0.597,0.35-1.359,0.546-2.038,0.546
		c-2.213,0-4.046-1.76-4.046-4.005c0-2.294,1.842-4.086,4.127-4.086c0.678,0,1.369,0.165,1.956,0.526L126.233,65.634L126.233,65.634
		z"/>
	<path id="XMLID_662_" fill="#010101" d="M133.635,69.967l-0.885,1.945h-1.039l3.705-8.089l3.705,8.089h-1.039l-0.886-1.945H133.635
		z M135.416,65.943l-1.379,3.139h2.759L135.416,65.943z"/>
	<path id="XMLID_661_" fill="#010101" d="M145.751,64.152v4.58c0,1.266,0.381,2.44,1.874,2.44c1.492,0,1.872-1.174,1.872-2.44v-4.58
		h0.967v4.909c0,1.708-1.061,3.016-2.841,3.016c-1.781,0-2.842-1.308-2.842-3.016v-4.909H145.751z"/>
	<path id="XMLID_641_" fill="#010101" d="M162.603,65.634c-0.556-0.494-1.318-0.762-2.049-0.762c-1.74,0-3.067,1.452-3.067,3.17
		c0,1.698,1.317,3.15,3.047,3.15c0.762,0,1.492-0.288,2.069-0.803v1.142c-0.598,0.35-1.36,0.546-2.038,0.546
		c-2.213,0-4.046-1.76-4.046-4.005c0-2.294,1.843-4.086,4.127-4.086c0.678,0,1.368,0.165,1.956,0.526L162.603,65.634L162.603,65.634
		z"/>
	<rect id="XMLID_629_" x="168.872" y="64.151" fill="#010101" width="0.967" height="7.761"/>
	<path id="XMLID_264_" fill="#010101" d="M184.023,68.032c0,2.305-1.822,4.046-4.066,4.046c-2.243,0-4.065-1.739-4.065-4.046
		c0-2.224,1.842-4.046,4.065-4.046C182.182,63.988,184.023,65.809,184.023,68.032 M183.057,68.032c0-1.708-1.277-3.138-3.1-3.138
		c-1.822,0-3.098,1.432-3.098,3.138c0,1.77,1.42,3.138,3.098,3.138C181.636,71.172,183.057,69.803,183.057,68.032 M181.337,62.124
		l-1.688,1.534l-0.454-0.277l1.288-1.709L181.337,62.124z"/>
	<polygon id="XMLID_261_" fill="#010101" points="190.015,63.781 195.84,69.885 195.84,64.152 196.809,64.152 196.809,72.23 
		190.983,66.128 190.983,71.913 190.015,71.913 	"/>
</g>
</svg>
