<?xml version="1.0" encoding="utf-8"?>
<!-- Generator: Adobe Illustrator 21.0.2, SVG Export Plug-In . SVG Version: 6.00 Build 0)  -->
<svg version="1.1" id="Capa_1" xmlns="http://www.w3.org/2000/svg" xmlns:xlink="http://www.w3.org/1999/xlink" x="0px" y="0px"
	 viewBox="0 0 88.74 131.452" enable-background="new 0 0 88.74 131.452" xml:space="preserve">
<g>
	<path fill-rule="evenodd" clip-rule="evenodd" fill="#3980BE" d="M61.552,65.879c2.231,0.786,4.595,1.181,7.219,1.05
		c3.939-0.132,7.614-1.181,10.108-2.887h0.132c-1.838,7.876-8.926,13.783-17.327,13.783H27.159c-9.715,0-17.721-7.876-17.721-17.59
		c0.13-9.845,8.006-17.723,17.721-17.723h0.919c-1.707,3.939-8.139,13.521-7.876,17.723c0.263,3.15,2.625,5.645,5.776,5.645H61.552
		L61.552,65.879L61.552,65.879z"/>
	<path fill-rule="evenodd" clip-rule="evenodd" fill="#3980BE" d="M65.358,53.933c4.726,0.132,7.483-2.887,7.483-5.513
		c0-1.313-0.526-2.494-1.313-3.281l-0.263-0.263c-3.019-2.364-5.382-2.364-9.583-2.364H44.486l-6.039,11.553L65.358,53.933
		L65.358,53.933z"/>
	<path fill-rule="evenodd" clip-rule="evenodd" fill="#3980BE" d="M14.818,45.27c-1.705,1.573-3.149,3.542-4.331,5.906
		c-1.838,3.544-2.494,7.22-2.233,10.371l0,0c-6.169-5.251-7.219-15.359-3.282-22.71L20.464,9.3
		c4.594-8.533,15.227-11.814,23.891-7.22c8.664,4.595,11.946,15.359,7.221,23.893l-0.394,0.788
		c-2.626-3.282-8.008-13.522-11.814-15.229c-3.02-1.313-6.302-0.395-7.876,2.363L14.818,45.27L14.818,45.27L14.818,45.27z"/>
	<path fill-rule="evenodd" clip-rule="evenodd" fill="#3980BE" d="M23.351,54.852c-2.232,3.938-1.05,7.877,1.313,9.058
		c1.181,0.655,2.494,0.787,3.545,0.525l0.393-0.262c3.545-1.444,4.857-4.07,6.826-7.744l7.876-14.705L35.954,30.83L23.351,54.852
		L23.351,54.852z"/>
	<path fill-rule="evenodd" clip-rule="evenodd" fill="#3980BE" d="M55.25,14.025c-0.525-2.231-0.919-3.412-2.232-5.645
		c-2.1-3.281-4.856-5.775-7.745-7.219l0,0c7.745-2.493,16.41,0.526,20.742,7.746l17.59,29.668c4.989,8.402,2.232,19.297-6.17,24.285
		c-8.401,4.988-19.296,2.232-24.285-6.169l-0.524-1.315c4.332-0.392,16.277,0.92,19.427-1.443c2.626-1.837,3.545-5.383,1.839-8.139
		L55.776,15.076L55.25,14.025L55.25,14.025z"/>
	<path fill-rule="evenodd" clip-rule="evenodd" fill="#3980BE" d="M43.567,17.965c-2.363-4.07-6.432-5.646-8.795-4.201
		c-1.05,0.656-1.837,1.575-2.101,2.756l-0.13,0.394c-0.525,3.807,0.918,6.565,3.019,10.108l9.452,14.047h13.39L43.567,17.965
		L43.567,17.965z"/>
	<path fill-rule="evenodd" clip-rule="evenodd" fill="#30332F" d="M39.119,131.412c-3.413,0.262-6.695-0.789-9.452-2.626
		c-2.888,1.707-6.826,2.626-10.371,2.626C8.795,131.412,0,123.272,0,112.64c0-5.12,1.707-9.715,5.383-13.258
		c3.544-3.677,8.532-5.645,13.651-5.645c10.502,0,19.429,8.138,19.429,18.903c0,4.726-1.313,8.401-4.332,11.814
		c1.049,0.656,2.625,1.05,3.938,1.05h1.05V131.412L39.119,131.412z M12.34,119.071c-1.181,0-2.363,0.132-3.413,0.526
		c2.757,3.676,6.432,5.383,11.027,5.383c1.575,0,2.625-0.526,4.07-1.183C20.609,121.304,16.54,119.071,12.34,119.071L12.34,119.071z
		 M6.826,114.215c1.575-0.525,3.413-0.656,5.12-0.656c3.938,0,6.957,0.919,10.501,2.757c2.231,1.182,4.463,2.494,6.301,4.332
		c2.101-2.1,3.019-4.988,3.019-7.877c0-6.826-5.512-12.602-12.471-12.602c-3.412,0-6.563,1.444-9.057,3.939
		c-1.97,1.969-3.545,5.118-3.545,8.138L6.826,114.215L6.826,114.215z"/>
	<path fill-rule="evenodd" clip-rule="evenodd" fill="#30332F" d="M41.876,94.392h6.695c3.282,0,6.564-0.13,9.583,1.313
		c3.019,1.575,5.12,4.728,5.12,8.139c0,2.888-1.313,5.645-3.939,6.958c3.939,1.313,6.171,4.594,6.171,8.795
		c0,3.545-1.707,6.433-4.464,8.532c-2.888,2.233-6.564,2.364-9.976,2.494h-9.189V94.392L41.876,94.392z M51.459,124.06
		c1.969,0,3.806-0.13,5.513-1.312c1.182-0.788,1.838-1.97,1.838-3.545c0-1.706-0.918-2.757-2.493-3.676
		c-1.445-0.788-3.151-0.656-4.726-0.656h-2.888v9.189H51.459L51.459,124.06z M49.883,108.308c1.445,0,3.282,0,4.595-0.526
		c1.313-0.657,2.1-1.969,2.1-3.413s-0.918-2.626-2.232-3.152c-1.312-0.526-3.019-0.393-4.464-0.393h-1.181v7.484H49.883
		L49.883,108.308z"/>
	<polygon fill-rule="evenodd" clip-rule="evenodd" fill="#30332F" points="69.313,94.392 88.74,94.392 88.74,100.825 
		76.007,100.825 76.007,109.226 88.215,109.226 88.215,115.79 76.007,115.79 76.007,124.06 88.74,124.06 88.74,130.623 
		69.313,130.623 69.313,94.392 	"/>
</g>
</svg>
