<?xml version="1.0" encoding="utf-8"?>
<!-- Generator: Adobe Illustrator 21.0.2, SVG Export Plug-In . SVG Version: 6.00 Build 0)  -->
<svg version="1.1" id="Capa_1" xmlns="http://www.w3.org/2000/svg" xmlns:xlink="http://www.w3.org/1999/xlink" x="0px" y="0px"
	 viewBox="0 0 302 78" enable-background="new 0 0 302 78" xml:space="preserve">
<g id="XMLID_254_">
	<path id="XMLID_841_" fill="#475993" d="M27.232,41.822H17.164l5.356-17.688L27.232,41.822z M11.963,61.635l3.428-11.74h13.56
		l3.21,11.74h12.564L32.233,17.059c-0.714-2.613-2.284-3.851-5.001-3.851H9.46v4.139h1.505c1.842,0,2.852,0.722,2.852,2.168
		c0,0.939-0.216,1.739-0.929,3.931L0.393,61.635H11.963z"/>
	<path id="XMLID_835_" fill="#475993" d="M60.158,61.635V16.909c0-2.326-1.34-3.702-3.517-3.702H45.793v4.139h0.72
		c1.859,0,2.639,0.802,2.639,2.694v41.595H60.158z"/>
	<path id="XMLID_723_" fill="#475993" d="M79.603,61.635V16.909c0-2.326-1.343-3.702-3.52-3.702H65.236v4.139h0.723
		c1.859,0,2.639,0.802,2.639,2.694v41.595H79.603z"/>
	<path id="XMLID_688_" fill="#475993" d="M99.049,17.609c0-3.21-2.293-5.137-6.249-5.137c-3.899,0-6.258,1.927-6.258,5.137
		s2.359,5.137,6.258,5.137C96.756,22.747,99.049,20.819,99.049,17.609z M99.049,61.635V28.686c0-2.339-1.343-3.739-3.532-3.739
		H84.765v4.402h0.639c1.857,0,2.636,0.872,2.636,2.776v29.51H99.049z"/>
	<path id="XMLID_663_" fill="#475993" d="M123.872,44.288v6.993c-1.881,1.946-4.195,3.105-6.145,3.105
		c-2.03,0-2.752-1.006-2.752-3.679c0-2.669,0.573-3.9,2.604-4.688C119.101,45.366,121.05,44.789,123.872,44.288z M108.91,35.837
		c3.693-1.811,7.727-2.82,10.913-2.82c2.98,0,4.049,1.09,4.049,4.265v0.793c-4.506,0.721-5.918,1.009-8.462,1.593
		c-1.478,0.354-2.821,0.791-4.15,1.374c-4.449,1.801-6.556,5.342-6.556,10.765c0,6.869,2.887,10.193,8.883,10.193
		c2.179,0,4.153-0.436,5.917-1.158c1.546-0.735,2.466-1.318,4.723-3.13v0.508c0,2.257,1.159,3.415,3.392,3.415h10.31v-4.141h-0.508
		c-1.923,0-2.636-0.801-2.636-2.956V37.35c0-9.217-3.141-12.402-12.185-12.402c-2.923,0-5.778,0.367-8.554,1.021
		c-2.774,0.654-4.207,1.225-7.554,2.902L108.91,35.837z"/>
	<path id="XMLID_662_" fill="#475993" d="M154.914,61.635v-24.64c1.983-2.109,4.046-3.06,6.407-3.06
		c2.524,0,3.128,0.951,3.128,4.598v23.102h11.009V36.687c0-5.791-0.437-7.625-2.273-9.61c-1.522-1.684-3.86-2.568-6.867-2.568
		c-4.449,0-7.587,1.447-11.833,5.573v-1.501c0-2.397-1.133-3.634-3.391-3.634h-10.465v4.402h0.639c1.857,0,2.636,0.872,2.636,2.776
		v29.51H154.914z"/>
	<path id="XMLID_661_" fill="#475993" d="M209.366,54.225h-15.552l14.845-21.136v-7.408h-23.504c-2.66,0-3.886,1.225-3.886,3.898
		v6.557h4.402v-0.654c0-1.663,0.857-2.464,2.634-2.464h8.005l-15.041,21.344v7.273h28.097V54.225z"/>
	<path id="XMLID_261_" fill="#475993" d="M268.981,59.366V18.973c0-3.222-1.042-4.298-4.161-4.298h-9.092v4.403h0.538h0.955
		c0.341,0,0.674,0.216,0.949,0.505c0.401,0.505,0.538,1.009,0.538,2.088v37.695H268.981z M274.117,59.366h10.273V28.786
		c0-3.084-1.122-4.309-4.218-4.309h-6.055V59.366z M254.307,59.366V24.477h-6.078c-3.001,0-4.195,1.225-4.195,4.309v30.579H254.307z
		 M294.661,38.854c0,18.284-13.048,31.583-30.815,31.583c-17.852,0-30.818-13.299-30.818-31.583
		c0-18.219,12.966-31.516,30.818-31.516C281.613,7.338,294.661,20.635,294.661,38.854z M302,38.854C302,16.6,285.708,0,263.879,0
		s-38.188,16.6-38.188,38.854c0,22.321,16.359,38.922,38.188,38.922S302,61.175,302,38.854z"/>
</g>
</svg>
