<svg id="Capa_1" data-name="Capa 1" xmlns="http://www.w3.org/2000/svg" viewBox="0 0 634.73 634.73"><defs><style>.cls-1{fill:#1a329d;}.cls-2{fill:#5da8c1;}.cls-3{fill:#5da9c2;}.cls-4{fill:#5da8c2;}.cls-5{fill:#5ea7c0;}.cls-6{fill:#5da6be;}.cls-7{fill:#5da4bc;}.cls-8{fill:#5d9fb3;}.cls-9{fill:#5da1b6;}.cls-10{fill:#5e9daf;}.cls-11{fill:#629bab;}.cls-12{fill:#1a319c;}</style></defs><title>Mesa de trabajo 1</title><g id="hNnY9q"><path class="cls-1" d="M110.77,352.09c7.81-3.65,10.47-8.4,8.34-15-1.55-4.84-5.44-7-9.94-8.24-5.93-1.64-11.9-3.12-17.85-4.71a55.07,55.07,0,0,1-13.8-5.4c-9.55-5.58-13.69-14-12.78-24.91.86-10.33,6.61-17.11,15.83-21.2a42.05,42.05,0,0,1,16.67-3.43c11.43-.14,22.86,0,34.28-.17,3,0,3.63.83,3.14,3.6-1,5.62-3.6,9.78-9.28,11.56-9.95,1.15-19.94.55-29.91.69-.24,0-.4.29-.48.62-1.3.32-2.62.59-3.9,1-3.88,1.2-6.65,3.51-7.26,7.75-.67,4.67.31,8.67,4.68,11.31a33.46,33.46,0,0,0,8.43,3.13c7.37,2.09,14.84,3.88,22.14,6.2,14.37,4.56,20.13,12.81,19.67,27.5-.39,12.38-8.31,21.6-21.49,25-14,1.82-28.15,1-42.24,1.12-6.52.07-6.55,0-6.54-6.45,0-10.08-.65-8.27,8.37-8.43,9.91-.18,19.83.41,29.73-.48C108,353,109.59,353.32,110.77,352.09Z"/><path class="cls-1" d="M230.12,348.58c-2,9.29-8.42,14.72-16.69,18a51.25,51.25,0,0,1-39.53.11c-7.87-3.18-13.69-8.56-15.68-17.26-.49-24.13-.12-48.27-.22-72.41,0-6.67,0-6.67,6.3-6.92,5.61,1.41,8.72,5.08,9.73,10.68.34,11.84.22,23.68.24,35.52,0,7.36,0,14.71,0,22.07,0,1.58-.53,3.34.93,4.66,3.53,8.29,10.52,10.45,18.66,10.45S209.3,351.3,213,343c1.48-1.8,1-4,1-6q.06-30,0-60c0-7.66,0-7.66,7.67-6.07a9,9,0,0,0,1.34.14c4.59,2.06,6.51,5.9,7.09,10.64.05,6.12.21,12.24.17,18.36C230.23,316.24,230.52,332.41,230.12,348.58Z"/><path class="cls-1" d="M255.78,295.26c3.06-15.58,15.1-25.46,32.23-26.09,8.12-.3,16.26,0,24.38-.15,2.48,0,3,.81,2.87,3.13-.56,7.4-4.92,12.24-12.46,13.12-3.57.42-7.21.24-10.82.38-13,.49-20,7.53-20.1,20.48-.12,19.42-.16,38.83.05,58.25,0,3.9-.77,5.56-4.88,4.92s-8.28.86-12.31-.74c3.83-1.05,7.76-.57,11.61-.41,3.4.14,4.34-.88,4.3-4.29-.17-17.86-.07-35.73-.11-53.59,0,17.72-.11,35.44.09,53.16,0,3.85-1.18,4.75-4.84,4.69-10.59-.19-10.59,0-10.59-10.62q0-17.85,0-35.69C255.22,312.95,255,304.09,255.78,295.26Z"/><path class="cls-2" d="M570.11,308.25c-8.37-.49-16.54-.91-24.7-1.45-11.39-.76-22.78-1.63-34.17-2.41-13-.9-26.1-1.64-39.13-2.68-7.19-.57-11.6-5.16-14.51-11.37-1.22-2.59-.22-3,2.41-2.56,14.31,2.6,28.66,5,43,7.54q32.35,5.74,64.67,11.59C568.47,307,569.54,306.61,570.11,308.25Z"/><path class="cls-3" d="M527,291.55c-21.16-5.54-42.36-11-63.47-16.69-6.88-1.87-12-6.08-13.81-13.45-.32-1.3-1.22-2.78-.18-3.84s2.53.12,3.69.56q28.59,10.91,57.15,21.94c7.4,2.86,14.73,5.88,22.1,8.83C531.79,292.23,529,291,527,291.55Z"/><path class="cls-4" d="M513.41,272.46c-17.06-7.85-34.19-15.55-50.88-24.17-6.5-3.36-9.49-8.9-9.85-16.06-.13-2.45.43-3.5,3-1.94,21.72,13.45,43.78,26.34,65.06,40.49,0,1,1.5,1.76.62,2.83s-2.14.58-3.3.27C516.46,273.45,515.16,272.21,513.41,272.46Z"/><path class="cls-5" d="M566.27,313.84c-3.48,2-7.18,1.61-10.59,2.12-18.69,2.81-37.43,5.3-56.13,8.05-8.65,1.27-14.6-.84-18.06-6.79-1.11-1.92-1.75-3.23,1.5-3.25q41.07-.23,82.13-.59C565.37,313.39,565.62,313.58,566.27,313.84Z"/><path class="cls-6" d="M428.32,383.94c13.1-1,25.53-1.64,37.76-3.9,12.07-2.22,24.18-4.29,35.87-8.27.08.48.22.92.15,1-18.84,9.77-38.47,16.92-60,17.51C436.44,390.39,432.36,388.42,428.32,383.94Z"/><path class="cls-6" d="M561.84,321.38c-8,3.46-15.84,6.84-23.66,10.15-8.84,3.75-17.7,7.43-26.55,11.14-2.91,1.22-5.71,1.94-8.21-.89-3.76-4.25-3.45-5.36,2-6.79l53.48-14C559.74,320.74,560.55,320.19,561.84,321.38Z"/><path class="cls-7" d="M504.35,377.68c-11.6,17.11-47.4,29.67-58.79,20.72C466.08,394.29,485.78,389.13,504.35,377.68Z"/><path class="cls-7" d="M555.9,331q-12.52,10.52-25.05,21c-4.14,3.46-8.28,6.94-12.54,10.25-1.69,1.32-3.49,4.12-5.93,1.06-2-2.5-1-6.73,1.77-8.4,7.85-4.7,15.74-9.31,23.58-14,5.88-3.53,11.69-7.16,17.53-10.75Z"/><path class="cls-1" d="M110.77,352.09c-1.21,2.18-3.32,1.93-5.31,1.93-10.67,0-21.34.11-32-.05-3.15,0-4.12.94-4.13,4.1,0,9.52-.15,9.52,9.47,9.52s19.24-.17,28.85.08c3.24.08,6.37-2.33,9.63-.31a39.88,39.88,0,0,1-12.47,1.81c-11.15.12-22.3,0-33.45.11-2.73,0-3.8-.63-3.58-3.51.3-4-1.25-9.21.73-11.83,2.13-2.81,7.58-.84,11.57-1C90.3,352.61,100.55,353.07,110.77,352.09Z"/><path class="cls-1" d="M164.3,270.15c-5.35.07-5.54,3.37-5.5,7.69.21,22.28.11,44.56.08,66.83,0,1.61.51,3.33-.66,4.8a28.19,28.19,0,0,1-1-8.47q0-32.73,0-65.45C157.22,268.31,157.22,268.31,164.3,270.15Z"/><path class="cls-8" d="M510.47,388.09c.6-6.15,2.06-11.42,7.21-15.35,7.37-5.63,14.2-12,21.26-18l.89.85Z"/><path class="cls-1" d="M223.07,271.07c-.39.2-.81.61-1.17.57-6.94-.73-6.94-.74-6.94,6.07q0,29.52,0,59a13.38,13.38,0,0,1-1.21,6.47c0,.07-.28.07-.4,0A1.33,1.33,0,0,1,213,343q.13-33.61.24-67.22c0-7.58.06-7.68,7.33-5.73A18.55,18.55,0,0,1,223.07,271.07Z"/><path class="cls-1" d="M255.78,295.26c2,2.62-.1,5.19-.11,7.79,0,20.47,0,40.93,0,61.4,0,2.34.87,3.05,3.17,3.19,11.31.68,11.31.74,11.31-10.39,0-17,0-34,0-51.29,1.33,1.05.85,2.11.85,3,0,18.36-.07,36.72.11,55.08,0,3.66-1.1,4.73-4.61,4.5-3.89-.26-7.82,0-11.73,0-.11-6.29-.32-12.59-.32-18.88,0-15.78.11-31.56.2-47.34A20,20,0,0,1,255.78,295.26Z"/><path class="cls-9" d="M502.17,388.46c-4.1,13-16.91,20.22-25.83,15C485.59,400,494.2,396,502.17,388.46Z"/><path class="cls-1" d="M230.12,348.58c-1-1.15-.69-2.56-.69-3.88q0-29.56,0-59.13c0-1.31-.36-2.74.73-3.86,1,4.28.79,8.64.79,13q0,23.16,0,46.33A27.76,27.76,0,0,1,230.12,348.58Z"/><path class="cls-10" d="M513.41,272.46c1.54-1.49,2.86-.17,4.07.48,2.62,1.4,3.25.2,3.22-2.16L552,290l-.48.92Z"/><path class="cls-1" d="M175.22,343.07c-1.69-1.57-1.82-1.57-1.82-2.67q0-29.19.05-58.39c0-.4.37-.79.57-1.19,1.65,10.78.49,21.64.84,32.45C175.19,323.2,175.12,333.14,175.22,343.07Z"/><path class="cls-11" d="M527,291.55c1.7-1.14,4.11-.83,5.48-2.65L563,300.28l-.36,1.11Z"/><path class="cls-1" d="M95,285.46c-2.32-1.1-.89-1.06.33-1.06,7.14,0,14.29-.22,21.42.09,2.93.13,5.71-2.22,8.64-.34C115.36,286.91,105.14,285.11,95,285.46Z"/><path class="cls-12" d="M404,272.66c0-3.11-1-3.69-3.84-3.66-13.25.13-26.52-.21-39.76.14-17.55.46-31.13,8.33-39,24.12-9.06,18.28-9.15,37.28-.7,55.83,12.44,27.33,50.64,28.65,65.14,7.58,2.67,8.92,5.65,11.36,14.2,12.43,2.8.35,3.93-.11,3.92-3.36Q403.85,319.21,404,272.66Zm-19,16.39c-.18,6.93-.06,13.86-.06,20.79h0c0,6.63.15,13.26,0,19.89-.49,18-15.25,29-32.56,24.24-8.3-2.27-13.37-8-15.76-16a54.67,54.67,0,0,1,1.22-36.31c4.14-10.66,12.23-16.07,23.67-16.27,6.63-.12,13.27.09,19.88-.19C384.53,285.09,385.14,286.23,385.07,289.05Z"/></g></svg>