<?xml version="1.0" encoding="utf-8"?>
<!-- Generator: Adobe Illustrator 21.0.2, SVG Export Plug-In . SVG Version: 6.00 Build 0)  -->
<svg version="1.1" id="Capa_1" xmlns="http://www.w3.org/2000/svg" xmlns:xlink="http://www.w3.org/1999/xlink" x="0px" y="0px"
	 viewBox="0 0 139 78" enable-background="new 0 0 139 78" xml:space="preserve">
<g id="XMLID_254_">
	<path id="XMLID_674_" fill="#5287C9" d="M3.661,72.002c-0.049,1.557,0.094,3.105,0.211,4.654c0.046,0.615-0.121,0.909-0.836,0.819
		c-0.694-0.088-1.418-0.091-2.111,0.004c-0.779,0.107-0.911-0.238-0.887-0.886c0.079-2.186,0.159-4.373,0.192-6.56
		c0.052-3.425,0.092-6.85-0.167-10.272c-0.093-1.227,0.011-1.256,1.231-1.122c0.452,0.049,0.917,0.06,1.37,0.016
		c1.201-0.117,1.292-0.093,1.176,1.151c-0.167,1.798-0.106,3.6-0.198,5.398c-0.048,0.942,0.31,1.194,1.209,1.238
		c2.33,0.113,4.653,0.075,6.981-0.022c0.741-0.031,0.994-0.311,0.97-1.023c-0.063-1.94,0.082-3.887-0.151-5.822
		c-0.094-0.778,0.13-1.165,0.981-0.968c0.664,0.153,1.334,0.134,1.999-0.006c0.77-0.163,1.01,0.168,0.954,0.913
		c-0.428,5.785-0.291,11.575-0.142,17.365c0.014,0.55-0.139,0.661-0.656,0.614c-0.736-0.067-1.492-0.128-2.218-0.032
		c-0.857,0.114-1.07-0.208-0.983-0.978c0.26-2.287,0.161-4.586,0.226-6.88c0.028-0.977-0.247-1.341-1.289-1.396
		c-2.262-0.118-4.513-0.096-6.772,0.021c-0.788,0.041-1.163,0.275-1.104,1.127C3.708,70.233,3.661,71.119,3.661,72.002z"/>
	<path id="XMLID_672_" fill="#5287C9" d="M78.607,64.583c0,3.035-0.015,5.855,0.008,8.673c0.009,1.094,0.063,2.191,0.172,3.279
		c0.13,1.308-0.803,0.795-1.399,0.879c-0.799,0.111-0.948-0.294-0.898-1c0.245-3.453,0.405-6.913,0.308-10.373
		c-0.059-2.083-0.113-4.165-0.099-6.248c0.003-0.421-0.212-0.994,0.39-1.19c0.585-0.19,1.071,0.02,1.506,0.492
		c1.363,1.481,2.74,2.952,4.155,4.383c2.384,2.412,4.798,4.794,7.212,7.177c0.26,0.257,0.525,0.725,0.935,0.543
		c0.351-0.156,0.175-0.638,0.175-0.973c-0.001-3.497,0.072-6.994-0.216-10.486c-0.04-0.481-0.307-1.249,0.742-1.073
		c0.712,0.119,1.683-0.443,1.548,1.123c-0.453,5.251-0.184,10.521-0.214,15.783c-0.002,0.282,0.046,0.569,0.013,0.847
		c-0.049,0.419,0.204,0.989-0.424,1.169c-0.564,0.161-0.982-0.088-1.389-0.521c-3.775-4.017-7.704-7.883-11.651-11.731
		C79.256,65.118,79.007,64.927,78.607,64.583z"/>
	<path id="XMLID_671_" fill="#5287C9" d="M49.903,77.502c-1.34,0-2.682-0.047-4.02,0.014c-1.203,0.055-1.323,0.032-1.254-1.163
		c0.262-4.55,0.192-9.102,0.154-13.654c-0.009-1.092-0.096-2.184-0.161-3.276c-0.038-0.643,0.199-0.909,0.875-0.785
		c0.733,0.135,1.479,0.122,2.212-0.025c0.687-0.138,0.857,0.157,0.834,0.804c-0.176,5.039-0.466,10.076-0.199,15.124
		c0.05,0.946,0.375,1.238,1.268,1.18c1.548-0.1,3.104-0.094,4.65-0.218c1.053-0.084,0.854,0.586,0.927,1.211
		c0.095,0.816-0.363,0.888-0.948,0.82C52.797,77.367,51.349,77.434,49.903,77.502z"/>
	<path id="XMLID_667_" fill="#5287C9" d="M139,69.136c-0.275,0.278-0.227,0.659-0.298,0.995c-0.886,4.182-3.444,6.714-7.606,7.552
		c-3.393,0.683-6.667,0.254-9.46-1.895c-3.288-2.53-3.893-6.068-3.165-9.92c0.668-3.535,2.775-5.881,6.212-6.966
		c2.778-0.877,5.574-0.846,8.319,0.142c3.185,1.147,5.119,3.399,5.743,6.747c0.064,0.342,0.017,0.713,0.255,1.012
		C139,67.58,139,68.358,139,69.136z M134.713,64.922c-0.641-2.874-2.369-4.619-5.019-5.063c-2.517-0.421-4.969,0.582-6.168,2.765
		c-2.016,3.67-2.072,7.448,0.001,11.106c1.692,2.984,6.049,3.673,8.695,1.482c2.235-1.852,2.757-4.408,2.802-7.134
		C135.02,67.014,134.945,65.961,134.713,64.922z"/>
	<path id="XMLID_662_" fill="#5287C9" d="M69.006,47.87c-10.319,0-20.638,0-30.957-0.001c-1.507,0-1.511-0.006-1.511-1.538
		c-0.001-14.878-0.001-29.756,0-44.634c0-1.501,0.003-1.504,1.511-1.504c20.709-0.001,41.418-0.001,62.127,0
		c1.426,0,1.431,0.004,1.431,1.492c0.001,14.878,0.001,29.756,0,44.634c0,1.514-0.035,1.551-1.537,1.551
		C89.715,47.872,79.361,47.871,69.006,47.87z M41.898,23.846c0,4.982-0.002,9.964,0.003,14.946c0,0.494,0.002,0.992,0.063,1.48
		c0.188,1.515,0.844,2.106,2.376,2.107c9.222,0.007,18.444,0.007,27.666,0c1.706-0.001,2.487-0.76,2.498-2.444
		c0.02-3.215-0.019-6.431,0.022-9.646c0.011-0.877-0.359-1.074-1.138-1.066c-2.932,0.027-5.866,0.038-8.798-0.007
		c-0.818-0.012-1.05,0.316-1.043,1.052c0.016,1.766-0.016,3.533,0.002,5.299c0.022,2.197-0.68,3.093-2.867,3.444
		c-2.175,0.348-4.365,0.325-6.546,0.043c-2.836-0.367-3.575-1.231-3.575-4.074c0-8.975,0.001-17.949-0.001-26.924
		c0-2.148-0.441-2.579-2.624-2.583c-1.06-0.002-2.12-0.001-3.18,0c-2.262,0.003-2.816,0.545-2.818,2.792
		c-0.004,5.194-0.001,10.387-0.001,15.581C41.924,23.846,41.911,23.846,41.898,23.846z M96.144,7.947
		c-0.003-1.844-0.65-2.472-2.503-2.473c-9.116-0.002-18.232-0.002-27.348,0.002c-2.023,0.001-2.688,0.583-2.728,2.629
		c-0.062,3.179-0.011,6.36-0.03,9.54c-0.004,0.735,0.316,0.991,1.027,0.986c2.968-0.019,5.936-0.024,8.904,0.004
		c0.765,0.007,1.075-0.242,1.056-1.037c-0.041-1.801-0.016-3.604-0.01-5.406c0.008-2.088,0.687-2.984,2.748-3.366
		c2.307-0.428,4.646-0.397,6.959-0.047c2.658,0.402,3.256,1.178,3.256,3.869c-0.001,9.081-0.005,18.161,0.003,27.242
		c0.002,1.851,0.646,2.477,2.491,2.492c1.06,0.008,2.12,0.002,3.18,0.002c2.493,0,2.997-0.493,2.998-2.955
		c0.003-5.159,0.001-10.317,0.001-15.476C96.147,18.618,96.153,13.282,96.144,7.947z"/>
	<path id="XMLID_629_" fill="#5287C9" d="M97.613,68.055c0-2.757,0.034-5.514-0.018-8.27c-0.018-0.968,0.243-1.253,1.258-1.216
		c2.183,0.08,4.373-0.037,6.56-0.042c2.221-0.005,4.391,0.296,6.291,1.547c2.781,1.831,3.75,4.586,3.721,7.765
		c-0.045,4.922-2.945,8.584-7.48,9.488c-1.71,0.341-3.44,0.279-5.171,0.155c-1.375-0.098-2.76-0.172-4.128,0.014
		c-0.833,0.113-1.057-0.179-1.049-0.96c0.027-2.827,0.011-5.655,0.011-8.482C97.609,68.054,97.611,68.054,97.613,68.055z
		 M101.244,68.115c0,2.014-0.013,4.028,0.004,6.042c0.014,1.753,0.029,1.752,1.728,1.786c0.565,0.012,1.13,0.025,1.695,0.046
		c1.754,0.066,3.268-0.51,4.511-1.741c2.018-1.997,2.478-4.539,2.358-7.221c-0.081-1.793-0.565-3.489-1.852-4.847
		c-2.044-2.159-4.647-2.268-7.362-2.049c-0.817,0.066-1.092,0.414-1.083,1.2c0.029,2.261,0.01,4.523,0.01,6.784
		C101.251,68.115,101.247,68.115,101.244,68.115z"/>
	<path id="XMLID_624_" fill="#5287C9" d="M40.809,67.848c0.002,6.518-4.817,10.736-11.371,10.051
		c-3.258-0.34-6.076-1.434-7.859-4.309c-4.127-6.656,0.281-14.91,8.113-15.265c1.128-0.051,2.254-0.016,3.375,0.196
		C38.047,59.461,40.808,62.774,40.809,67.848z M36.205,63.508c-0.948-2.333-2.704-3.556-5.196-3.696
		c-2.57-0.144-4.55,0.879-5.74,3.191c-1.693,3.289-1.691,6.677-0.2,10.01c1.03,2.301,2.901,3.415,5.489,3.408
		c2.62-0.007,4.323-1.313,5.428-3.533c0.75-1.506,1.07-3.132,0.99-4.824C37.026,66.494,36.799,64.969,36.205,63.508z"/>
	<path id="XMLID_261_" fill="#5287C9" d="M56.322,77.322c0.551-1.245,1.092-2.462,1.63-3.681c2.135-4.846,4.457-9.612,6.276-14.592
		c0.234-0.641,0.647-0.711,1.224-0.725c0.596-0.014,0.983,0.1,1.208,0.731c2.113,5.927,4.738,11.64,7.307,17.375
		c0.366,0.816,0.356,1.187-0.666,1.004c-0.24-0.043-0.493-0.019-0.74-0.021c-2.425-0.019-2.426-0.019-3.32-2.33
		c-0.038-0.099-0.068-0.201-0.109-0.299c-1.708-4.106-0.441-3.266-4.895-3.294c-3.909-0.025-2.798-0.649-4.346,3.022
		c-0.137,0.325-0.243,0.663-0.359,0.996C58.785,77.658,58.786,77.659,56.322,77.322z M64.352,63.461
		c-0.779,1.883-1.558,3.766-2.339,5.648c-0.186,0.448-0.035,0.639,0.445,0.683c1.268,0.114,2.534,0.054,3.802,0.01
		c0.507-0.017,0.722-0.176,0.514-0.713c-0.725-1.866-1.434-3.738-2.15-5.608C64.533,63.475,64.443,63.468,64.352,63.461z"/>
</g>
</svg>
