<svg id="Capa_1" data-name="Capa 1" xmlns="http://www.w3.org/2000/svg" viewBox="0 0 634.73 634.73"><defs><style>.cls-1{fill:#5287c9;}</style></defs><title>Mesa de trabajo 1 copia 2</title><g id="_Grupo_" data-name="&lt;Grupo&gt;"><g id="_Grupo_2" data-name="&lt;Grupo&gt;"><path id="_Trazado_" data-name="&lt;Trazado&gt;" class="cls-1" d="M79.56,436.22A157.1,157.1,0,0,0,80.32,453c.17,2.22-.44,3.28-3,3a29.42,29.42,0,0,0-7.62,0c-2.81.39-3.29-.86-3.2-3.2.28-7.89.57-15.79.69-23.69.19-12.37.33-24.74-.6-37.09-.34-4.43,0-4.53,4.45-4.05A24.22,24.22,0,0,0,76,388c4.34-.42,4.66-.34,4.25,4.15-.6,6.49-.38,13-.72,19.49-.17,3.4,1.12,4.31,4.37,4.47,8.41.41,16.8.27,25.21-.08,2.68-.11,3.59-1.12,3.5-3.69-.23-7,.29-14-.55-21-.34-2.81.47-4.21,3.54-3.5a16.56,16.56,0,0,0,7.22,0c2.78-.59,3.65.61,3.45,3.3-1.54,20.89-1.05,41.8-.51,62.7.05,2-.5,2.39-2.37,2.22a36.21,36.21,0,0,0-8-.11c-3.09.41-3.86-.75-3.55-3.53.94-8.26.58-16.56.82-24.84.1-3.53-.89-4.84-4.66-5a233.89,233.89,0,0,0-24.45.08c-2.85.15-4.2,1-4,4.07S79.56,433,79.56,436.22Z"/><path id="_Trazado_2" data-name="&lt;Trazado&gt;" class="cls-1" d="M350.18,409.43c0,11-.06,21.14,0,31.32,0,3.95.23,7.91.62,11.84.47,4.72-2.9,2.87-5.05,3.17-2.88.4-3.42-1.06-3.24-3.61.88-12.47,1.46-25,1.11-37.46-.21-7.52-.41-15-.36-22.56,0-1.52-.76-3.59,1.41-4.3s3.87.07,5.44,1.78c4.92,5.35,9.89,10.66,15,15.83,8.61,8.71,17.33,17.31,26,25.92.94.93,1.9,2.62,3.38,2,1.27-.56.63-2.3.63-3.51,0-12.63.26-25.26-.78-37.87-.14-1.74-1.11-4.51,2.68-3.87,2.57.43,6.08-1.6,5.59,4.05-1.64,19-.66,38-.77,57a27.86,27.86,0,0,1,0,3.06c-.18,1.51.74,3.57-1.53,4.22-2,.58-3.55-.32-5-1.88C381.77,440,367.59,426,353.33,412.15,352.53,411.36,351.63,410.67,350.18,409.43Z"/><path id="_Trazado_3" data-name="&lt;Trazado&gt;" class="cls-1" d="M246.53,456.08c-4.84,0-9.69-.17-14.52.05-4.35.2-4.78.11-4.53-4.2.94-16.43.69-32.87.56-49.31,0-3.94-.35-7.89-.58-11.83-.14-2.32.72-3.28,3.16-2.83a21.07,21.07,0,0,0,8-.09c2.48-.5,3.09.57,3,2.9-.63,18.2-1.68,36.38-.72,54.61.18,3.42,1.36,4.47,4.58,4.26,5.59-.36,11.21-.34,16.79-.79,3.8-.3,3.08,2.11,3.35,4.37.34,2.95-1.31,3.21-3.42,3A96.14,96.14,0,0,0,246.53,456.08Z"/><path id="_Trazado_compuesto_" data-name="&lt;Trazado compuesto&gt;" class="cls-1" d="M568.26,425.87c-1,1-.82,2.38-1.08,3.59-3.2,15.1-12.43,24.24-27.46,27.27-12.25,2.47-24.07.92-34.16-6.84-11.87-9.14-14.06-21.91-11.43-35.82,2.41-12.77,10-21.24,22.43-25.16a45.93,45.93,0,0,1,30,.51c11.5,4.14,18.49,12.27,20.74,24.36.23,1.24.06,2.58.92,3.65Zm-15.48-15.22c-2.32-10.38-8.56-16.68-18.12-18.28-9.09-1.52-17.94,2.1-22.27,10-7.28,13.25-7.48,26.9,0,40.1,6.11,10.78,21.84,13.26,31.4,5.35,8.07-6.69,10-15.92,10.12-25.76A52.86,52.86,0,0,0,552.78,410.65Z"/><path id="_Trazado_compuesto_2" data-name="&lt;Trazado compuesto&gt;" class="cls-1" d="M315.52,349.08H203.73c-5.44,0-5.46,0-5.46-5.55q0-80.59,0-161.17c0-5.42,0-5.43,5.46-5.43H428.07c5.15,0,5.17,0,5.17,5.39q0,80.59,0,161.17c0,5.47-.13,5.6-5.55,5.6Zm-97.89-86.75q0,27,0,54a43.81,43.81,0,0,0,.23,5.35c.68,5.47,3,7.61,8.58,7.61q50,0,99.9,0c6.16,0,9-2.74,9-8.83.07-11.61-.07-23.22.08-34.83,0-3.17-1.3-3.88-4.11-3.85-10.59.1-21.18.14-31.77,0-3,0-3.79,1.14-3.77,3.8.06,6.38-.06,12.76,0,19.14.08,7.93-2.46,11.17-10.35,12.43a82.26,82.26,0,0,1-23.64.16c-10.24-1.32-12.91-4.45-12.91-14.71q0-48.61,0-97.22c0-7.76-1.59-9.31-9.47-9.33H227.95c-8.17,0-10.17,2-10.18,10.08q0,28.13,0,56.26Zm195.88-57.41c0-6.66-2.35-8.93-9-8.93q-49.38,0-98.75,0c-7.3,0-9.71,2.11-9.85,9.49-.22,11.48,0,23-.11,34.45,0,2.65,1.14,3.58,3.71,3.56,10.72-.07,21.44-.09,32.15,0,2.76,0,3.88-.87,3.81-3.74-.15-6.5-.06-13,0-19.52,0-7.54,2.48-10.77,9.92-12.16a75.46,75.46,0,0,1,25.13-.17c9.6,1.45,11.76,4.25,11.76,14q0,49.19,0,98.37c0,6.68,2.33,8.95,9,9,3.83,0,7.66,0,11.48,0,9,0,10.82-1.78,10.83-10.67q0-27.94,0-55.88Q413.52,233.82,413.51,204.92Z"/><path id="_Trazado_compuesto_3" data-name="&lt;Trazado compuesto&gt;" class="cls-1" d="M418.82,422c0-10,.12-19.91-.07-29.86-.07-3.5.88-4.52,4.54-4.39,7.88.29,15.79-.13,23.69-.15s15.86,1.07,22.72,5.58c10,6.61,13.54,16.56,13.44,28-.16,17.77-10.63,31-27,34.26-6.18,1.23-12.42,1-18.67.56a72.56,72.56,0,0,0-14.91,0c-3,.41-3.82-.65-3.79-3.47.1-10.21,0-20.42,0-30.63Zm13.11.22c0,7.27,0,14.55,0,21.82.05,6.33.11,6.32,6.24,6.45,2,0,4.08.09,6.12.17a21.14,21.14,0,0,0,16.29-6.29c7.29-7.21,8.95-16.39,8.51-26.07-.29-6.47-2-12.6-6.69-17.5-7.38-7.8-16.78-8.19-26.58-7.4-3,.24-3.94,1.49-3.91,4.33.1,8.16,0,16.33,0,24.5Z"/><path id="_Trazado_compuesto_4" data-name="&lt;Trazado compuesto&gt;" class="cls-1" d="M213.7,421.22c0,23.54-17.39,38.77-41.06,36.29-11.76-1.23-21.94-5.18-28.38-15.56-14.9-24,1-53.84,29.3-55.12a52.54,52.54,0,0,1,12.19.71C203.72,390.94,213.69,402.9,213.7,421.22Zm-16.62-15.67c-3.42-8.43-9.76-12.84-18.76-13.35-9.28-.52-16.43,3.17-20.73,11.52-6.11,11.88-6.11,24.11-.72,36.15,3.72,8.31,10.48,12.33,19.82,12.31s15.61-4.74,19.6-12.76A34.9,34.9,0,0,0,199.86,422,39.82,39.82,0,0,0,197.07,405.55Z"/><path id="_Trazado_compuesto_5" data-name="&lt;Trazado compuesto&gt;" class="cls-1" d="M269.71,455.43c2-4.49,3.94-8.89,5.88-13.29,7.71-17.5,16.09-34.71,22.66-52.69.85-2.32,2.34-2.57,4.42-2.62s3.55.36,4.36,2.64c7.63,21.4,17.11,42,26.39,62.74,1.32,2.95,1.28,4.29-2.41,3.63a16,16,0,0,0-2.67-.08c-8.76-.07-8.76-.07-12-8.41-.14-.36-.25-.73-.39-1.08-6.17-14.83-1.59-11.79-17.68-11.9-14.12-.09-10.1-2.34-15.69,10.91-.49,1.17-.88,2.39-1.3,3.6C278.61,456.64,278.61,456.65,269.71,455.43Zm29-50.05-8.44,20.4c-.67,1.62-.13,2.31,1.61,2.46a110.56,110.56,0,0,0,13.73,0c1.83-.06,2.61-.64,1.86-2.57-2.62-6.74-5.18-13.5-7.76-20.25Z"/></g></g></svg>