<svg id="Capa_1" data-name="Capa 1" xmlns="http://www.w3.org/2000/svg" viewBox="0 0 634.73 634.73"><defs><style>.cls-1{fill:#962842;}.cls-2{fill:#010101;}</style></defs><title>Mesa de trabajo 1 copia</title><g id="_Grupo_" data-name="&lt;Grupo&gt;"><g id="_Grupo_2" data-name="&lt;Grupo&gt;"><polygon id="_Trazado_" data-name="&lt;Trazado&gt;" class="cls-1" points="355.62 239.83 329.64 224.84 355.61 281.26 355.62 239.83"/><polygon id="_Trazado_2" data-name="&lt;Trazado&gt;" class="cls-1" points="293.39 273.89 286.69 288.35 317.36 306.08 347.65 288.59 340.94 273.89 293.39 273.89"/><polygon id="_Trazado_3" data-name="&lt;Trazado&gt;" class="cls-1" points="279.13 239.83 279.11 282.21 305.93 224.35 279.13 239.83"/><polygon id="_Trazado_4" data-name="&lt;Trazado&gt;" class="cls-1" points="297.16 265.4 337.17 265.4 317.18 221.43 297.16 265.4"/><path id="_Trazado_compuesto_" data-name="&lt;Trazado compuesto&gt;" class="cls-1" d="M93.21,362.66H70.06L64,375.1H55.25L82,320.72l25.8,54.39-8.93,0Zm-3.32-7.25-8-17.41-8.4,17.41Z"/><polygon id="_Trazado_5" data-name="&lt;Trazado&gt;" class="cls-1" points="141.57 328.69 122.73 328.69 122.73 341.71 140.91 341.71 140.91 349.36 122.74 349.37 122.73 375.1 114.58 375.1 114.57 321.02 141.57 321.02 141.57 328.69"/><rect id="_Trazado_6" data-name="&lt;Trazado&gt;" class="cls-1" x="151.02" y="321.02" width="8.18" height="54.09"/><path id="_Trazado_compuesto_2" data-name="&lt;Trazado compuesto&gt;" class="cls-1" d="M203.93,362.68H180.82l-6,12.42H166l26.75-54.38,25.82,54.39h-8.92Zm-3.31-7.28-8-17.4-8.4,17.41Z"/><polygon id="_Trazado_7" data-name="&lt;Trazado&gt;" class="cls-1" points="223.88 375.11 223.86 320.45 263.3 355.99 263.3 321.02 271.47 321.02 271.46 375.76 232.02 339.27 232.02 375.1 223.88 375.11"/><polygon id="_Trazado_8" data-name="&lt;Trazado&gt;" class="cls-1" points="292.34 367.42 318.28 367.42 318.28 375.1 278.92 375.1 305.48 328.69 283.27 328.69 283.26 321.03 318.88 321.02 292.34 367.42"/><path id="_Trazado_compuesto_3" data-name="&lt;Trazado compuesto&gt;" class="cls-1" d="M359.6,362.68H336.43l-6,12.42h-8.79l26.76-54.38,25.8,54.39h-8.92Zm-3.33-7.27-8-17.41-8.4,17.4Z"/><path id="_Trazado_compuesto_4" data-name="&lt;Trazado compuesto&gt;" class="cls-1" d="M379.52,375.11V321h11.35a41.39,41.39,0,0,1,12.88,1.63A24.06,24.06,0,0,1,413,328q8.36,7.63,8.36,20.06t-8.72,20.2a25.74,25.74,0,0,1-9.17,5.34q-4.48,1.51-12.7,1.5Zm8.16-7.69h3.68a30.72,30.72,0,0,0,9.15-1.14,18.56,18.56,0,0,0,12.61-18.21c0-5.92-2-10.74-6-14.42-3.56-3.28-8.83-5-15.78-4.94l-3.69,0v38.73Z"/><path id="_Trazado_compuesto_5" data-name="&lt;Trazado compuesto&gt;" class="cls-1" d="M427.46,347.82a26.52,26.52,0,0,1,8.37-19.61,27.56,27.56,0,0,1,20-8.19A28.26,28.26,0,0,1,484,348.12a26.62,26.62,0,0,1-8.33,19.8,28.53,28.53,0,0,1-39,.89q-9.16-8-9.18-21m8.24.08a20,20,0,0,0,34.21,14.61,21,21,0,0,0,.08-29,20.19,20.19,0,0,0-28.48,0,19.43,19.43,0,0,0-5.81,14.34"/><path id="_Trazado_compuesto_6" data-name="&lt;Trazado compuesto&gt;" class="cls-1" d="M508.25,352.06l16.74,23H515L499.56,353H498.1v22.13h-8.17V321l9.55,0c7.15,0,12.32,1.34,15.47,4a14.81,14.81,0,0,1,5.28,11.84,15.43,15.43,0,0,1-3.31,9.88,14.94,14.94,0,0,1-8.69,5.28m-10.15-6.21h2.58c7.72,0,11.59-2.94,11.6-8.86,0-5.52-3.77-8.29-11.28-8.29l-2.9,0v17.16Z"/><path id="_Trazado_compuesto_7" data-name="&lt;Trazado compuesto&gt;" class="cls-1" d="M564.89,362.68H541.75l-6,12.42h-8.81l26.76-54.38,25.8,54.39h-8.92Zm-3.33-7.27-8-17.41-8.4,17.41Z"/><path id="_Trazado_9" data-name="&lt;Trazado&gt;" class="cls-2" d="M66.1,395.76a3.53,3.53,0,0,0-3.31-1.94c-1.64,0-3.44,1.12-3.44,2.92,0,1.61,1.59,2.46,2.87,2.95l1.48.57c2.92,1.15,5.11,2.76,5.11,6.21a6.35,6.35,0,0,1-6.59,6.42,6.42,6.42,0,0,1-6.37-5.77l2.6-.54a3.89,3.89,0,1,0,7.79-.11c0-2.21-1.78-3.17-3.55-3.91l-1.42-.6c-2.35-1-4.48-2.35-4.48-5.22,0-3.33,3-5.33,6.07-5.33a5.87,5.87,0,0,1,5.3,3.12Z"/><polygon id="_Trazado_10" data-name="&lt;Trazado&gt;" class="cls-2" points="85.28 391.85 96.35 391.85 96.35 394.2 87.85 394.2 87.85 399.96 96.1 399.96 96.1 402.31 87.85 402.31 87.85 410.1 96.35 410.1 96.35 412.45 85.28 412.45 85.28 391.85"/><path id="_Trazado_11" data-name="&lt;Trazado&gt;" class="cls-2" d="M132,402.07v.82c0,5.65-4,10-9.76,10a10.74,10.74,0,0,1,.27-21.48,10.8,10.8,0,0,1,8.39,4l-1.8,1.72a8.12,8.12,0,0,0-14.7,5c0,4.32,3.55,8.42,8,8.42,3.2,0,6.64-2.76,6.75-6.12h-5.33v-2.35H132Z"/><path id="_Trazado_12" data-name="&lt;Trazado&gt;" class="cls-2" d="M150.38,391.85V404c0,3.36,1,6.48,5,6.48s5-3.12,5-6.48V391.85h2.57v13c0,4.54-2.82,8-7.54,8s-7.54-3.47-7.54-8v-13Z"/><path id="_Trazado_compuesto_8" data-name="&lt;Trazado compuesto&gt;" class="cls-2" d="M192.93,412.45h-3.12l-6.07-8.72h-1.07v8.72h-2.57v-20.6h3.12a10.89,10.89,0,0,1,5.44,1,5.7,5.7,0,0,1,2.7,4.92,5.61,5.61,0,0,1-4.94,5.77ZM182.68,401.6h.82c2.62,0,5.47-.49,5.47-3.77s-3.06-3.69-5.6-3.69h-.68Z"/><path id="_Trazado_compuesto_9" data-name="&lt;Trazado compuesto&gt;" class="cls-2" d="M228.75,402.15a10.79,10.79,0,0,1-21.59,0,10.79,10.79,0,0,1,21.59,0m-2.57,0a8.23,8.23,0,1,0-16.45,0,8.23,8.23,0,1,0,16.45,0"/><path id="_Trazado_13" data-name="&lt;Trazado&gt;" class="cls-2" d="M254.06,395.76a3.53,3.53,0,0,0-3.31-1.94c-1.64,0-3.44,1.12-3.44,2.92,0,1.61,1.59,2.46,2.87,2.95l1.48.57c2.92,1.15,5.11,2.76,5.11,6.21a6.35,6.35,0,0,1-6.59,6.42,6.42,6.42,0,0,1-6.37-5.77l2.6-.54a3.89,3.89,0,1,0,7.79-.11c0-2.21-1.78-3.17-3.55-3.91l-1.42-.6c-2.35-1-4.48-2.35-4.48-5.22,0-3.33,3-5.33,6.07-5.33a5.87,5.87,0,0,1,5.3,3.12Z"/><path id="_Trazado_compuesto_10" data-name="&lt;Trazado compuesto&gt;" class="cls-2" d="M294.59,391.85h4.26c6.31,0,11.56,3.33,11.56,10.19,0,7-5.14,10.41-11.64,10.41h-4.18Zm2.57,18.25h.9c5.25,0,9.78-2,9.78-7.95s-4.54-8-9.78-8h-.9Z"/><polygon id="_Trazado_14" data-name="&lt;Trazado&gt;" class="cls-2" points="326.65 391.85 337.71 391.85 337.71 394.2 329.21 394.2 329.21 399.96 337.47 399.96 337.47 402.31 329.21 402.31 329.21 410.1 337.71 410.1 337.71 412.45 326.65 412.45 326.65 391.85"/><path id="_Trazado_15" data-name="&lt;Trazado&gt;" class="cls-2" d="M391.11,395.78a8.19,8.19,0,0,0-13.58,6.39,8.11,8.11,0,0,0,13.58,6.23v3a11.14,11.14,0,0,1-5.41,1.45A10.67,10.67,0,0,1,375,402.26a10.83,10.83,0,0,1,11-10.85,9.92,9.92,0,0,1,5.19,1.4v3Z"/><path id="_Trazado_compuesto_11" data-name="&lt;Trazado compuesto&gt;" class="cls-2" d="M410.76,407.29l-2.35,5.16h-2.76L415.49,391l9.84,21.48h-2.76l-2.35-5.16Zm4.73-10.68-3.66,8.33h7.32Z"/><path id="_Trazado_16" data-name="&lt;Trazado&gt;" class="cls-2" d="M442.92,391.85V404c0,3.36,1,6.48,5,6.48s5-3.12,5-6.48V391.85h2.57v13c0,4.54-2.82,8-7.54,8s-7.55-3.47-7.55-8v-13Z"/><path id="_Trazado_17" data-name="&lt;Trazado&gt;" class="cls-2" d="M487.66,395.78a8.19,8.19,0,0,0-13.58,6.39,8.11,8.11,0,0,0,13.58,6.23v3a11.16,11.16,0,0,1-5.41,1.45,10.67,10.67,0,0,1-10.74-10.63,10.83,10.83,0,0,1,11-10.85,9.93,9.93,0,0,1,5.19,1.4v3Z"/><rect id="_Trazado_18" data-name="&lt;Trazado&gt;" class="cls-2" x="504.3" y="391.85" width="2.57" height="20.6"/><path id="_Trazado_compuesto_12" data-name="&lt;Trazado compuesto&gt;" class="cls-2" d="M544.53,402.15a10.79,10.79,0,0,1-21.59,0,10.79,10.79,0,0,1,21.59,0m-2.57,0a8.23,8.23,0,1,0-16.45,0,8.23,8.23,0,1,0,16.45,0m-4.57-15.68-4.48,4.07-1.2-.74,3.42-4.54Z"/><polygon id="_Trazado_19" data-name="&lt;Trazado&gt;" class="cls-2" points="560.43 390.86 575.9 407.07 575.9 391.85 578.47 391.85 578.47 413.29 563 397.09 563 412.45 560.43 412.45 560.43 390.86"/></g></g></svg>