<?xml version="1.0" encoding="utf-8"?>
<!-- Generator: Adobe Illustrator 21.0.2, SVG Export Plug-In . SVG Version: 6.00 Build 0)  -->
<svg version="1.1" id="Capa_1" xmlns="http://www.w3.org/2000/svg" xmlns:xlink="http://www.w3.org/1999/xlink" x="0px" y="0px"
	 viewBox="0 0 295.29 89" enable-background="new 0 0 295.29 89" xml:space="preserve">
<g>
	<text transform="matrix(0.9983 0 0 1 117.0154 38.9411)"><tspan x="0" y="0" fill="#00BFBA" font-family="'Montserrat-Bold'" font-size="26.4682px">MC ALLISTER</tspan><tspan x="0" y="26.488" fill="#00BFBA" font-family="'Montserrat-ExtraLight'" font-size="26.4682px" letter-spacing="5.009">ASESORES</tspan><tspan x="182.497" y="26.488" fill="#00BFBA" font-family="'Montserrat-Bold'" font-size="26.4682px" letter-spacing="52.089">	</tspan></text>
	<g>
		<g>
			<path fill="#00BFBA" d="M44.424,89C19.929,89,0,69.037,0,44.5S19.929,0,44.424,0c22.031,0,40.488,15.801,43.888,37.571
				c0.262,1.676-0.883,3.248-2.556,3.51c-1.675,0.263-3.243-0.884-3.504-2.56c-2.93-18.76-18.839-32.377-37.828-32.377
				c-21.113,0-38.29,17.206-38.29,38.356c0,21.149,17.177,38.355,38.29,38.355c18.714,0,34.585-13.387,37.739-31.831
				c0.286-1.672,1.871-2.793,3.541-2.509c1.669,0.286,2.791,1.874,2.505,3.547C84.549,73.465,66.135,89,44.424,89z"/>
		</g>
		<g>
			<g>
				<g>
					<path fill="#00BFBA" d="M54.23,26.347h5.864c0.571,0,1.061,0.405,1.17,0.966l5.402,27.86c0.576,2.969-1.695,5.728-4.715,5.728
						h0c-2.299,0-4.276-1.633-4.715-3.894l-5.385-27.771C51.562,27.738,52.707,26.347,54.23,26.347z"/>
				</g>
				<g>
					<path fill="#00BFBA" d="M33.209,26.347h5.997c0.571,0,1.061,0.405,1.17,0.966l5.768,29.749c0.386,1.99-1.136,3.839-3.16,3.839
						h-4.898c-0.571,0-1.061-0.405-1.17-0.966l-5.977-30.829C30.661,27.676,31.754,26.347,33.209,26.347z"/>
				</g>
			</g>
			<g>
				<g>
					<path fill="#00EFE3" d="M39.271,26.347h-7.053c-1.648,0-3.127,1.011-3.728,2.548L18.407,54.673
						c-1.171,2.993,1.032,6.228,4.241,6.228h0c1.874,0,3.558-1.15,4.241-2.898L39.271,26.347z"/>
				</g>
				<g>
					<path fill="#00EFE3" d="M60.146,26.347h-6.963c-1.692,0-3.201,1.065-3.771,2.661L38.034,60.901h6.963
						c1.692,0,3.201-1.065,3.771-2.661L60.146,26.347z"/>
				</g>
				<g>
					<path fill="#00EFE3" d="M36.69,58.774c0,0,0.143,0.701,0.513,1.126c0.37,0.425,0.704,0.327,0.831,0.233
						c0.126-0.093,0.395-0.34,0.712-1.227c0.316-0.887,0.525,1.287,0.525,1.287l-0.986,0.708c0,0-0.589,0.072-0.983-0.295
						c-0.152-0.118-0.333-0.397-0.386-0.671S36.69,58.774,36.69,58.774z"/>
				</g>
				<g>
					<path fill="#00EFE3" d="M61.494,28.48c0,0-0.143-0.701-0.513-1.126c-0.37-0.425-0.704-0.327-0.831-0.233
						c-0.126,0.093-0.395,0.34-0.712,1.227s-0.525-1.287-0.525-1.287l0.986-0.708c0,0,0.569-0.092,0.983,0.295
						c0.152,0.118,0.333,0.397,0.386,0.671S61.494,28.48,61.494,28.48z"/>
				</g>
				<g>
					<path fill="#00EFE3" d="M40.6,28.475c0,0-0.207-0.701-0.577-1.126c-0.37-0.425-0.704-0.327-0.831-0.233
						c-0.126,0.093-0.395,0.34-0.712,1.227c-0.316,0.887-0.525-1.287-0.525-1.287l0.986-0.708c0,0,0.638-0.092,1.053,0.295
						c0.152,0.118,0.327,0.397,0.38,0.671S40.6,28.475,40.6,28.475z"/>
				</g>
			</g>
		</g>
	</g>
	<rect x="106.574" y="8.085" fill="#5B5B5F" width="0.708" height="69.777"/>
</g>
</svg>
