<?xml version="1.0" encoding="utf-8"?>
<!-- Generator: Adobe Illustrator 21.0.2, SVG Export Plug-In . SVG Version: 6.00 Build 0)  -->
<svg version="1.1" id="Capa_1" xmlns="http://www.w3.org/2000/svg" xmlns:xlink="http://www.w3.org/1999/xlink" x="0px" y="0px"
	 viewBox="0 0 295.29 89" enable-background="new 0 0 295.29 89" xml:space="preserve">
<g>
	<g>
		<path fill="#00BFBA" d="M2306.002-327.458c-26.738,0-48.491-21.753-48.491-48.49c0-26.738,21.753-48.491,48.491-48.491
			c24.048,0,44.195,17.218,47.906,40.94c0.286,1.827-0.963,3.539-2.79,3.825c-1.829,0.287-3.54-0.963-3.825-2.79
			c-3.198-20.443-20.563-35.28-41.291-35.28c-23.046,0-41.795,18.749-41.795,41.796c0,23.046,18.749,41.795,41.795,41.795
			c20.427,0,37.752-14.588,41.194-34.686c0.312-1.822,2.042-3.044,3.865-2.734c1.822,0.312,3.046,2.042,2.734,3.865
			C2349.801-344.386,2329.701-327.458,2306.002-327.458z"/>
	</g>
	<g>
		<g>
			<g>
				<path fill="#00BFBA" d="M2316.706-395.73h6.401c0.623,0,1.158,0.441,1.277,1.053l5.896,30.358
					c0.628,3.236-1.85,6.242-5.146,6.242l0,0c-2.51,0-4.668-1.779-5.146-4.243l-5.877-30.262
					C2313.794-394.214,2315.044-395.73,2316.706-395.73z"/>
			</g>
			<g>
				<path fill="#00BFBA" d="M2293.76-395.73h6.546c0.623,0,1.158,0.441,1.277,1.053l6.296,32.417
					c0.421,2.169-1.24,4.183-3.449,4.183h-5.347c-0.623,0-1.158-0.441-1.277-1.053l-6.525-33.594
					C2290.979-394.282,2292.173-395.73,2293.76-395.73z"/>
			</g>
		</g>
		<g>
			<g>
				<path fill="#00EFE3" d="M2300.378-395.73h-7.698c-1.799,0-3.414,1.102-4.07,2.776l-11.006,28.09
					c-1.278,3.261,1.127,6.786,4.63,6.786l0,0c2.046,0,3.883-1.253,4.63-3.158L2300.378-395.73z"/>
			</g>
			<g>
				<path fill="#00EFE3" d="M2323.164-395.73h-7.601c-1.847,0-3.495,1.161-4.116,2.9l-12.419,34.753h7.601
					c1.847,0,3.494-1.161,4.116-2.9L2323.164-395.73z"/>
			</g>
			<g>
				<path fill="#00EFE3" d="M2297.561-360.395c0,0,0.156,0.764,0.56,1.227s0.769,0.356,0.907,0.254
					c0.138-0.101,0.432-0.371,0.777-1.337s0.573,1.402,0.573,1.402l-1.076,0.772c0,0-0.643,0.079-1.073-0.321
					c-0.166-0.129-0.364-0.433-0.421-0.731C2297.749-359.429,2297.561-360.395,2297.561-360.395z"/>
			</g>
			<g>
				<path fill="#00EFE3" d="M2324.636-393.406c0,0-0.157-0.764-0.56-1.227c-0.404-0.463-0.769-0.356-0.907-0.254
					c-0.138,0.101-0.431,0.371-0.777,1.337s-0.573-1.402-0.573-1.402l1.076-0.772c0,0,0.621-0.1,1.073,0.321
					c0.166,0.129,0.364,0.433,0.422,0.731C2324.448-394.372,2324.636-393.406,2324.636-393.406z"/>
			</g>
			<g>
				<path fill="#00EFE3" d="M2301.829-393.411c0,0-0.226-0.764-0.63-1.227c-0.404-0.463-0.769-0.356-0.907-0.254
					c-0.138,0.101-0.432,0.371-0.777,1.337c-0.345,0.967-0.573-1.402-0.573-1.402l1.076-0.772c0,0,0.697-0.1,1.15,0.321
					c0.166,0.129,0.357,0.433,0.415,0.731C2301.641-394.378,2301.829-393.411,2301.829-393.411z"/>
			</g>
		</g>
	</g>
</g>
<g>
	<g>
		<path fill="#00BFBA" d="M3436.441,330.089c-26.738,0-48.491-21.753-48.491-48.49s21.753-48.491,48.491-48.491
			c24.048,0,44.195,17.218,47.906,40.941c0.286,1.827-0.963,3.539-2.79,3.825c-1.829,0.287-3.54-0.964-3.825-2.79
			c-3.198-20.443-20.563-35.28-41.291-35.28c-23.046,0-41.796,18.749-41.796,41.796c0,23.046,18.749,41.795,41.796,41.795
			c20.427,0,37.752-14.588,41.194-34.686c0.312-1.822,2.042-3.044,3.865-2.734c1.822,0.312,3.046,2.042,2.734,3.865
			C3480.24,313.161,3460.14,330.089,3436.441,330.089z"/>
	</g>
	<g>
		<g>
			<g>
				<path fill="#00BFBA" d="M3447.145,261.817h6.401c0.623,0,1.158,0.441,1.277,1.053l5.896,30.358
					c0.628,3.236-1.85,6.242-5.146,6.242l0,0c-2.51,0-4.667-1.779-5.146-4.243l-5.878-30.262
					C3444.232,263.333,3445.482,261.817,3447.145,261.817z"/>
			</g>
			<g>
				<path fill="#00BFBA" d="M3424.199,261.817h6.546c0.623,0,1.158,0.441,1.277,1.053l6.296,32.417
					c0.421,2.169-1.24,4.183-3.449,4.183h-5.347c-0.623,0-1.158-0.441-1.277-1.053l-6.525-33.594
					C3421.418,263.265,3422.612,261.817,3424.199,261.817z"/>
			</g>
		</g>
		<g>
			<g>
				<path fill="#00EFE3" d="M3430.816,261.817h-7.698c-1.799,0-3.414,1.102-4.07,2.776l-11.006,28.09
					c-1.278,3.261,1.127,6.786,4.63,6.786l0,0c2.046,0,3.883-1.253,4.629-3.158L3430.816,261.817z"/>
			</g>
			<g>
				<path fill="#00EFE3" d="M3453.603,261.817h-7.601c-1.847,0-3.495,1.161-4.116,2.9l-12.419,34.753h7.601
					c1.847,0,3.495-1.161,4.116-2.9L3453.603,261.817z"/>
			</g>
			<g>
				<path fill="#00EFE3" d="M3428,297.152c0,0,0.156,0.764,0.56,1.227s0.769,0.356,0.907,0.254c0.138-0.101,0.432-0.371,0.777-1.337
					c0.345-0.967,0.573,1.402,0.573,1.402l-1.076,0.772c0,0-0.643,0.079-1.073-0.321c-0.166-0.129-0.364-0.433-0.422-0.731
					C3428.187,298.118,3428,297.152,3428,297.152z"/>
			</g>
			<g>
				<path fill="#00EFE3" d="M3455.074,264.141c0,0-0.156-0.764-0.56-1.227c-0.403-0.463-0.768-0.356-0.907-0.254
					c-0.138,0.101-0.432,0.371-0.777,1.337c-0.345,0.967-0.573-1.402-0.573-1.402l1.076-0.772c0,0,0.621-0.1,1.073,0.321
					c0.166,0.129,0.364,0.433,0.422,0.731S3455.074,264.141,3455.074,264.141z"/>
			</g>
			<g>
				<path fill="#00EFE3" d="M3432.267,264.135c0,0-0.226-0.764-0.63-1.227s-0.769-0.356-0.907-0.254
					c-0.138,0.101-0.432,0.371-0.777,1.337s-0.573-1.402-0.573-1.402l1.076-0.772c0,0,0.697-0.1,1.149,0.321
					c0.166,0.129,0.357,0.433,0.415,0.731C3432.08,263.169,3432.267,264.135,3432.267,264.135z"/>
			</g>
		</g>
	</g>
</g>
<g>
	<g>
		<path fill="#00BFBA" d="M1915.384,111.864c-67.589,0-122.578-54.988-122.578-122.576s54.989-122.578,122.578-122.578
			c60.789,0,111.718,43.524,121.099,103.491c0.722,4.617-2.436,8.946-7.053,9.669c-4.623,0.725-8.948-2.436-9.669-7.053
			c-8.083-51.676-51.981-89.183-104.377-89.183c-58.258,0-105.653,47.395-105.653,105.653c0,58.257,47.395,105.652,105.653,105.652
			c51.637,0,95.43-36.875,104.131-87.68c0.789-4.605,5.163-7.694,9.769-6.912c4.607,0.789,7.701,5.163,6.912,9.769
			C2026.1,69.073,1975.291,111.864,1915.384,111.864z"/>
	</g>
	<g>
		<g>
			<g>
				<path fill="#00BFBA" d="M1942.442-60.716h16.181c1.574,0,2.928,1.116,3.228,2.661l14.905,76.741
					c1.589,8.18-4.676,15.778-13.009,15.778h0c-6.345,0-11.799-4.497-13.009-10.725l-14.857-76.497
					C1935.079-56.884,1938.239-60.716,1942.442-60.716z"/>
			</g>
			<g>
				<path fill="#00BFBA" d="M1884.438-60.716h16.547c1.574,0,2.928,1.116,3.228,2.661l15.916,81.945
					c1.065,5.482-3.134,10.574-8.718,10.574h-13.516c-1.574,0-2.928-1.116-3.228-2.661l-16.493-84.92
					C1877.408-57.057,1880.425-60.716,1884.438-60.716z"/>
			</g>
		</g>
		<g>
			<g>
				<path fill="#00EFE3" d="M1901.165-60.716h-19.461c-4.547,0-8.629,2.785-10.288,7.019l-27.821,71.007
					c-3.23,8.244,2.849,17.154,11.703,17.154l0,0c5.172,0,9.816-3.168,11.703-7.984L1901.165-60.716z"/>
			</g>
			<g>
				<path fill="#00EFE3" d="M1958.766-60.716h-19.214c-4.669,0-8.834,2.935-10.405,7.331l-31.394,87.849h19.214
					c4.669,0,8.834-2.935,10.405-7.331L1958.766-60.716z"/>
			</g>
			<g>
				<path fill="#00EFE3" d="M1894.045,28.604c0,0,0.396,1.931,1.416,3.102c1.02,1.171,1.943,0.899,2.292,0.642
					c0.349-0.256,1.091-0.937,1.964-3.38s1.448,3.545,1.448,3.545l-2.72,1.951c0,0-1.625,0.199-2.714-0.812
					c-0.419-0.325-0.919-1.094-1.066-1.849C1894.52,31.048,1894.045,28.604,1894.045,28.604z"/>
			</g>
			<g>
				<path fill="#00EFE3" d="M1962.486-54.841c0,0-0.396-1.931-1.416-3.102c-1.02-1.171-1.943-0.899-2.292-0.642
					c-0.349,0.256-1.091,0.937-1.964,3.38c-0.873,2.443-1.448-3.545-1.448-3.545l2.72-1.951c0,0,1.569-0.254,2.714,0.812
					c0.419,0.325,0.919,1.094,1.066,1.849C1962.012-57.284,1962.486-54.841,1962.486-54.841z"/>
			</g>
			<g>
				<path fill="#00EFE3" d="M1904.833-54.855c0,0-0.571-1.931-1.591-3.102s-1.943-0.899-2.292-0.642
					c-0.349,0.256-1.091,0.937-1.964,3.38s-1.448-3.545-1.448-3.545l2.72-1.951c0,0,1.761-0.254,2.906,0.812
					c0.419,0.325,0.903,1.094,1.05,1.849C1904.359-57.298,1904.833-54.855,1904.833-54.855z"/>
			</g>
		</g>
	</g>
</g>
<text transform="matrix(1 0 0 1 2594.2358 301.7378)" font-family="'CocoGothic-Bold'" font-size="58.9549px">MC ALLISTER ASESORES</text>
<text transform="matrix(1 0 0 1 1615.9734 -348.7814)" font-family="'Odin-Bold'" font-size="58.9549px">MC ALLISTER ASESORES</text>
<text transform="matrix(1 0 0 1 1904.8331 -254.9342)"><tspan x="0" y="0" font-family="'Odin-Bold'" font-size="58.9549px">MC ALLISTER</tspan><tspan x="0" y="53" font-family="'Odin-Bold'" font-size="58.9549px">ASESORES</tspan></text>
<text transform="matrix(1 0 0 1 1615.2095 674.2648)" fill="#5B5B5F" font-family="'Montserrat-Bold'" font-size="58.9549px">MC ALLISTER ASESORES</text>
<text transform="matrix(1 0 0 1 1642.5258 869.621)" fill="#00BFBA" font-family="'Montserrat-Bold'" font-size="58.9549px">MC ALLISTER ASESORES</text>
<text transform="matrix(1 0 0 1 1463.1948 503.1322)" fill="#D8D9DD" font-family="'Montserrat-Bold'" font-size="58.9549px">MC ALLISTER ASESORES</text>
<text transform="matrix(1 0 0 1 1463.1948 545.1301)" fill="#AEADB3" font-family="'Montserrat-Bold'" font-size="58.9549px">MC ALLISTER ASESORES</text>
<text transform="matrix(1 0 0 1 1913.5342 1092.5356)"><tspan x="0" y="0" fill="#5B5B5F" font-family="'Montserrat-Bold'" font-size="58.9549px">MC ALLISTER</tspan><tspan x="0" y="59" fill="#5B5B5F" font-family="'Montserrat-Bold'" font-size="58.9549px">ASESORES</tspan></text>
<text transform="matrix(1 0 0 1 1906.5535 1416.6505)"><tspan x="0" y="0" fill="#5B5B5F" font-family="'Montserrat-Bold'" font-size="54.7549px">MC</tspan><tspan x="0" y="54.797" fill="#5B5B5F" font-family="'Montserrat-Bold'" font-size="54.7549px">ALLISTER</tspan><tspan x="0" y="109.594" fill="#5B5B5F" font-family="'Montserrat-Bold'" font-size="54.7549px">ASESORES</tspan></text>
<g>
	<text transform="matrix(1 0 0 1 3146.6504 674.1252)" fill="#5B5B5F" font-family="'CocoGothic-Bold'" font-size="58.9549px">MC ALLISTER ASESORES</text>
</g>
<text transform="matrix(1 0 0 1 3145.8574 872.6208)" fill="#00BFBA" font-family="'CocoGothic-Bold'" font-size="58.9549px">MC ALLISTER ASESORES</text>
<g>
	<text transform="matrix(1 0 0 1 2973.8455 503.1322)" fill="#D8D9DD" font-family="'CocoGothic-Bold'" font-size="58.9549px">MC ALLISTER ASESORES</text>
</g>
<g>
	<text transform="matrix(1 0 0 1 2973.8455 545.1301)" fill="#AEADB3" font-family="'CocoGothic-Bold'" font-size="58.9549px">MC ALLISTER ASESORES</text>
</g>
<g>
	<text transform="matrix(1 0 0 1 3424.6292 1096.5359)"><tspan x="0" y="0" fill="#5B5B5F" font-family="'CocoGothic-Bold'" font-size="58.9549px">MC ALLISTER</tspan><tspan x="0" y="60" fill="#5B5B5F" font-family="'CocoGothic-Bold'" font-size="58.9549px">ASESORES</tspan></text>
</g>
<g>
	<text transform="matrix(1 0 0 1 3407.4963 1421.863)"><tspan x="0" y="0" fill="#5B5B5F" font-family="'CocoGothic-Bold'" font-size="58.9549px">MC</tspan><tspan x="0" y="60" fill="#5B5B5F" font-family="'CocoGothic-Bold'" font-size="58.9549px">ALLISTER</tspan><tspan x="0" y="120" fill="#5B5B5F" font-family="'CocoGothic-Bold'" font-size="58.9549px">ASESORES</tspan></text>
</g>
<g>
	<g>
		<path fill="#00BFBA" d="M4563.813,1549.717c-51.906,0-94.136-42.229-94.136-94.135s42.229-94.136,94.136-94.136
			c46.684,0,85.796,33.425,93,79.478c0.555,3.546-1.87,6.871-5.416,7.425c-3.551,0.557-6.872-1.87-7.426-5.416
			c-6.208-39.686-39.919-68.49-80.158-68.49c-44.74,0-81.138,36.398-81.138,81.138c0,44.739,36.398,81.137,81.138,81.137
			c39.656,0,73.288-28.319,79.97-67.335c0.606-3.537,3.965-5.909,7.502-5.308c3.538,0.606,5.914,3.965,5.309,7.503
			C4648.84,1516.855,4609.82,1549.717,4563.813,1549.717z"/>
	</g>
	<g>
		<g>
			<g>
				<path fill="#00BFBA" d="M4584.593,1417.18h12.426c1.209,0,2.249,0.857,2.479,2.044l11.446,58.934
					c1.22,6.282-3.591,12.117-9.99,12.117l0,0c-4.873,0-9.062-3.453-9.99-8.237l-11.41-58.747
					C4578.939,1420.124,4581.366,1417.18,4584.593,1417.18z"/>
			</g>
			<g>
				<path fill="#00BFBA" d="M4540.048,1417.18h12.708c1.209,0,2.248,0.857,2.479,2.044l12.223,62.931
					c0.818,4.21-2.407,8.121-6.695,8.121h-10.379c-1.209,0-2.249-0.857-2.479-2.044l-12.667-65.216
					C4534.649,1419.991,4536.966,1417.18,4540.048,1417.18z"/>
			</g>
		</g>
		<g>
			<g>
				<path fill="#00EFE3" d="M4552.895,1417.18h-14.946c-3.492,0-6.627,2.139-7.9,5.39l-21.366,54.531
					c-2.48,6.331,2.188,13.174,8.988,13.174l0,0c3.972,0,7.539-2.433,8.987-6.131L4552.895,1417.18z"/>
			</g>
			<g>
				<path fill="#00EFE3" d="M4597.13,1417.18h-14.755c-3.585,0-6.784,2.254-7.991,5.63l-24.11,67.466h14.755
					c3.585,0,6.784-2.254,7.991-5.63L4597.13,1417.18z"/>
			</g>
			<g>
				<path fill="#00EFE3" d="M4547.426,1485.776c0,0,0.304,1.483,1.087,2.382c0.784,0.899,1.492,0.691,1.761,0.493
					c0.268-0.197,0.838-0.72,1.508-2.596c0.67-1.876,1.112,2.722,1.112,2.722l-2.089,1.498c0,0-1.248,0.153-2.083-0.624
					c-0.322-0.25-0.706-0.84-0.818-1.42C4547.791,1487.652,4547.426,1485.776,4547.426,1485.776z"/>
			</g>
			<g>
				<path fill="#00EFE3" d="M4599.987,1421.693c0,0-0.304-1.483-1.087-2.382c-0.783-0.899-1.492-0.691-1.76-0.493
					c-0.268,0.197-0.838,0.719-1.508,2.596c-0.67,1.876-1.112-2.722-1.112-2.722l2.089-1.498c0,0,1.205-0.195,2.084,0.624
					c0.322,0.25,0.706,0.84,0.818,1.42S4599.987,1421.693,4599.987,1421.693z"/>
			</g>
			<g>
				<path fill="#00EFE3" d="M4555.711,1421.682c0,0-0.439-1.483-1.222-2.382c-0.784-0.899-1.492-0.691-1.761-0.493
					c-0.268,0.197-0.837,0.72-1.508,2.596c-0.67,1.876-1.112-2.722-1.112-2.722l2.089-1.498c0,0,1.353-0.195,2.231,0.624
					c0.322,0.25,0.693,0.84,0.806,1.42C4555.347,1419.805,4555.711,1421.682,4555.711,1421.682z"/>
			</g>
		</g>
	</g>
</g>
<g>
	<g>
		<path fill="#00BFBA" d="M4611,1204.036c-54.654,0-99.119-44.464-99.119-99.118c0-54.654,44.465-99.119,99.119-99.119
			c49.155,0,90.337,35.195,97.923,83.686c0.584,3.734-1.97,7.234-5.703,7.818c-3.738,0.586-7.235-1.969-7.818-5.703
			c-6.537-41.786-42.033-72.115-84.401-72.115c-47.109,0-85.434,38.325-85.434,85.433c0,47.108,38.325,85.432,85.434,85.432
			c41.755,0,77.167-29.818,84.203-70.9c0.638-3.724,4.175-6.221,7.9-5.589c3.725,0.638,6.227,4.175,5.589,7.9
			C4700.528,1169.434,4659.442,1204.036,4611,1204.036z"/>
	</g>
	<g>
		<g>
			<g>
				<path fill="#00BFBA" d="M4632.88,1064.483h13.084c1.273,0,2.368,0.902,2.61,2.152l12.052,62.054
					c1.285,6.614-3.781,12.759-10.519,12.759l0,0c-5.13,0-9.541-3.636-10.52-8.673l-12.014-61.857
					C4626.926,1067.583,4629.481,1064.483,4632.88,1064.483z"/>
			</g>
			<g>
				<path fill="#00BFBA" d="M4585.977,1064.483h13.38c1.273,0,2.367,0.902,2.61,2.152l12.87,66.262
					c0.861,4.433-2.534,8.551-7.05,8.551h-10.929c-1.273,0-2.368-0.902-2.61-2.152l-13.337-68.668
					C4580.292,1067.443,4582.732,1064.483,4585.977,1064.483z"/>
			</g>
		</g>
		<g>
			<g>
				<path fill="#00EFE3" d="M4599.503,1064.483h-15.737c-3.676,0-6.978,2.252-8.319,5.675l-22.497,57.418
					c-2.612,6.666,2.303,13.871,9.463,13.871l0,0c4.183,0,7.938-2.562,9.463-6.456L4599.503,1064.483z"/>
			</g>
			<g>
				<path fill="#00EFE3" d="M4646.08,1064.483h-15.537c-3.775,0-7.143,2.373-8.414,5.928l-25.386,71.037h15.537
					c3.775,0,7.144-2.373,8.414-5.928L4646.08,1064.483z"/>
			</g>
			<g>
				<path fill="#00EFE3" d="M4593.745,1136.71c0,0,0.32,1.561,1.145,2.508s1.571,0.727,1.854,0.519
					c0.282-0.207,0.882-0.758,1.588-2.733s1.171,2.866,1.171,2.866l-2.2,1.578c0,0-1.314,0.161-2.194-0.657
					c-0.339-0.263-0.743-0.885-0.862-1.495S4593.745,1136.71,4593.745,1136.71z"/>
			</g>
			<g>
				<path fill="#00EFE3" d="M4649.088,1069.234c0,0-0.32-1.561-1.145-2.508s-1.571-0.727-1.854-0.519
					c-0.282,0.207-0.882,0.758-1.588,2.733s-1.171-2.866-1.171-2.866l2.2-1.578c0,0,1.269-0.205,2.194,0.657
					c0.339,0.263,0.743,0.885,0.862,1.495C4648.705,1067.259,4649.088,1069.234,4649.088,1069.234z"/>
			</g>
			<g>
				<path fill="#00EFE3" d="M4602.469,1069.223c0,0-0.462-1.561-1.287-2.508s-1.571-0.727-1.854-0.519
					c-0.282,0.207-0.882,0.758-1.588,2.733s-1.171-2.866-1.171-2.866l2.199-1.578c0,0,1.424-0.205,2.35,0.657
					c0.339,0.263,0.73,0.885,0.849,1.495C4602.085,1067.247,4602.469,1069.223,4602.469,1069.223z"/>
			</g>
		</g>
	</g>
</g>
<g>
	<text transform="matrix(1 0 0 1 4476.2607 694.1252)" fill="#5B5B5F" font-family="'Odin-Bold'" font-size="69.2465px">MC ALLISTER ASESORES</text>
</g>
<g>
	<g>
		<path fill="#00BFBA" d="M4376.037,919.717c-44.415,0-80.55-36.134-80.55-80.549c0-44.415,36.135-80.55,80.55-80.55
			c39.946,0,73.414,28.601,79.578,68.008c0.475,3.034-1.6,5.879-4.634,6.354c-3.038,0.476-5.88-1.6-6.354-4.635
			c-5.312-33.958-34.158-58.605-68.589-58.605c-38.283,0-69.428,31.145-69.428,69.428c0,38.282,31.145,69.428,69.428,69.428
			c33.932,0,62.71-24.232,68.428-57.618c0.518-3.026,3.393-5.056,6.419-4.542c3.027,0.518,5.061,3.393,4.542,6.42
			C4448.792,891.597,4415.403,919.717,4376.037,919.717z"/>
	</g>
	<g>
		<g>
			<g>
				<path fill="#00BFBA" d="M4393.817,806.308h10.633c1.034,0,1.924,0.733,2.121,1.749l9.794,50.429
					c1.044,5.375-3.073,10.369-8.549,10.369l0,0c-4.169,0-7.753-2.955-8.548-7.048l-9.763-50.269
					C4388.979,808.827,4391.055,806.308,4393.817,806.308z"/>
			</g>
			<g>
				<path fill="#00BFBA" d="M4355.701,806.308h10.874c1.035,0,1.924,0.733,2.121,1.749l10.459,53.849
					c0.7,3.602-2.06,6.949-5.729,6.949h-8.882c-1.035,0-1.924-0.733-2.121-1.749l-10.838-55.804
					C4351.081,808.713,4353.064,806.308,4355.701,806.308z"/>
			</g>
		</g>
		<g>
			<g>
				<path fill="#00EFE3" d="M4366.693,806.308h-12.789c-2.988,0-5.67,1.83-6.76,4.612l-18.282,46.661
					c-2.123,5.417,1.872,11.273,7.69,11.273l0,0c3.398,0,6.45-2.082,7.69-5.246L4366.693,806.308z"/>
			</g>
			<g>
				<path fill="#00EFE3" d="M4404.544,806.308h-12.626c-3.068,0-5.805,1.928-6.837,4.817l-20.63,57.729h12.626
					c3.068,0,5.805-1.928,6.837-4.817L4404.544,806.308z"/>
			</g>
			<g>
				<path fill="#00EFE3" d="M4362.014,865.004c0,0,0.26,1.269,0.93,2.038s1.276,0.591,1.506,0.422
					c0.229-0.169,0.717-0.616,1.291-2.221s0.952,2.329,0.952,2.329l-1.787,1.282c0,0-1.068,0.131-1.783-0.534
					c-0.275-0.214-0.604-0.719-0.7-1.215C4362.326,866.61,4362.014,865.004,4362.014,865.004z"/>
			</g>
			<g>
				<path fill="#00EFE3" d="M4406.989,810.169c0,0-0.26-1.269-0.931-2.038s-1.276-0.591-1.506-0.422
					c-0.229,0.168-0.717,0.616-1.291,2.221s-0.952-2.329-0.952-2.329l1.788-1.282c0,0,1.031-0.167,1.783,0.534
					c0.275,0.214,0.604,0.719,0.701,1.215C4406.677,808.564,4406.989,810.169,4406.989,810.169z"/>
			</g>
			<g>
				<path fill="#00EFE3" d="M4369.104,810.16c0,0-0.375-1.269-1.046-2.038c-0.67-0.77-1.277-0.591-1.506-0.422
					c-0.229,0.168-0.717,0.616-1.291,2.221c-0.574,1.606-0.952-2.329-0.952-2.329l1.787-1.282c0,0,1.158-0.167,1.91,0.534
					c0.275,0.214,0.593,0.719,0.689,1.215C4368.792,808.555,4369.104,810.16,4369.104,810.16z"/>
			</g>
		</g>
	</g>
</g>
<text transform="matrix(1 0 0 1 4505.7104 862.5763)" fill="#00BFBA" font-family="'Odin-Bold'" font-size="69.2465px">MC ALLISTER ASESORES</text>
<g>
	<text transform="matrix(1 0 0 1 4320.6572 503.1322)" fill="#D8D9DD" font-family="'Odin-Bold'" font-size="58.9549px">MC ALLISTER ASESORES</text>
</g>
<g>
	<text transform="matrix(1 0 0 1 4320.6572 555.1301)" fill="#AEADB3" font-family="'Odin-Bold'" font-size="58.9549px">MC ALLISTER ASESORES</text>
</g>
<g>
	<text transform="matrix(1 0 0 1 4757.7622 1096.5363)"><tspan x="0" y="0" fill="#5B5B5F" font-family="'Odin-Bold'" font-size="58.9549px">MC ALLISTER</tspan><tspan x="0" y="61" fill="#5B5B5F" font-family="'Odin-Bold'" font-size="58.9549px">ASESORES</tspan></text>
</g>
<g>
	<text transform="matrix(1 0 0 1 4710.604 1417.2291)"><tspan x="0" y="0" fill="#5B5B5F" font-family="'Odin-Bold'" font-size="58.9549px">MC</tspan><tspan x="0" y="61" fill="#5B5B5F" font-family="'Odin-Bold'" font-size="58.9549px">ALLISTER</tspan><tspan x="0" y="122" fill="#5B5B5F" font-family="'Odin-Bold'" font-size="58.9549px">ASESORES</tspan></text>
</g>
<g>
	<g>
		<path fill="#00BFBA" d="M5319.894,748.634c-44.415,0-80.55-36.134-80.55-80.549c0-44.415,36.135-80.55,80.55-80.55
			c39.947,0,73.414,28.601,79.578,68.008c0.475,3.034-1.601,5.879-4.635,6.354c-3.038,0.476-5.879-1.6-6.354-4.635
			c-5.312-33.958-34.158-58.605-68.59-58.605c-38.283,0-69.428,31.145-69.428,69.428c0,38.282,31.145,69.427,69.428,69.427
			c33.933,0,62.711-24.232,68.428-57.618c0.519-3.026,3.393-5.056,6.42-4.542c3.027,0.518,5.061,3.393,4.542,6.42
			C5392.65,720.514,5359.261,748.634,5319.894,748.634z"/>
	</g>
	<g>
		<g>
			<g>
				<path fill="#00BFBA" d="M5337.675,635.225h10.633c1.035,0,1.924,0.733,2.121,1.749l9.794,50.429
					c1.044,5.375-3.073,10.369-8.548,10.369l0,0c-4.169,0-7.753-2.955-8.548-7.048l-9.764-50.269
					C5332.836,637.744,5334.913,635.225,5337.675,635.225z"/>
			</g>
			<g>
				<path fill="#00BFBA" d="M5299.559,635.225h10.874c1.034,0,1.924,0.733,2.121,1.749l10.458,53.849
					c0.7,3.602-2.059,6.949-5.729,6.949h-8.882c-1.034,0-1.924-0.733-2.121-1.749l-10.838-55.804
					C5294.938,637.63,5296.921,635.225,5299.559,635.225z"/>
			</g>
		</g>
		<g>
			<g>
				<path fill="#00EFE3" d="M5310.551,635.225h-12.789c-2.988,0-5.67,1.83-6.761,4.612l-18.282,46.661
					c-2.123,5.417,1.872,11.273,7.69,11.273l0,0c3.399,0,6.451-2.082,7.69-5.246L5310.551,635.225z"/>
			</g>
			<g>
				<path fill="#00EFE3" d="M5348.402,635.225h-12.626c-3.068,0-5.805,1.928-6.837,4.817l-20.63,57.729h12.626
					c3.068,0,5.805-1.928,6.837-4.817L5348.402,635.225z"/>
			</g>
			<g>
				<path fill="#00EFE3" d="M5305.872,693.921c0,0,0.26,1.269,0.931,2.038c0.67,0.77,1.276,0.591,1.506,0.422
					c0.229-0.168,0.717-0.616,1.291-2.221s0.952,2.329,0.952,2.329l-1.788,1.282c0,0-1.068,0.131-1.783-0.534
					c-0.275-0.214-0.604-0.719-0.7-1.215C5306.184,695.526,5305.872,693.921,5305.872,693.921z"/>
			</g>
			<g>
				<path fill="#00EFE3" d="M5350.847,639.086c0,0-0.26-1.269-0.93-2.038c-0.67-0.77-1.277-0.591-1.506-0.422
					c-0.229,0.169-0.717,0.616-1.291,2.221c-0.574,1.606-0.952-2.329-0.952-2.329l1.788-1.282c0,0,1.031-0.167,1.783,0.534
					c0.275,0.214,0.604,0.719,0.7,1.215C5350.535,637.481,5350.847,639.086,5350.847,639.086z"/>
			</g>
			<g>
				<path fill="#00EFE3" d="M5312.961,639.077c0,0-0.375-1.269-1.046-2.038c-0.67-0.77-1.276-0.591-1.506-0.422
					c-0.229,0.168-0.717,0.616-1.291,2.221s-0.952-2.329-0.952-2.329l1.788-1.282c0,0,1.157-0.167,1.909,0.534
					c0.275,0.214,0.593,0.719,0.69,1.215C5312.649,637.471,5312.961,639.077,5312.961,639.077z"/>
			</g>
		</g>
	</g>
</g>
<g>
	<g>
		<path fill="#00BFBA" d="M3247.48,1558.877c-56.957,0-103.296-46.338-103.296-103.295c0-56.957,46.339-103.296,103.296-103.296
			c51.227,0,94.145,36.678,102.05,87.212c0.609,3.891-2.052,7.539-5.943,8.148c-3.896,0.611-7.54-2.052-8.148-5.943
			c-6.812-43.547-43.804-75.154-87.958-75.154c-49.094,0-89.034,39.94-89.034,89.034c0,49.093,39.94,89.033,89.034,89.033
			c43.515,0,80.419-31.075,87.751-73.888c0.665-3.881,4.351-6.484,8.232-5.825c3.882,0.665,6.49,4.351,5.825,8.233
			C3340.781,1522.817,3297.964,1558.877,3247.48,1558.877z"/>
	</g>
	<g>
		<g>
			<g>
				<path fill="#00BFBA" d="M3270.282,1413.444h13.635c1.327,0,2.467,0.94,2.72,2.243l12.56,64.669
					c1.339,6.893-3.941,13.297-10.962,13.297l0,0c-5.347,0-9.943-3.79-10.963-9.038l-12.52-64.464
					C3264.077,1416.673,3266.74,1413.444,3270.282,1413.444z"/>
			</g>
			<g>
				<path fill="#00BFBA" d="M3221.402,1413.444h13.944c1.327,0,2.467,0.94,2.72,2.243l13.412,69.055
					c0.897,4.62-2.641,8.911-7.347,8.911h-11.39c-1.327,0-2.467-0.94-2.72-2.243l-13.899-71.562
					C3215.478,1416.528,3218.021,1413.444,3221.402,1413.444z"/>
			</g>
		</g>
		<g>
			<g>
				<path fill="#00EFE3" d="M3235.499,1413.444h-16.4c-3.832,0-7.272,2.347-8.67,5.914l-23.445,59.838
					c-2.722,6.947,2.401,14.456,9.862,14.456l0,0c4.358,0,8.272-2.67,9.862-6.728L3235.499,1413.444z"/>
			</g>
			<g>
				<path fill="#00EFE3" d="M3284.039,1413.444h-16.192c-3.934,0-7.444,2.473-8.768,6.178l-26.456,74.031h16.191
					c3.935,0,7.444-2.473,8.768-6.178L3284.039,1413.444z"/>
			</g>
			<g>
				<path fill="#00EFE3" d="M3229.498,1488.714c0,0,0.333,1.627,1.193,2.614c0.859,0.987,1.637,0.758,1.932,0.541
					c0.294-0.216,0.919-0.79,1.655-2.849s1.22,2.987,1.22,2.987l-2.292,1.644c0,0-1.369,0.168-2.287-0.685
					c-0.353-0.274-0.774-0.922-0.898-1.558S3229.498,1488.714,3229.498,1488.714z"/>
			</g>
			<g>
				<path fill="#00EFE3" d="M3287.174,1418.395c0,0-0.333-1.627-1.193-2.614c-0.86-0.987-1.637-0.758-1.932-0.541
					c-0.294,0.216-0.919,0.79-1.655,2.849c-0.736,2.059-1.22-2.987-1.22-2.987l2.292-1.644c0,0,1.322-0.214,2.287,0.685
					c0.353,0.274,0.774,0.922,0.898,1.558S3287.174,1418.395,3287.174,1418.395z"/>
			</g>
			<g>
				<path fill="#00EFE3" d="M3238.59,1418.383c0,0-0.481-1.627-1.341-2.614c-0.86-0.987-1.637-0.758-1.932-0.541
					c-0.294,0.216-0.919,0.79-1.655,2.849s-1.22-2.987-1.22-2.987l2.292-1.644c0,0,1.484-0.214,2.449,0.685
					c0.353,0.274,0.761,0.922,0.885,1.558C3238.19,1416.324,3238.59,1418.383,3238.59,1418.383z"/>
			</g>
		</g>
	</g>
</g>
<g>
	<g>
		<path fill="#00BFBA" d="M3265.616,1204.036c-54.654,0-99.119-44.464-99.119-99.118c0-54.654,44.465-99.119,99.119-99.119
			c49.155,0,90.337,35.195,97.923,83.686c0.584,3.734-1.969,7.234-5.703,7.818c-3.739,0.586-7.235-1.969-7.819-5.703
			c-6.536-41.786-42.033-72.115-84.401-72.115c-47.109,0-85.434,38.325-85.434,85.433c0,47.108,38.325,85.432,85.434,85.432
			c41.755,0,77.167-29.818,84.203-70.9c0.638-3.724,4.175-6.221,7.9-5.589c3.725,0.638,6.227,4.175,5.589,7.9
			C3355.144,1169.434,3314.058,1204.036,3265.616,1204.036z"/>
	</g>
	<g>
		<g>
			<g>
				<path fill="#00BFBA" d="M3287.495,1064.483h13.084c1.273,0,2.367,0.902,2.61,2.152l12.052,62.054
					c1.285,6.614-3.781,12.759-10.519,12.759l0,0c-5.13,0-9.541-3.636-10.519-8.673l-12.014-61.857
					C3281.542,1067.583,3284.097,1064.483,3287.495,1064.483z"/>
			</g>
			<g>
				<path fill="#00BFBA" d="M3240.592,1064.483h13.38c1.273,0,2.367,0.902,2.61,2.152l12.87,66.262
					c0.861,4.433-2.534,8.551-7.05,8.551h-10.929c-1.273,0-2.367-0.902-2.61-2.152l-13.337-68.668
					C3234.907,1067.443,3237.347,1064.483,3240.592,1064.483z"/>
			</g>
		</g>
		<g>
			<g>
				<path fill="#00EFE3" d="M3254.118,1064.483h-15.736c-3.677,0-6.978,2.252-8.319,5.675l-22.497,57.418
					c-2.612,6.666,2.303,13.871,9.463,13.871l0,0c4.182,0,7.938-2.562,9.463-6.456L3254.118,1064.483z"/>
			</g>
			<g>
				<path fill="#00EFE3" d="M3300.696,1064.483h-15.537c-3.775,0-7.143,2.373-8.414,5.928l-25.386,71.037h15.537
					c3.775,0,7.143-2.373,8.414-5.928L3300.696,1064.483z"/>
			</g>
			<g>
				<path fill="#00EFE3" d="M3248.361,1136.71c0,0,0.32,1.561,1.145,2.508c0.825,0.947,1.571,0.727,1.854,0.519
					c0.282-0.207,0.882-0.758,1.588-2.733s1.171,2.866,1.171,2.866l-2.199,1.578c0,0-1.314,0.161-2.194-0.657
					c-0.339-0.263-0.743-0.885-0.862-1.495C3248.744,1138.686,3248.361,1136.71,3248.361,1136.71z"/>
			</g>
			<g>
				<path fill="#00EFE3" d="M3303.704,1069.234c0,0-0.32-1.561-1.145-2.508s-1.571-0.727-1.854-0.519
					c-0.282,0.207-0.882,0.758-1.588,2.733s-1.171-2.866-1.171-2.866l2.199-1.578c0,0,1.269-0.205,2.194,0.657
					c0.339,0.263,0.743,0.885,0.862,1.495C3303.32,1067.259,3303.704,1069.234,3303.704,1069.234z"/>
			</g>
			<g>
				<path fill="#00EFE3" d="M3257.084,1069.223c0,0-0.462-1.561-1.287-2.508c-0.825-0.947-1.571-0.727-1.854-0.519
					c-0.282,0.207-0.882,0.758-1.588,2.733s-1.171-2.866-1.171-2.866l2.199-1.578c0,0,1.424-0.205,2.35,0.657
					c0.339,0.263,0.73,0.885,0.849,1.495C3256.701,1067.247,3257.084,1069.223,3257.084,1069.223z"/>
			</g>
		</g>
	</g>
</g>
<g>
	<g>
		<path fill="#00BFBA" d="M4001.538,723.094c-39.155,0-71.01-31.855-71.01-71.01c0-39.155,31.855-71.01,71.01-71.01
			c35.216,0,64.719,25.214,70.153,59.954c0.419,2.675-1.411,5.183-4.086,5.601c-2.678,0.42-5.183-1.411-5.601-4.086
			c-4.683-29.936-30.113-51.664-60.466-51.664c-33.749,0-61.206,27.457-61.206,61.206c0,33.749,27.457,61.205,61.206,61.205
			c29.914,0,55.284-21.362,60.324-50.794c0.457-2.668,2.991-4.457,5.659-4.004c2.668,0.457,4.461,2.991,4.004,5.659
			C4065.677,698.305,4036.242,723.094,4001.538,723.094z"/>
	</g>
	<g>
		<g>
			<g>
				<path fill="#00BFBA" d="M4017.212,623.117h9.374c0.912,0,1.696,0.646,1.87,1.542l8.635,44.457
					c0.92,4.739-2.709,9.141-7.536,9.141h0c-3.675,0-6.835-2.605-7.536-6.213l-8.607-44.315
					C4012.947,625.337,4014.778,623.117,4017.212,623.117z"/>
			</g>
			<g>
				<path fill="#00BFBA" d="M3983.61,623.117h9.586c0.912,0,1.696,0.646,1.87,1.542l9.22,47.471
					c0.617,3.176-1.815,6.126-5.051,6.126h-7.83c-0.912,0-1.696-0.646-1.87-1.542l-9.555-49.195
					C3979.538,625.237,3981.285,623.117,3983.61,623.117z"/>
			</g>
		</g>
		<g>
			<g>
				<path fill="#00EFE3" d="M3993.301,623.117h-11.274c-2.634,0-4.999,1.613-5.96,4.066l-16.117,41.135
					c-1.871,4.776,1.65,9.938,6.78,9.938h0c2.996,0,5.687-1.835,6.78-4.625L3993.301,623.117z"/>
			</g>
			<g>
				<path fill="#00EFE3" d="M4026.669,623.117h-11.131c-2.705,0-5.117,1.7-6.028,4.247l-18.187,50.892h11.131
					c2.705,0,5.117-1.7,6.028-4.247L4026.669,623.117z"/>
			</g>
			<g>
				<path fill="#00EFE3" d="M3989.176,674.861c0,0,0.229,1.118,0.82,1.797s1.125,0.521,1.328,0.372
					c0.202-0.149,0.632-0.543,1.138-1.958s0.839,2.054,0.839,2.054l-1.576,1.13c0,0-0.941,0.115-1.572-0.471
					c-0.243-0.189-0.532-0.634-0.617-1.071S3989.176,674.861,3989.176,674.861z"/>
			</g>
			<g>
				<path fill="#00EFE3" d="M4028.824,626.52c0,0-0.229-1.118-0.82-1.797s-1.125-0.521-1.328-0.372
					c-0.202,0.149-0.632,0.543-1.138,1.958s-0.839-2.054-0.839-2.054l1.576-1.13c0,0,0.909-0.147,1.572,0.471
					c0.243,0.189,0.532,0.634,0.617,1.071C4028.549,625.105,4028.824,626.52,4028.824,626.52z"/>
			</g>
			<g>
				<path fill="#00EFE3" d="M3995.426,626.512c0,0-0.331-1.118-0.922-1.797c-0.591-0.678-1.125-0.521-1.328-0.372
					c-0.202,0.149-0.632,0.543-1.138,1.958s-0.839-2.054-0.839-2.054l1.576-1.13c0,0,1.02-0.147,1.683,0.471
					c0.243,0.189,0.523,0.634,0.608,1.071C3995.151,625.097,3995.426,626.512,3995.426,626.512z"/>
			</g>
		</g>
	</g>
</g>
<g>
	<g>
		<path fill="#00BFBA" d="M3021.584,922.602c-39.155,0-71.01-31.855-71.01-71.01c0-39.155,31.855-71.01,71.01-71.01
			c35.216,0,64.719,25.214,70.154,59.953c0.418,2.675-1.411,5.183-4.086,5.601c-2.678,0.42-5.183-1.411-5.601-4.086
			c-4.683-29.936-30.113-51.664-60.467-51.664c-33.749,0-61.206,27.457-61.206,61.206c0,33.749,27.457,61.205,61.206,61.205
			c29.914,0,55.284-21.362,60.324-50.794c0.457-2.668,2.991-4.457,5.659-4.004c2.669,0.457,4.461,2.991,4.004,5.659
			C3085.723,897.812,3056.289,922.602,3021.584,922.602z"/>
	</g>
	<g>
		<g>
			<g>
				<path fill="#00BFBA" d="M3037.259,822.624h9.374c0.912,0,1.696,0.646,1.87,1.542l8.635,44.457
					c0.92,4.739-2.709,9.141-7.536,9.141l0,0c-3.676,0-6.835-2.605-7.536-6.213l-8.607-44.315
					C3032.994,824.844,3034.824,822.624,3037.259,822.624z"/>
			</g>
			<g>
				<path fill="#00BFBA" d="M3003.657,822.624h9.585c0.912,0,1.696,0.646,1.87,1.542l9.22,47.471
					c0.617,3.176-1.815,6.126-5.051,6.126h-7.83c-0.912,0-1.696-0.646-1.87-1.542l-9.555-49.195
					C2999.584,824.744,3001.332,822.624,3003.657,822.624z"/>
			</g>
		</g>
		<g>
			<g>
				<path fill="#00EFE3" d="M3013.347,822.624h-11.274c-2.634,0-4.999,1.613-5.96,4.066l-16.117,41.135
					c-1.871,4.776,1.65,9.938,6.78,9.938l0,0c2.996,0,5.687-1.835,6.78-4.625L3013.347,822.624z"/>
			</g>
			<g>
				<path fill="#00EFE3" d="M3046.716,822.624h-11.131c-2.705,0-5.118,1.7-6.028,4.247l-18.187,50.892h11.131
					c2.705,0,5.117-1.7,6.028-4.247L3046.716,822.624z"/>
			</g>
			<g>
				<path fill="#00EFE3" d="M3009.222,874.369c0,0,0.229,1.118,0.82,1.797c0.591,0.678,1.125,0.521,1.328,0.372
					c0.202-0.148,0.632-0.543,1.138-1.958c0.506-1.415,0.839,2.053,0.839,2.053l-1.576,1.13c0,0-0.941,0.115-1.572-0.471
					c-0.243-0.189-0.532-0.634-0.617-1.071C3009.497,875.784,3009.222,874.369,3009.222,874.369z"/>
			</g>
			<g>
				<path fill="#00EFE3" d="M3048.871,826.028c0,0-0.229-1.118-0.82-1.797c-0.591-0.678-1.125-0.521-1.328-0.372
					c-0.202,0.148-0.632,0.543-1.138,1.958c-0.506,1.415-0.839-2.053-0.839-2.053l1.576-1.13c0,0,0.909-0.147,1.572,0.471
					c0.243,0.189,0.532,0.634,0.617,1.071C3048.596,824.613,3048.871,826.028,3048.871,826.028z"/>
			</g>
			<g>
				<path fill="#00EFE3" d="M3015.472,826.02c0,0-0.331-1.118-0.922-1.797c-0.591-0.678-1.125-0.521-1.328-0.372
					c-0.202,0.148-0.632,0.543-1.138,1.958c-0.506,1.415-0.839-2.053-0.839-2.053l1.576-1.13c0,0,1.02-0.147,1.683,0.471
					c0.243,0.189,0.523,0.634,0.608,1.071C3015.198,824.604,3015.472,826.02,3015.472,826.02z"/>
			</g>
		</g>
	</g>
</g>
<g>
	<g>
		<path fill="#00BFBA" d="M1743.432,1558.877c-56.957,0-103.296-46.338-103.296-103.295c0-56.957,46.339-103.296,103.296-103.296
			c51.227,0,94.144,36.678,102.05,87.212c0.609,3.891-2.052,7.539-5.943,8.148c-3.896,0.611-7.54-2.052-8.148-5.943
			c-6.812-43.547-43.804-75.154-87.958-75.154c-49.094,0-89.034,39.94-89.034,89.034c0,49.093,39.94,89.033,89.034,89.033
			c43.515,0,80.419-31.075,87.751-73.888c0.665-3.881,4.35-6.484,8.233-5.825c3.882,0.665,6.49,4.351,5.825,8.233
			C1836.733,1522.817,1793.916,1558.877,1743.432,1558.877z"/>
	</g>
	<g>
		<g>
			<g>
				<path fill="#00BFBA" d="M1766.234,1413.444h13.635c1.327,0,2.467,0.94,2.72,2.243l12.56,64.669
					c1.339,6.893-3.941,13.297-10.962,13.297h0c-5.347,0-9.943-3.79-10.962-9.038l-12.52-64.464
					C1760.029,1416.673,1762.692,1413.444,1766.234,1413.444z"/>
			</g>
			<g>
				<path fill="#00BFBA" d="M1717.354,1413.444h13.944c1.327,0,2.467,0.94,2.72,2.243l13.412,69.055
					c0.897,4.62-2.641,8.911-7.347,8.911h-11.39c-1.327,0-2.467-0.94-2.72-2.243l-13.899-71.562
					C1711.429,1416.528,1713.972,1413.444,1717.354,1413.444z"/>
			</g>
		</g>
		<g>
			<g>
				<path fill="#00EFE3" d="M1731.45,1413.444h-16.4c-3.832,0-7.272,2.347-8.67,5.914l-23.445,59.838
					c-2.722,6.947,2.401,14.456,9.862,14.456l0,0c4.359,0,8.272-2.67,9.862-6.728L1731.45,1413.444z"/>
			</g>
			<g>
				<path fill="#00EFE3" d="M1779.99,1413.444h-16.192c-3.934,0-7.444,2.473-8.768,6.178l-26.456,74.031h16.192
					c3.934,0,7.444-2.473,8.768-6.178L1779.99,1413.444z"/>
			</g>
			<g>
				<path fill="#00EFE3" d="M1725.45,1488.714c0,0,0.333,1.627,1.193,2.614c0.859,0.987,1.637,0.758,1.932,0.541
					c0.294-0.216,0.919-0.79,1.655-2.849c0.736-2.059,1.22,2.987,1.22,2.987l-2.292,1.644c0,0-1.369,0.168-2.287-0.685
					c-0.353-0.274-0.774-0.922-0.898-1.558C1725.85,1490.773,1725.45,1488.714,1725.45,1488.714z"/>
			</g>
			<g>
				<path fill="#00EFE3" d="M1783.125,1418.395c0,0-0.333-1.627-1.193-2.614c-0.86-0.987-1.637-0.758-1.932-0.541
					c-0.294,0.216-0.919,0.79-1.655,2.849c-0.736,2.059-1.22-2.987-1.22-2.987l2.292-1.644c0,0,1.322-0.214,2.287,0.685
					c0.353,0.274,0.774,0.922,0.898,1.558C1782.725,1416.336,1783.125,1418.395,1783.125,1418.395z"/>
			</g>
			<g>
				<path fill="#00EFE3" d="M1734.541,1418.383c0,0-0.482-1.627-1.341-2.614c-0.86-0.987-1.637-0.758-1.932-0.541
					c-0.294,0.216-0.919,0.79-1.655,2.849c-0.736,2.059-1.22-2.987-1.22-2.987l2.292-1.644c0,0,1.484-0.214,2.449,0.685
					c0.353,0.274,0.761,0.922,0.884,1.558C1734.142,1416.324,1734.541,1418.383,1734.541,1418.383z"/>
			</g>
		</g>
	</g>
</g>
<g>
	<g>
		<path fill="#00BFBA" d="M1761.567,1204.036c-54.654,0-99.119-44.464-99.119-99.118c0-54.654,44.465-99.119,99.119-99.119
			c49.155,0,90.337,35.195,97.923,83.686c0.584,3.734-1.969,7.234-5.703,7.818c-3.738,0.586-7.235-1.969-7.818-5.703
			c-6.536-41.786-42.033-72.115-84.401-72.115c-47.109,0-85.433,38.325-85.433,85.433c0,47.108,38.325,85.432,85.433,85.432
			c41.755,0,77.167-29.818,84.203-70.9c0.638-3.724,4.175-6.221,7.9-5.589c3.725,0.638,6.227,4.175,5.589,7.9
			C1851.095,1169.434,1810.009,1204.036,1761.567,1204.036z"/>
	</g>
	<g>
		<g>
			<g>
				<path fill="#00BFBA" d="M1783.447,1064.483h13.084c1.273,0,2.367,0.902,2.61,2.152l12.052,62.054
					c1.285,6.614-3.781,12.759-10.519,12.759l0,0c-5.13,0-9.541-3.636-10.519-8.673l-12.014-61.857
					C1777.493,1067.583,1780.048,1064.483,1783.447,1064.483z"/>
			</g>
			<g>
				<path fill="#00BFBA" d="M1736.544,1064.483h13.38c1.273,0,2.367,0.902,2.61,2.152l12.87,66.262
					c0.861,4.433-2.534,8.551-7.05,8.551h-10.929c-1.273,0-2.367-0.902-2.61-2.152l-13.337-68.668
					C1730.859,1067.443,1733.299,1064.483,1736.544,1064.483z"/>
			</g>
		</g>
		<g>
			<g>
				<path fill="#00EFE3" d="M1750.07,1064.483h-15.737c-3.677,0-6.978,2.252-8.319,5.675l-22.497,57.418
					c-2.612,6.666,2.303,13.871,9.463,13.871l0,0c4.182,0,7.938-2.562,9.463-6.456L1750.07,1064.483z"/>
			</g>
			<g>
				<path fill="#00EFE3" d="M1796.647,1064.483h-15.537c-3.775,0-7.143,2.373-8.414,5.928l-25.386,71.037h15.537
					c3.775,0,7.143-2.373,8.414-5.928L1796.647,1064.483z"/>
			</g>
			<g>
				<path fill="#00EFE3" d="M1744.312,1136.71c0,0,0.32,1.561,1.145,2.508c0.825,0.947,1.571,0.727,1.854,0.519
					c0.282-0.207,0.882-0.758,1.588-2.733s1.171,2.866,1.171,2.866l-2.199,1.578c0,0-1.314,0.161-2.194-0.657
					c-0.339-0.263-0.743-0.885-0.862-1.495C1744.696,1138.686,1744.312,1136.71,1744.312,1136.71z"/>
			</g>
			<g>
				<path fill="#00EFE3" d="M1799.655,1069.234c0,0-0.32-1.561-1.145-2.508s-1.571-0.727-1.854-0.519
					c-0.282,0.207-0.882,0.758-1.588,2.733s-1.171-2.866-1.171-2.866l2.199-1.578c0,0,1.269-0.205,2.194,0.657
					c0.339,0.263,0.743,0.885,0.862,1.495C1799.271,1067.259,1799.655,1069.234,1799.655,1069.234z"/>
			</g>
			<g>
				<path fill="#00EFE3" d="M1753.036,1069.223c0,0-0.462-1.561-1.287-2.508c-0.825-0.947-1.571-0.727-1.854-0.519
					c-0.282,0.207-0.882,0.758-1.588,2.733s-1.171-2.866-1.171-2.866l2.199-1.578c0,0,1.424-0.205,2.35,0.657
					c0.339,0.263,0.73,0.885,0.849,1.495C1752.652,1067.247,1753.036,1069.223,1753.036,1069.223z"/>
			</g>
		</g>
	</g>
</g>
<g>
	<g>
		<path fill="#00BFBA" d="M2497.489,723.094c-39.155,0-71.01-31.855-71.01-71.01c0-39.155,31.855-71.01,71.01-71.01
			c35.216,0,64.719,25.214,70.153,59.954c0.419,2.675-1.411,5.183-4.086,5.601c-2.678,0.42-5.183-1.411-5.601-4.086
			c-4.683-29.936-30.113-51.664-60.466-51.664c-33.749,0-61.206,27.457-61.206,61.206c0,33.749,27.457,61.205,61.206,61.205
			c29.914,0,55.284-21.362,60.324-50.794c0.457-2.668,2.991-4.457,5.659-4.004c2.668,0.457,4.461,2.991,4.004,5.659
			C2561.628,698.305,2532.194,723.094,2497.489,723.094z"/>
	</g>
	<g>
		<g>
			<g>
				<path fill="#00BFBA" d="M2513.164,623.117h9.374c0.912,0,1.696,0.646,1.87,1.542l8.634,44.457
					c0.92,4.739-2.709,9.141-7.536,9.141l0,0c-3.676,0-6.835-2.605-7.536-6.213l-8.607-44.315
					C2508.898,625.337,2510.729,623.117,2513.164,623.117z"/>
			</g>
			<g>
				<path fill="#00BFBA" d="M2479.562,623.117h9.586c0.912,0,1.696,0.646,1.87,1.542l9.22,47.471
					c0.617,3.176-1.815,6.126-5.051,6.126h-7.83c-0.912,0-1.696-0.646-1.87-1.542l-9.555-49.195
					C2475.489,625.237,2477.237,623.117,2479.562,623.117z"/>
			</g>
		</g>
		<g>
			<g>
				<path fill="#00EFE3" d="M2489.252,623.117h-11.274c-2.634,0-4.999,1.613-5.96,4.066l-16.117,41.135
					c-1.871,4.776,1.65,9.938,6.78,9.938l0,0c2.996,0,5.687-1.835,6.78-4.625L2489.252,623.117z"/>
			</g>
			<g>
				<path fill="#00EFE3" d="M2522.621,623.117h-11.131c-2.705,0-5.117,1.7-6.028,4.247l-18.187,50.892h11.131
					c2.705,0,5.117-1.7,6.028-4.247L2522.621,623.117z"/>
			</g>
			<g>
				<path fill="#00EFE3" d="M2485.127,674.861c0,0,0.229,1.118,0.82,1.797c0.591,0.678,1.125,0.521,1.328,0.372
					c0.202-0.149,0.632-0.543,1.138-1.958s0.839,2.054,0.839,2.054l-1.576,1.13c0,0-0.941,0.115-1.572-0.471
					c-0.243-0.189-0.532-0.634-0.617-1.071S2485.127,674.861,2485.127,674.861z"/>
			</g>
			<g>
				<path fill="#00EFE3" d="M2524.776,626.52c0,0-0.229-1.118-0.82-1.797s-1.125-0.521-1.328-0.372
					c-0.202,0.149-0.632,0.543-1.138,1.958c-0.506,1.415-0.839-2.054-0.839-2.054l1.576-1.13c0,0,0.909-0.147,1.572,0.471
					c0.243,0.189,0.532,0.634,0.617,1.071C2524.501,625.105,2524.776,626.52,2524.776,626.52z"/>
			</g>
			<g>
				<path fill="#00EFE3" d="M2491.377,626.512c0,0-0.331-1.118-0.922-1.797c-0.591-0.678-1.125-0.521-1.328-0.372
					c-0.202,0.149-0.632,0.543-1.138,1.958s-0.839-2.054-0.839-2.054l1.576-1.13c0,0,1.021-0.147,1.683,0.471
					c0.243,0.189,0.523,0.634,0.608,1.071C2491.102,625.097,2491.377,626.512,2491.377,626.512z"/>
			</g>
		</g>
	</g>
</g>
<g>
	<g>
		<path fill="#00BFBA" d="M1517.536,922.602c-39.155,0-71.01-31.855-71.01-71.01c0-39.155,31.855-71.01,71.01-71.01
			c35.216,0,64.719,25.214,70.153,59.953c0.419,2.675-1.411,5.183-4.086,5.601c-2.678,0.42-5.183-1.411-5.601-4.086
			c-4.683-29.936-30.113-51.664-60.466-51.664c-33.749,0-61.206,27.457-61.206,61.206c0,33.749,27.457,61.205,61.206,61.205
			c29.914,0,55.284-21.362,60.324-50.794c0.457-2.668,2.991-4.457,5.659-4.004c2.669,0.457,4.461,2.991,4.004,5.659
			C1581.675,897.812,1552.24,922.602,1517.536,922.602z"/>
	</g>
	<g>
		<g>
			<g>
				<path fill="#00BFBA" d="M1533.211,822.624h9.374c0.912,0,1.696,0.646,1.87,1.542l8.634,44.457
					c0.92,4.739-2.709,9.141-7.536,9.141l0,0c-3.676,0-6.835-2.605-7.536-6.213l-8.607-44.315
					C1528.945,824.844,1530.776,822.624,1533.211,822.624z"/>
			</g>
			<g>
				<path fill="#00BFBA" d="M1499.609,822.624h9.586c0.912,0,1.696,0.646,1.87,1.542l9.22,47.471
					c0.617,3.176-1.816,6.126-5.051,6.126h-7.83c-0.912,0-1.696-0.646-1.87-1.542l-9.555-49.195
					C1495.536,824.744,1497.284,822.624,1499.609,822.624z"/>
			</g>
		</g>
		<g>
			<g>
				<path fill="#00EFE3" d="M1509.299,822.624h-11.274c-2.634,0-4.999,1.613-5.96,4.066l-16.117,41.135
					c-1.871,4.776,1.65,9.938,6.78,9.938l0,0c2.996,0,5.687-1.835,6.78-4.625L1509.299,822.624z"/>
			</g>
			<g>
				<path fill="#00EFE3" d="M1542.667,822.624h-11.131c-2.705,0-5.117,1.7-6.028,4.247l-18.187,50.892h11.131
					c2.705,0,5.117-1.7,6.028-4.247L1542.667,822.624z"/>
			</g>
			<g>
				<path fill="#00EFE3" d="M1505.174,874.369c0,0,0.229,1.118,0.82,1.797c0.591,0.678,1.125,0.521,1.328,0.372
					c0.202-0.148,0.632-0.543,1.138-1.958c0.506-1.415,0.839,2.053,0.839,2.053l-1.576,1.13c0,0-0.941,0.115-1.572-0.471
					c-0.243-0.189-0.532-0.634-0.617-1.071C1505.449,875.784,1505.174,874.369,1505.174,874.369z"/>
			</g>
			<g>
				<path fill="#00EFE3" d="M1544.823,826.028c0,0-0.229-1.118-0.82-1.797c-0.591-0.678-1.125-0.521-1.328-0.372
					c-0.202,0.148-0.632,0.543-1.138,1.958c-0.506,1.415-0.839-2.053-0.839-2.053l1.576-1.13c0,0,0.909-0.147,1.572,0.471
					c0.243,0.189,0.532,0.634,0.617,1.071C1544.548,824.613,1544.823,826.028,1544.823,826.028z"/>
			</g>
			<g>
				<path fill="#00EFE3" d="M1511.424,826.02c0,0-0.331-1.118-0.922-1.797c-0.591-0.678-1.125-0.521-1.328-0.372
					c-0.202,0.148-0.632,0.543-1.138,1.958c-0.506,1.415-0.839-2.053-0.839-2.053l1.576-1.13c0,0,1.021-0.147,1.683,0.471
					c0.243,0.189,0.523,0.634,0.608,1.071C1511.149,824.604,1511.424,826.02,1511.424,826.02z"/>
			</g>
		</g>
	</g>
</g>
<g>
	<text transform="matrix(1 0 0 1 -221.6179 542.7487)"><tspan x="0" y="0" fill="#5B5B5F" font-family="'Montserrat-Bold'" font-size="58.9549px">MC ALLISTER</tspan><tspan x="0" y="59" fill="#5B5B5F" font-family="'Montserrat-Bold'" font-size="58.9549px">ASESORES</tspan></text>
	<g>
		<g>
			<path fill="#00BFBA" d="M-383.585,654.249c-54.654,0-99.119-44.464-99.119-99.118s44.465-99.119,99.119-99.119
				c49.155,0,90.337,35.195,97.923,83.685c0.584,3.734-1.969,7.234-5.703,7.818c-3.738,0.586-7.235-1.969-7.818-5.703
				c-6.536-41.786-42.033-72.115-84.401-72.115c-47.109,0-85.433,38.325-85.433,85.433c0,47.108,38.325,85.432,85.433,85.432
				c41.755,0,77.167-29.818,84.203-70.9c0.638-3.724,4.175-6.221,7.9-5.589c3.725,0.638,6.227,4.175,5.589,7.9
				C-294.057,619.647-335.143,654.249-383.585,654.249z"/>
		</g>
		<g>
			<g>
				<g>
					<path fill="#00BFBA" d="M-361.706,514.696h13.084c1.273,0,2.367,0.902,2.61,2.152l12.052,62.054
						c1.285,6.614-3.781,12.759-10.519,12.759l0,0c-5.13,0-9.541-3.636-10.519-8.673l-12.014-61.857
						C-367.659,517.796-365.104,514.696-361.706,514.696z"/>
				</g>
				<g>
					<path fill="#00BFBA" d="M-408.609,514.696h13.38c1.273,0,2.367,0.902,2.61,2.152l12.87,66.262
						c0.861,4.433-2.534,8.551-7.05,8.551h-10.929c-1.273,0-2.367-0.902-2.61-2.152l-13.337-68.668
						C-414.294,517.656-411.854,514.696-408.609,514.696z"/>
				</g>
			</g>
			<g>
				<g>
					<path fill="#00EFE3" d="M-395.083,514.696h-15.737c-3.677,0-6.978,2.252-8.319,5.675l-22.497,57.418
						c-2.612,6.666,2.304,13.871,9.463,13.871h0c4.182,0,7.938-2.562,9.463-6.456L-395.083,514.696z"/>
				</g>
				<g>
					<path fill="#00EFE3" d="M-348.505,514.696h-15.537c-3.775,0-7.143,2.373-8.414,5.928l-25.386,71.037h15.537
						c3.775,0,7.143-2.373,8.414-5.928L-348.505,514.696z"/>
				</g>
				<g>
					<path fill="#00EFE3" d="M-400.84,586.923c0,0,0.32,1.561,1.145,2.508c0.825,0.947,1.571,0.727,1.854,0.519
						c0.282-0.207,0.882-0.758,1.588-2.733c0.706-1.976,1.171,2.866,1.171,2.866l-2.199,1.578c0,0-1.314,0.161-2.194-0.657
						c-0.339-0.263-0.743-0.885-0.862-1.495C-400.457,588.899-400.84,586.923-400.84,586.923z"/>
				</g>
				<g>
					<path fill="#00EFE3" d="M-345.497,519.447c0,0-0.32-1.561-1.145-2.508c-0.825-0.947-1.571-0.727-1.854-0.519
						c-0.282,0.207-0.882,0.758-1.588,2.733c-0.706,1.976-1.171-2.866-1.171-2.866l2.199-1.578c0,0,1.269-0.205,2.194,0.657
						c0.339,0.263,0.743,0.885,0.862,1.495C-345.881,517.472-345.497,519.447-345.497,519.447z"/>
				</g>
				<g>
					<path fill="#00EFE3" d="M-392.117,519.436c0,0-0.462-1.561-1.287-2.508c-0.825-0.947-1.571-0.727-1.854-0.519
						c-0.282,0.207-0.882,0.758-1.588,2.733c-0.706,1.976-1.171-2.866-1.171-2.866l2.199-1.578c0,0,1.424-0.205,2.35,0.657
						c0.339,0.263,0.73,0.884,0.849,1.495C-392.5,517.46-392.117,519.436-392.117,519.436z"/>
				</g>
			</g>
		</g>
	</g>
	<rect x="-244.916" y="474.02" fill="#5B5B5F" width="1.579" height="155.421"/>
</g>
<g>
	<text transform="matrix(1 0 0 1 633.6644 542.7487)"><tspan x="0" y="0" fill="#00BFBA" font-family="'Montserrat-Bold'" font-size="58.9549px">MC ALLISTER</tspan><tspan x="0" y="59" fill="#00BFBA" font-family="'Montserrat-Bold'" font-size="58.9549px">ASESORES</tspan></text>
	<g>
		<g>
			<path fill="#00BFBA" d="M471.697,654.249c-54.654,0-99.119-44.464-99.119-99.118s44.465-99.119,99.119-99.119
				c49.155,0,90.337,35.195,97.923,83.685c0.584,3.734-1.969,7.234-5.703,7.818c-3.738,0.586-7.235-1.969-7.818-5.703
				c-6.536-41.786-42.033-72.115-84.401-72.115c-47.109,0-85.433,38.325-85.433,85.433c0,47.108,38.325,85.432,85.433,85.432
				c41.755,0,77.167-29.818,84.203-70.9c0.638-3.724,4.175-6.221,7.9-5.589c3.725,0.638,6.227,4.175,5.589,7.9
				C561.225,619.647,520.139,654.249,471.697,654.249z"/>
		</g>
		<g>
			<g>
				<g>
					<path fill="#00BFBA" d="M493.577,514.696h13.084c1.273,0,2.367,0.902,2.61,2.152l12.052,62.054
						c1.285,6.614-3.781,12.759-10.519,12.759l0,0c-5.13,0-9.541-3.636-10.519-8.673l-12.014-61.857
						C487.623,517.796,490.178,514.696,493.577,514.696z"/>
				</g>
				<g>
					<path fill="#00BFBA" d="M446.674,514.696h13.38c1.273,0,2.367,0.902,2.61,2.152l12.87,66.262
						c0.861,4.433-2.534,8.551-7.05,8.551h-10.929c-1.273,0-2.367-0.902-2.61-2.152l-13.337-68.668
						C440.989,517.656,443.429,514.696,446.674,514.696z"/>
				</g>
			</g>
			<g>
				<g>
					<path fill="#00EFE3" d="M460.2,514.696h-15.737c-3.677,0-6.978,2.252-8.319,5.675l-22.497,57.418
						c-2.612,6.666,2.304,13.871,9.463,13.871h0c4.182,0,7.938-2.562,9.463-6.456L460.2,514.696z"/>
				</g>
				<g>
					<path fill="#00EFE3" d="M506.777,514.696h-15.537c-3.775,0-7.143,2.373-8.414,5.928l-25.386,71.037h15.537
						c3.775,0,7.143-2.373,8.414-5.928L506.777,514.696z"/>
				</g>
				<g>
					<path fill="#00EFE3" d="M454.442,586.923c0,0,0.32,1.561,1.145,2.508c0.825,0.947,1.571,0.727,1.854,0.519
						c0.282-0.207,0.882-0.758,1.588-2.733s1.171,2.866,1.171,2.866L458,591.661c0,0-1.314,0.161-2.194-0.657
						c-0.339-0.263-0.743-0.885-0.862-1.495C454.826,588.899,454.442,586.923,454.442,586.923z"/>
				</g>
				<g>
					<path fill="#00EFE3" d="M509.785,519.447c0,0-0.32-1.561-1.145-2.508s-1.571-0.727-1.854-0.519
						c-0.282,0.207-0.882,0.758-1.588,2.733s-1.171-2.866-1.171-2.866l2.199-1.578c0,0,1.269-0.205,2.194,0.657
						c0.339,0.263,0.743,0.885,0.862,1.495C509.402,517.472,509.785,519.447,509.785,519.447z"/>
				</g>
				<g>
					<path fill="#00EFE3" d="M463.166,519.436c0,0-0.462-1.561-1.287-2.508c-0.825-0.947-1.571-0.727-1.854-0.519
						c-0.282,0.207-0.882,0.758-1.588,2.733c-0.706,1.976-1.171-2.866-1.171-2.866l2.199-1.578c0,0,1.424-0.205,2.35,0.657
						c0.339,0.263,0.73,0.884,0.849,1.495C462.783,517.46,463.166,519.436,463.166,519.436z"/>
				</g>
			</g>
		</g>
	</g>
	<rect x="610.366" y="474.02" fill="#5B5B5F" width="1.579" height="155.421"/>
</g>
<g>
	<text transform="matrix(1 0 0 1 -221.6179 897.2395)"><tspan x="0" y="0" fill="#5B5B5F" font-family="'Montserrat-Bold'" font-size="58.9549px">MC ALLISTER</tspan><tspan x="0" y="59" fill="#5B5B5F" font-family="'Montserrat-ExtraLight'" font-size="58.9549px" letter-spacing="11">ASESORES</tspan><tspan x="406.963" y="59" fill="#5B5B5F" font-family="'Montserrat-Bold'" font-size="58.9549px" letter-spacing="117">	</tspan></text>
	<g>
		<g>
			<path fill="#00BFBA" d="M-383.585,1008.74c-54.654,0-99.119-44.464-99.119-99.118c0-54.654,44.465-99.119,99.119-99.119
				c49.155,0,90.337,35.195,97.923,83.685c0.584,3.734-1.969,7.234-5.703,7.818c-3.738,0.586-7.235-1.969-7.818-5.703
				c-6.536-41.786-42.033-72.115-84.401-72.115c-47.109,0-85.433,38.325-85.433,85.433c0,47.108,38.325,85.432,85.433,85.432
				c41.755,0,77.167-29.818,84.203-70.9c0.638-3.724,4.175-6.221,7.9-5.589c3.725,0.638,6.227,4.175,5.589,7.9
				C-294.057,974.138-335.143,1008.74-383.585,1008.74z"/>
		</g>
		<g>
			<g>
				<g>
					<path fill="#00BFBA" d="M-361.706,869.187h13.084c1.273,0,2.367,0.902,2.61,2.152l12.052,62.054
						c1.285,6.614-3.781,12.759-10.519,12.759l0,0c-5.13,0-9.541-3.636-10.519-8.673l-12.014-61.857
						C-367.659,872.286-365.104,869.187-361.706,869.187z"/>
				</g>
				<g>
					<path fill="#00BFBA" d="M-408.609,869.187h13.38c1.273,0,2.367,0.902,2.61,2.152l12.87,66.262
						c0.861,4.433-2.534,8.551-7.05,8.551h-10.929c-1.273,0-2.367-0.902-2.61-2.152l-13.337-68.668
						C-414.294,872.147-411.854,869.187-408.609,869.187z"/>
				</g>
			</g>
			<g>
				<g>
					<path fill="#00EFE3" d="M-395.083,869.187h-15.737c-3.677,0-6.978,2.252-8.319,5.675l-22.497,57.418
						c-2.612,6.666,2.304,13.871,9.463,13.871h0c4.182,0,7.938-2.562,9.463-6.456L-395.083,869.187z"/>
				</g>
				<g>
					<path fill="#00EFE3" d="M-348.505,869.187h-15.537c-3.775,0-7.143,2.373-8.414,5.928l-25.386,71.037h15.537
						c3.775,0,7.143-2.373,8.414-5.928L-348.505,869.187z"/>
				</g>
				<g>
					<path fill="#00EFE3" d="M-400.84,941.414c0,0,0.32,1.561,1.145,2.508c0.825,0.947,1.571,0.727,1.854,0.519
						c0.282-0.207,0.882-0.758,1.588-2.733c0.706-1.976,1.171,2.866,1.171,2.866l-2.199,1.578c0,0-1.314,0.161-2.194-0.657
						c-0.339-0.263-0.743-0.885-0.862-1.495C-400.457,943.39-400.84,941.414-400.84,941.414z"/>
				</g>
				<g>
					<path fill="#00EFE3" d="M-345.497,873.938c0,0-0.32-1.561-1.145-2.508c-0.825-0.947-1.571-0.727-1.854-0.519
						c-0.282,0.207-0.882,0.758-1.588,2.733c-0.706,1.976-1.171-2.866-1.171-2.866l2.199-1.578c0,0,1.269-0.205,2.194,0.657
						c0.339,0.263,0.743,0.885,0.862,1.495C-345.881,871.963-345.497,873.938-345.497,873.938z"/>
				</g>
				<g>
					<path fill="#00EFE3" d="M-392.117,873.927c0,0-0.462-1.561-1.287-2.508c-0.825-0.947-1.571-0.727-1.854-0.519
						c-0.282,0.207-0.882,0.758-1.588,2.733c-0.706,1.976-1.171-2.866-1.171-2.866l2.199-1.578c0,0,1.424-0.205,2.35,0.657
						c0.339,0.263,0.73,0.885,0.849,1.495C-392.5,871.951-392.117,873.927-392.117,873.927z"/>
				</g>
			</g>
		</g>
	</g>
	<rect x="-244.916" y="828.511" fill="#5B5B5F" width="1.579" height="155.421"/>
</g>
<g>
	<text transform="matrix(1 0 0 1 633.6644 897.2395)"><tspan x="0" y="0" fill="#00BFBA" font-family="'Montserrat-Bold'" font-size="58.9549px">MC ALLISTER</tspan><tspan x="0" y="59" fill="#00BFBA" font-family="'Montserrat-ExtraLight'" font-size="58.9549px" letter-spacing="11">ASESORES</tspan><tspan x="406.491" y="59" fill="#00BFBA" font-family="'Montserrat-Bold'" font-size="58.9549px" letter-spacing="117">	</tspan></text>
	<g>
		<g>
			<path fill="#00BFBA" d="M471.697,1008.74c-54.654,0-99.119-44.464-99.119-99.118c0-54.654,44.465-99.119,99.119-99.119
				c49.155,0,90.337,35.195,97.923,83.685c0.584,3.734-1.969,7.234-5.703,7.818c-3.738,0.586-7.235-1.969-7.818-5.703
				c-6.536-41.786-42.033-72.115-84.401-72.115c-47.109,0-85.433,38.325-85.433,85.433c0,47.108,38.325,85.432,85.433,85.432
				c41.755,0,77.167-29.818,84.203-70.9c0.638-3.724,4.175-6.221,7.9-5.589c3.725,0.638,6.227,4.175,5.589,7.9
				C561.225,974.138,520.139,1008.74,471.697,1008.74z"/>
		</g>
		<g>
			<g>
				<g>
					<path fill="#00BFBA" d="M493.577,869.187h13.084c1.273,0,2.367,0.902,2.61,2.152l12.052,62.054
						c1.285,6.614-3.781,12.759-10.519,12.759l0,0c-5.13,0-9.541-3.636-10.519-8.673l-12.014-61.857
						C487.623,872.286,490.178,869.187,493.577,869.187z"/>
				</g>
				<g>
					<path fill="#00BFBA" d="M446.674,869.187h13.38c1.273,0,2.367,0.902,2.61,2.152l12.87,66.262
						c0.861,4.433-2.534,8.551-7.05,8.551h-10.929c-1.273,0-2.367-0.902-2.61-2.152l-13.337-68.668
						C440.989,872.147,443.429,869.187,446.674,869.187z"/>
				</g>
			</g>
			<g>
				<g>
					<path fill="#00EFE3" d="M460.2,869.187h-15.737c-3.677,0-6.978,2.252-8.319,5.675l-22.497,57.418
						c-2.612,6.666,2.304,13.871,9.463,13.871h0c4.182,0,7.938-2.562,9.463-6.456L460.2,869.187z"/>
				</g>
				<g>
					<path fill="#00EFE3" d="M506.777,869.187h-15.537c-3.775,0-7.143,2.373-8.414,5.928l-25.386,71.037h15.537
						c3.775,0,7.143-2.373,8.414-5.928L506.777,869.187z"/>
				</g>
				<g>
					<path fill="#00EFE3" d="M454.442,941.414c0,0,0.32,1.561,1.145,2.508c0.825,0.947,1.571,0.727,1.854,0.519
						c0.282-0.207,0.882-0.758,1.588-2.733s1.171,2.866,1.171,2.866L458,946.152c0,0-1.314,0.161-2.194-0.657
						c-0.339-0.263-0.743-0.885-0.862-1.495C454.826,943.39,454.442,941.414,454.442,941.414z"/>
				</g>
				<g>
					<path fill="#00EFE3" d="M509.785,873.938c0,0-0.32-1.561-1.145-2.508c-0.825-0.947-1.571-0.727-1.854-0.519
						c-0.282,0.207-0.882,0.758-1.588,2.733c-0.706,1.976-1.171-2.866-1.171-2.866l2.199-1.578c0,0,1.269-0.205,2.194,0.657
						c0.339,0.263,0.743,0.885,0.862,1.495C509.402,871.963,509.785,873.938,509.785,873.938z"/>
				</g>
				<g>
					<path fill="#00EFE3" d="M463.166,873.927c0,0-0.462-1.561-1.287-2.508c-0.825-0.947-1.571-0.727-1.854-0.519
						c-0.282,0.207-0.882,0.758-1.588,2.733c-0.706,1.976-1.171-2.866-1.171-2.866l2.199-1.578c0,0,1.424-0.205,2.35,0.657
						c0.339,0.263,0.73,0.885,0.849,1.495C462.783,871.951,463.166,873.927,463.166,873.927z"/>
				</g>
			</g>
		</g>
	</g>
	<rect x="610.366" y="828.511" fill="#5B5B5F" width="1.579" height="155.421"/>
</g>
<g>
	<g>
		<path fill="#00BFBA" d="M124.098,20.383l4.916,10.828l4.916-10.828h5.286v18.558h-4.281l-0.026-11.754l-4.308,9.901h-3.171
			l-4.308-9.901v11.754h-4.308V20.383H124.098z"/>
		<path fill="#00BFBA" d="M151.605,24.354c-2.854,0-5.021,2.25-5.021,5.216c0,2.991,2.167,5.268,5.021,5.268
			c1.533,0,3.304-0.847,4.599-2.171l2.828,3.044c-1.982,2.092-4.942,3.442-7.69,3.442c-5.576,0-9.726-4.077-9.726-9.531
			c0-5.348,4.255-9.372,9.911-9.372c2.749,0,5.629,1.218,7.479,3.177l-2.801,3.362C154.988,25.307,153.217,24.354,151.605,24.354z"
			/>
		<path fill="#00BFBA" d="M181.357,35.658h-8.008l-1.295,3.283h-4.969l7.955-18.558h4.969l7.77,18.558h-5.153L181.357,35.658z
			 M179.93,31.952l-2.537-6.618l-2.59,6.618H179.93z"/>
		<path fill="#00BFBA" d="M194.276,20.383v14.428h7.85v4.13H189.44V20.383H194.276z"/>
		<path fill="#00BFBA" d="M209.152,20.383v14.428h7.849v4.13h-12.686V20.383H209.152z"/>
		<path fill="#00BFBA" d="M224.028,20.383v18.558h-4.836V20.383H224.028z"/>
		<path fill="#00BFBA" d="M234.412,24.115c-1.163,0-1.929,0.424-1.929,1.271c0,3.071,9.752,1.324,9.752,7.995
			c0,3.786-3.33,5.718-7.453,5.718c-3.092,0-6.316-1.138-8.536-2.965l1.876-3.786c1.903,1.641,4.784,2.806,6.713,2.806
			c1.427,0,2.326-0.53,2.326-1.509c0-3.15-9.752-1.244-9.752-7.81c0-3.468,2.933-5.666,7.399-5.666c2.722,0,5.471,0.847,7.4,2.091
			l-1.824,3.839C238.429,24.989,235.945,24.115,234.412,24.115z"/>
		<path fill="#00BFBA" d="M258.96,20.383v3.998h-5.55v14.561h-4.836V24.381h-5.497v-3.998H258.96z"/>
		<path fill="#00BFBA" d="M275.528,20.383v3.865h-9.779v3.468h8.827v3.839l-8.827,0.026v3.495h10.043v3.865h-14.879V20.383H275.528z
			"/>
		<path fill="#00BFBA" d="M289.874,38.941l-2.696-5.136h-0.105h-3.489v5.136h-4.836V20.383h8.325c4.916,0,7.717,2.382,7.717,6.512
			c0,2.807-1.163,4.872-3.303,5.983l3.858,6.062H289.874z M283.584,29.94h3.515c1.956,0,3.092-1.006,3.092-2.886
			c0-1.827-1.137-2.806-3.092-2.806h-3.515V29.94z"/>
		<path fill="#00BFBA" d="M131.63,60.161h-10.809l-2.378,5.269h-1.216l8.378-18.505h1.189l8.457,18.505h-1.216L131.63,60.161z
			 M131.128,59.049l-4.942-10.854l-4.889,10.854H131.128z"/>
		<path fill="#00BFBA" d="M148.434,48.036c-2.934,0-4.836,1.218-4.836,3.15c0,5.639,10.862,2.727,10.809,9.557
			c0,2.859-2.563,4.712-6.422,4.712c-2.458,0-4.969-1.085-6.581-2.674l0.582-0.979c1.506,1.562,3.858,2.515,6.025,2.515
			c3.171,0,5.207-1.377,5.207-3.548c0.053-5.797-10.809-2.833-10.809-9.504c0-2.674,2.431-4.395,6.078-4.395
			c1.876,0,3.912,0.609,5.286,1.509l-0.502,1.006C151.896,48.486,150.02,48.036,148.434,48.036z"/>
		<path fill="#00BFBA" d="M176.497,46.924v1.085h-10.809v7.386h9.62v1.112h-9.62v7.836h11.153v1.085h-12.263V46.924H176.497z"/>
		<path fill="#00BFBA" d="M191.715,48.036c-2.934,0-4.836,1.218-4.836,3.15c0,5.639,10.862,2.727,10.809,9.557
			c0,2.859-2.563,4.712-6.422,4.712c-2.458,0-4.969-1.085-6.581-2.674l0.582-0.979c1.506,1.562,3.858,2.515,6.025,2.515
			c3.171,0,5.207-1.377,5.207-3.548c0.053-5.797-10.809-2.833-10.809-9.504c0-2.674,2.431-4.395,6.078-4.395
			c1.876,0,3.912,0.609,5.286,1.509l-0.502,1.006C195.177,48.486,193.301,48.036,191.715,48.036z"/>
		<path fill="#00BFBA" d="M225.036,56.163c0,5.136-4.281,9.292-9.567,9.292s-9.567-4.156-9.567-9.292
			c0-5.136,4.281-9.266,9.567-9.266S225.036,51.027,225.036,56.163z M207.038,56.163c0,4.527,3.806,8.207,8.431,8.207
			s8.431-3.68,8.431-8.207c0-4.527-3.806-8.18-8.431-8.18S207.038,51.636,207.038,56.163z"/>
		<path fill="#00BFBA" d="M247.046,65.429l-4.361-6.274c-0.502,0.08-1.004,0.106-1.559,0.106h-5.418v6.168h-1.11V46.924h6.528
			c4.572,0,7.162,2.224,7.162,6.089c0,3.15-1.612,5.216-4.546,5.957l4.625,6.459H247.046z M241.152,58.175
			c3.858,0,6.052-1.827,6.052-5.136c0-3.256-2.194-5.03-6.052-5.03h-5.444v10.166H241.152z"/>
		<path fill="#00BFBA" d="M270.773,46.924v1.085h-10.809v7.386h9.62v1.112h-9.62v7.836h11.153v1.085h-12.263V46.924H270.773z"/>
		<path fill="#00BFBA" d="M285.991,48.036c-2.934,0-4.836,1.218-4.836,3.15c0,5.639,10.862,2.727,10.809,9.557
			c0,2.859-2.563,4.712-6.422,4.712c-2.458,0-4.969-1.085-6.581-2.674l0.582-0.979c1.506,1.562,3.858,2.515,6.025,2.515
			c3.171,0,5.207-1.377,5.207-3.548c0.053-5.797-10.809-2.833-10.809-9.504c0-2.674,2.431-4.395,6.078-4.395
			c1.876,0,3.912,0.609,5.286,1.509l-0.502,1.006C289.453,48.486,287.577,48.036,285.991,48.036z"/>
	</g>
	<g>
		<g>
			<g>
				<path fill="#00BFBA" d="M44.424,89C19.929,89,0,69.037,0,44.5S19.929,0,44.424,0c22.031,0,40.488,15.801,43.888,37.571
					c0.262,1.676-0.883,3.248-2.556,3.51c-1.675,0.263-3.243-0.884-3.504-2.56c-2.93-18.76-18.839-32.377-37.828-32.377
					c-21.113,0-38.29,17.206-38.29,38.356c0,21.149,17.177,38.355,38.29,38.355c18.714,0,34.585-13.387,37.739-31.831
					c0.286-1.672,1.871-2.793,3.541-2.509c1.669,0.286,2.791,1.874,2.505,3.547C84.549,73.465,66.135,89,44.424,89z"/>
			</g>
		</g>
		<g>
			<g>
				<g>
					<g>
						<path fill="#00BFBA" d="M54.23,26.347h5.864c0.571,0,1.061,0.405,1.17,0.966l5.402,27.86c0.576,2.969-1.695,5.728-4.715,5.728
							h0c-2.299,0-4.276-1.633-4.715-3.894l-5.385-27.771C51.562,27.738,52.707,26.347,54.23,26.347z"/>
					</g>
				</g>
				<g>
					<g>
						<path fill="#00BFBA" d="M33.209,26.347h5.997c0.571,0,1.061,0.405,1.17,0.966l5.768,29.749c0.386,1.99-1.136,3.839-3.16,3.839
							h-4.898c-0.571,0-1.061-0.405-1.17-0.966l-5.977-30.829C30.661,27.676,31.754,26.347,33.209,26.347z"/>
					</g>
				</g>
			</g>
			<g>
				<g>
					<g>
						<path fill="#00EFE3" d="M39.271,26.347h-7.053c-1.648,0-3.127,1.011-3.728,2.548L18.407,54.673
							c-1.171,2.993,1.032,6.228,4.241,6.228h0c1.874,0,3.558-1.15,4.241-2.898L39.271,26.347z"/>
					</g>
				</g>
				<g>
					<g>
						<path fill="#00EFE3" d="M60.146,26.347h-6.963c-1.692,0-3.201,1.065-3.771,2.661L38.034,60.901h6.963
							c1.692,0,3.201-1.065,3.771-2.661L60.146,26.347z"/>
					</g>
				</g>
				<g>
					<g>
						<path fill="#00EFE3" d="M36.69,58.774c0,0,0.143,0.701,0.513,1.126c0.37,0.425,0.704,0.327,0.831,0.233
							c0.126-0.093,0.395-0.34,0.712-1.227c0.316-0.887,0.525,1.287,0.525,1.287l-0.986,0.708c0,0-0.589,0.072-0.983-0.295
							c-0.152-0.118-0.333-0.397-0.386-0.671S36.69,58.774,36.69,58.774z"/>
					</g>
				</g>
				<g>
					<g>
						<path fill="#00EFE3" d="M61.494,28.48c0,0-0.143-0.701-0.513-1.126c-0.37-0.425-0.704-0.327-0.831-0.233
							c-0.126,0.093-0.395,0.34-0.712,1.227s-0.525-1.287-0.525-1.287l0.986-0.708c0,0,0.569-0.092,0.983,0.295
							c0.152,0.118,0.333,0.397,0.386,0.671S61.494,28.48,61.494,28.48z"/>
					</g>
				</g>
				<g>
					<g>
						<path fill="#00EFE3" d="M40.6,28.475c0,0-0.207-0.701-0.577-1.126c-0.37-0.425-0.704-0.327-0.831-0.233
							c-0.126,0.093-0.395,0.34-0.712,1.227c-0.316,0.887-0.525-1.287-0.525-1.287l0.986-0.708c0,0,0.638-0.092,1.053,0.295
							c0.152,0.118,0.327,0.397,0.38,0.671S40.6,28.475,40.6,28.475z"/>
					</g>
				</g>
			</g>
		</g>
	</g>
	<g>
		<rect x="106.574" y="8.085" fill="#5B5B5F" width="0.708" height="69.777"/>
	</g>
</g>
<g>
	<text transform="matrix(0.9983 0 0 1 117.0154 143.4411)"><tspan x="0" y="0" fill="#00BFBA" font-family="'Montserrat-Bold'" font-size="26.4682px">MC ALLISTER</tspan><tspan x="0" y="26.488" fill="#00BFBA" font-family="'Montserrat-ExtraLight'" font-size="26.4682px" letter-spacing="5.009">ASESORES</tspan><tspan x="182.497" y="26.488" fill="#00BFBA" font-family="'Montserrat-Bold'" font-size="26.4682px" letter-spacing="52.089">	</tspan></text>
	<g>
		<g>
			<path fill="#00BFBA" d="M44.424,193.5C19.929,193.5,0,173.538,0,149s19.929-44.5,44.424-44.5
				c22.031,0,40.488,15.801,43.888,37.571c0.262,1.676-0.883,3.248-2.556,3.51c-1.675,0.263-3.243-0.884-3.504-2.56
				c-2.93-18.76-18.839-32.377-37.828-32.377c-21.113,0-38.29,17.206-38.29,38.356c0,21.149,17.177,38.355,38.29,38.355
				c18.714,0,34.585-13.387,37.739-31.831c0.286-1.672,1.871-2.793,3.541-2.509c1.669,0.286,2.791,1.874,2.505,3.547
				C84.549,177.965,66.135,193.5,44.424,193.5z"/>
		</g>
		<g>
			<g>
				<g>
					<path fill="#00BFBA" d="M54.23,130.847h5.864c0.571,0,1.061,0.405,1.17,0.966l5.402,27.86c0.576,2.969-1.695,5.728-4.715,5.728
						h0c-2.299,0-4.276-1.633-4.715-3.894l-5.385-27.771C51.562,132.238,52.707,130.847,54.23,130.847z"/>
				</g>
				<g>
					<path fill="#00BFBA" d="M33.209,130.847h5.997c0.571,0,1.061,0.405,1.17,0.966l5.768,29.749c0.386,1.99-1.136,3.839-3.16,3.839
						h-4.898c-0.571,0-1.061-0.405-1.17-0.966l-5.977-30.829C30.661,132.176,31.754,130.847,33.209,130.847z"/>
				</g>
			</g>
			<g>
				<g>
					<path fill="#00EFE3" d="M39.271,130.847h-7.053c-1.648,0-3.127,1.011-3.728,2.548l-10.083,25.778
						c-1.171,2.993,1.032,6.228,4.241,6.228h0c1.874,0,3.558-1.15,4.241-2.898L39.271,130.847z"/>
				</g>
				<g>
					<path fill="#00EFE3" d="M60.146,130.847h-6.963c-1.692,0-3.201,1.065-3.771,2.661l-11.378,31.893h6.963
						c1.692,0,3.201-1.065,3.771-2.661L60.146,130.847z"/>
				</g>
				<g>
					<path fill="#00EFE3" d="M36.69,163.274c0,0,0.143,0.701,0.513,1.126c0.37,0.425,0.704,0.327,0.831,0.233
						c0.126-0.093,0.395-0.34,0.712-1.227s0.525,1.287,0.525,1.287l-0.986,0.708c0,0-0.589,0.072-0.983-0.295
						c-0.152-0.118-0.333-0.397-0.386-0.671S36.69,163.274,36.69,163.274z"/>
				</g>
				<g>
					<path fill="#00EFE3" d="M61.494,132.98c0,0-0.143-0.701-0.513-1.126c-0.37-0.425-0.704-0.327-0.831-0.233
						c-0.126,0.093-0.395,0.34-0.712,1.227s-0.525-1.287-0.525-1.287l0.986-0.708c0,0,0.569-0.092,0.983,0.295
						c0.152,0.118,0.333,0.397,0.386,0.671C61.322,132.093,61.494,132.98,61.494,132.98z"/>
				</g>
				<g>
					<path fill="#00EFE3" d="M40.6,132.975c0,0-0.207-0.701-0.577-1.126c-0.37-0.425-0.704-0.327-0.831-0.233
						c-0.126,0.093-0.395,0.34-0.712,1.227c-0.316,0.887-0.525-1.287-0.525-1.287l0.986-0.708c0,0,0.638-0.092,1.053,0.295
						c0.152,0.118,0.327,0.397,0.38,0.671C40.428,132.088,40.6,132.975,40.6,132.975z"/>
				</g>
			</g>
		</g>
	</g>
	<rect x="106.574" y="112.585" fill="#5B5B5F" width="0.708" height="69.777"/>
</g>
<g>
	<text transform="matrix(1 0 0 1 -221.6179 1271.2205)"><tspan x="0" y="0" fill="#5B5B5F" font-family="'Montserrat-Bold'" font-size="58.9549px">MC ALLISTER</tspan><tspan x="0" y="59" fill="#5B5B5F" font-family="'Montserrat-Bold'" font-size="58.9549px" letter-spacing="9">ASESORES</tspan><tspan x="405.9" y="59" fill="#5B5B5F" font-family="'Montserrat-Bold'" font-size="58.9549px" letter-spacing="116">	</tspan></text>
	<g>
		<g>
			<path fill="#00BFBA" d="M-383.585,1382.721c-54.654,0-99.119-44.464-99.119-99.118s44.465-99.119,99.119-99.119
				c49.155,0,90.337,35.195,97.923,83.686c0.584,3.734-1.969,7.234-5.703,7.818c-3.738,0.586-7.235-1.969-7.818-5.703
				c-6.536-41.786-42.033-72.115-84.401-72.115c-47.109,0-85.433,38.325-85.433,85.433c0,47.108,38.325,85.432,85.433,85.432
				c41.755,0,77.167-29.818,84.203-70.9c0.638-3.724,4.175-6.221,7.9-5.589c3.725,0.638,6.227,4.175,5.589,7.9
				C-294.057,1348.119-335.143,1382.721-383.585,1382.721z"/>
		</g>
		<g>
			<g>
				<g>
					<path fill="#00BFBA" d="M-361.706,1243.168h13.084c1.273,0,2.367,0.902,2.61,2.152l12.052,62.054
						c1.285,6.614-3.781,12.759-10.519,12.759l0,0c-5.13,0-9.541-3.636-10.519-8.673l-12.014-61.857
						C-367.659,1246.267-365.104,1243.168-361.706,1243.168z"/>
				</g>
				<g>
					<path fill="#00BFBA" d="M-408.609,1243.168h13.38c1.273,0,2.367,0.902,2.61,2.152l12.87,66.262
						c0.861,4.433-2.534,8.551-7.05,8.551h-10.929c-1.273,0-2.367-0.902-2.61-2.152l-13.337-68.668
						C-414.294,1246.127-411.854,1243.168-408.609,1243.168z"/>
				</g>
			</g>
			<g>
				<g>
					<path fill="#00EFE3" d="M-395.083,1243.168h-15.737c-3.677,0-6.978,2.252-8.319,5.675l-22.497,57.418
						c-2.612,6.666,2.304,13.871,9.463,13.871h0c4.182,0,7.938-2.562,9.463-6.456L-395.083,1243.168z"/>
				</g>
				<g>
					<path fill="#00EFE3" d="M-348.505,1243.168h-15.537c-3.775,0-7.143,2.373-8.414,5.928l-25.386,71.037h15.537
						c3.775,0,7.143-2.373,8.414-5.928L-348.505,1243.168z"/>
				</g>
				<g>
					<path fill="#00EFE3" d="M-400.84,1315.395c0,0,0.32,1.561,1.145,2.508c0.825,0.947,1.571,0.727,1.854,0.519
						c0.282-0.207,0.882-0.758,1.588-2.733c0.706-1.976,1.171,2.866,1.171,2.866l-2.199,1.578c0,0-1.314,0.161-2.194-0.657
						c-0.339-0.263-0.743-0.885-0.862-1.495C-400.457,1317.37-400.84,1315.395-400.84,1315.395z"/>
				</g>
				<g>
					<path fill="#00EFE3" d="M-345.497,1247.919c0,0-0.32-1.561-1.145-2.508c-0.825-0.947-1.571-0.727-1.854-0.519
						c-0.282,0.207-0.882,0.758-1.588,2.733c-0.706,1.976-1.171-2.866-1.171-2.866l2.199-1.578c0,0,1.269-0.205,2.194,0.657
						c0.339,0.263,0.743,0.885,0.862,1.495C-345.881,1245.944-345.497,1247.919-345.497,1247.919z"/>
				</g>
				<g>
					<path fill="#00EFE3" d="M-392.117,1247.908c0,0-0.462-1.561-1.287-2.508c-0.825-0.947-1.571-0.727-1.854-0.519
						c-0.282,0.207-0.882,0.758-1.588,2.733c-0.706,1.976-1.171-2.866-1.171-2.866l2.199-1.578c0,0,1.424-0.205,2.35,0.657
						c0.339,0.263,0.73,0.885,0.849,1.495C-392.5,1245.932-392.117,1247.908-392.117,1247.908z"/>
				</g>
			</g>
		</g>
	</g>
	<rect x="-244.916" y="1202.492" fill="#5B5B5F" width="1.579" height="155.421"/>
</g>
<g>
	<text transform="matrix(1 0 0 1 633.6644 1271.2205)"><tspan x="0" y="0" fill="#00BFBA" font-family="'Montserrat-Bold'" font-size="58.9549px">MC ALLISTER</tspan><tspan x="0" y="59" fill="#00BFBA" font-family="'Montserrat-Bold'" font-size="58.9549px" letter-spacing="9">ASESORES</tspan><tspan x="405.9" y="59" fill="#00BFBA" font-family="'Montserrat-Bold'" font-size="58.9549px" letter-spacing="116">	</tspan></text>
	<g>
		<g>
			<path fill="#00BFBA" d="M471.697,1382.721c-54.654,0-99.119-44.464-99.119-99.118s44.465-99.119,99.119-99.119
				c49.155,0,90.337,35.195,97.923,83.686c0.584,3.734-1.969,7.234-5.703,7.818c-3.738,0.586-7.235-1.969-7.818-5.703
				c-6.536-41.786-42.033-72.115-84.401-72.115c-47.109,0-85.433,38.325-85.433,85.433c0,47.108,38.325,85.432,85.433,85.432
				c41.755,0,77.167-29.818,84.203-70.9c0.638-3.724,4.175-6.221,7.9-5.589c3.725,0.638,6.227,4.175,5.589,7.9
				C561.225,1348.119,520.139,1382.721,471.697,1382.721z"/>
		</g>
		<g>
			<g>
				<g>
					<path fill="#00BFBA" d="M493.577,1243.168h13.084c1.273,0,2.367,0.902,2.61,2.152l12.052,62.054
						c1.285,6.614-3.781,12.759-10.519,12.759l0,0c-5.13,0-9.541-3.636-10.519-8.673l-12.014-61.857
						C487.623,1246.267,490.178,1243.168,493.577,1243.168z"/>
				</g>
				<g>
					<path fill="#00BFBA" d="M446.674,1243.168h13.38c1.273,0,2.367,0.902,2.61,2.152l12.87,66.262
						c0.861,4.433-2.534,8.551-7.05,8.551h-10.929c-1.273,0-2.367-0.902-2.61-2.152l-13.337-68.668
						C440.989,1246.127,443.429,1243.168,446.674,1243.168z"/>
				</g>
			</g>
			<g>
				<g>
					<path fill="#00EFE3" d="M460.2,1243.168h-15.737c-3.677,0-6.978,2.252-8.319,5.675l-22.497,57.418
						c-2.612,6.666,2.304,13.871,9.463,13.871h0c4.182,0,7.938-2.562,9.463-6.456L460.2,1243.168z"/>
				</g>
				<g>
					<path fill="#00EFE3" d="M506.777,1243.168h-15.537c-3.775,0-7.143,2.373-8.414,5.928l-25.386,71.037h15.537
						c3.775,0,7.143-2.373,8.414-5.928L506.777,1243.168z"/>
				</g>
				<g>
					<path fill="#00EFE3" d="M454.442,1315.395c0,0,0.32,1.561,1.145,2.508c0.825,0.947,1.571,0.727,1.854,0.519
						c0.282-0.207,0.882-0.758,1.588-2.733s1.171,2.866,1.171,2.866l-2.199,1.578c0,0-1.314,0.161-2.194-0.657
						c-0.339-0.263-0.743-0.885-0.862-1.495C454.826,1317.37,454.442,1315.395,454.442,1315.395z"/>
				</g>
				<g>
					<path fill="#00EFE3" d="M509.785,1247.919c0,0-0.32-1.561-1.145-2.508s-1.571-0.727-1.854-0.519
						c-0.282,0.207-0.882,0.758-1.588,2.733s-1.171-2.866-1.171-2.866l2.199-1.578c0,0,1.269-0.205,2.194,0.657
						c0.339,0.263,0.743,0.885,0.862,1.495C509.402,1245.944,509.785,1247.919,509.785,1247.919z"/>
				</g>
				<g>
					<path fill="#00EFE3" d="M463.166,1247.908c0,0-0.462-1.561-1.287-2.508c-0.825-0.947-1.571-0.727-1.854-0.519
						c-0.282,0.207-0.882,0.758-1.588,2.733c-0.706,1.976-1.171-2.866-1.171-2.866l2.199-1.578c0,0,1.424-0.205,2.35,0.657
						c0.339,0.263,0.73,0.885,0.849,1.495C462.783,1245.932,463.166,1247.908,463.166,1247.908z"/>
				</g>
			</g>
		</g>
	</g>
	<rect x="610.366" y="1202.492" fill="#5B5B5F" width="1.579" height="155.421"/>
</g>
<g>
	<text transform="matrix(1 0 0 1 -209.2861 1624.6169)"><tspan x="0" y="0" fill="#5B5B5F" font-family="'Montserrat-Bold'" font-size="54.7549px">MC ALLISTER</tspan><tspan x="0" y="54.797" fill="#5B5B5F" font-family="'Montserrat-Bold'" font-size="54.7549px">ASESORES DE</tspan><tspan x="0" y="109.594" fill="#5B5B5F" font-family="'Montserrat-Bold'" font-size="54.7549px">SEGUROS</tspan></text>
	<g>
		<g>
			<path fill="#00BFBA" d="M-379.408,1766.844c-56.957,0-103.296-46.338-103.296-103.295c0-56.957,46.339-103.296,103.296-103.296
				c51.227,0,94.144,36.678,102.05,87.212c0.609,3.891-2.052,7.539-5.943,8.148c-3.896,0.611-7.54-2.052-8.148-5.943
				c-6.812-43.547-43.804-75.154-87.958-75.154c-49.094,0-89.034,39.94-89.034,89.034c0,49.093,39.94,89.033,89.034,89.033
				c43.515,0,80.419-31.075,87.751-73.888c0.665-3.881,4.351-6.484,8.233-5.825c3.882,0.665,6.49,4.351,5.825,8.233
				C-286.107,1730.784-328.925,1766.844-379.408,1766.844z"/>
		</g>
		<g>
			<g>
				<g>
					<path fill="#00BFBA" d="M-356.607,1621.41h13.636c1.327,0,2.467,0.94,2.72,2.243l12.56,64.669
						c1.339,6.893-3.941,13.296-10.962,13.296l0,0c-5.347,0-9.943-3.79-10.962-9.038l-12.52-64.464
						C-362.811,1624.64-360.148,1621.41-356.607,1621.41z"/>
				</g>
				<g>
					<path fill="#00BFBA" d="M-405.486,1621.41h13.944c1.327,0,2.467,0.94,2.72,2.243l13.412,69.055
						c0.897,4.62-2.641,8.911-7.347,8.911h-11.39c-1.327,0-2.467-0.94-2.72-2.243l-13.899-71.562
						C-411.411,1624.494-408.868,1621.41-405.486,1621.41z"/>
				</g>
			</g>
			<g>
				<g>
					<path fill="#00EFE3" d="M-391.39,1621.41h-16.4c-3.832,0-7.272,2.347-8.67,5.914l-23.445,59.838
						c-2.722,6.947,2.401,14.456,9.862,14.456h0c4.358,0,8.272-2.67,9.862-6.728L-391.39,1621.41z"/>
				</g>
				<g>
					<path fill="#00EFE3" d="M-342.85,1621.41h-16.191c-3.934,0-7.444,2.473-8.768,6.178l-26.456,74.031h16.191
						c3.934,0,7.444-2.473,8.768-6.178L-342.85,1621.41z"/>
				</g>
				<g>
					<path fill="#00EFE3" d="M-397.39,1696.681c0,0,0.333,1.627,1.193,2.614c0.86,0.987,1.637,0.758,1.932,0.541
						c0.294-0.216,0.919-0.79,1.655-2.849s1.22,2.987,1.22,2.987l-2.292,1.644c0,0-1.369,0.168-2.287-0.685
						c-0.353-0.274-0.774-0.922-0.898-1.558S-397.39,1696.681-397.39,1696.681z"/>
				</g>
				<g>
					<path fill="#00EFE3" d="M-339.715,1626.361c0,0-0.334-1.627-1.193-2.614c-0.86-0.987-1.637-0.758-1.932-0.541
						c-0.294,0.216-0.919,0.79-1.655,2.849c-0.736,2.059-1.22-2.987-1.22-2.987l2.292-1.644c0,0,1.322-0.214,2.287,0.685
						c0.353,0.274,0.774,0.922,0.898,1.558S-339.715,1626.361-339.715,1626.361z"/>
				</g>
				<g>
					<path fill="#00EFE3" d="M-388.299,1626.349c0,0-0.482-1.627-1.341-2.614c-0.86-0.987-1.637-0.758-1.932-0.541
						c-0.294,0.216-0.919,0.79-1.655,2.849s-1.22-2.987-1.22-2.987l2.292-1.644c0,0,1.484-0.214,2.449,0.685
						c0.353,0.274,0.761,0.922,0.884,1.558S-388.299,1626.349-388.299,1626.349z"/>
				</g>
			</g>
		</g>
	</g>
	<rect x="-235.218" y="1583.804" fill="#5B5B5F" width="1.579" height="155.421"/>
</g>
<g>
	<text transform="matrix(1 0 0 1 645.9961 1624.6169)"><tspan x="0" y="0" fill="#00BFBA" font-family="'Montserrat-Bold'" font-size="54.7549px">MC ALLISTER</tspan><tspan x="0" y="54.797" fill="#00BFBA" font-family="'Montserrat-Bold'" font-size="54.7549px">ASESORES DE</tspan><tspan x="0" y="109.594" fill="#00BFBA" font-family="'Montserrat-Bold'" font-size="54.7549px">SEGUROS</tspan></text>
	<g>
		<g>
			<path fill="#00BFBA" d="M475.874,1766.844c-56.957,0-103.296-46.338-103.296-103.295c0-56.957,46.339-103.296,103.296-103.296
				c51.227,0,94.144,36.678,102.05,87.212c0.609,3.891-2.052,7.539-5.943,8.148c-3.896,0.611-7.54-2.052-8.148-5.943
				c-6.812-43.547-43.804-75.154-87.958-75.154c-49.094,0-89.034,39.94-89.034,89.034c0,49.093,39.94,89.033,89.034,89.033
				c43.515,0,80.419-31.075,87.751-73.888c0.665-3.881,4.351-6.484,8.232-5.825c3.882,0.665,6.49,4.351,5.825,8.233
				C569.175,1730.784,526.358,1766.844,475.874,1766.844z"/>
		</g>
		<g>
			<g>
				<g>
					<path fill="#00BFBA" d="M498.676,1621.41h13.636c1.327,0,2.467,0.94,2.72,2.243l12.56,64.669
						c1.339,6.893-3.941,13.296-10.962,13.296h0c-5.347,0-9.943-3.79-10.962-9.038l-12.52-64.464
						C492.471,1624.64,495.134,1621.41,498.676,1621.41z"/>
				</g>
				<g>
					<path fill="#00BFBA" d="M449.796,1621.41h13.944c1.327,0,2.467,0.94,2.72,2.243l13.412,69.055
						c0.897,4.62-2.641,8.911-7.347,8.911h-11.39c-1.327,0-2.467-0.94-2.72-2.243l-13.899-71.562
						C443.872,1624.494,446.415,1621.41,449.796,1621.41z"/>
				</g>
			</g>
			<g>
				<g>
					<path fill="#00EFE3" d="M463.892,1621.41h-16.4c-3.832,0-7.272,2.347-8.67,5.914l-23.445,59.838
						c-2.722,6.947,2.401,14.456,9.862,14.456h0c4.358,0,8.272-2.67,9.862-6.728L463.892,1621.41z"/>
				</g>
				<g>
					<path fill="#00EFE3" d="M512.433,1621.41h-16.191c-3.934,0-7.444,2.473-8.768,6.178l-26.456,74.031h16.191
						c3.934,0,7.444-2.473,8.768-6.178L512.433,1621.41z"/>
				</g>
				<g>
					<path fill="#00EFE3" d="M457.892,1696.681c0,0,0.334,1.627,1.193,2.614s1.637,0.758,1.932,0.541
						c0.294-0.216,0.919-0.79,1.655-2.849s1.22,2.987,1.22,2.987l-2.292,1.644c0,0-1.369,0.168-2.287-0.685
						c-0.353-0.274-0.774-0.922-0.898-1.558S457.892,1696.681,457.892,1696.681z"/>
				</g>
				<g>
					<path fill="#00EFE3" d="M515.568,1626.361c0,0-0.333-1.627-1.193-2.614c-0.86-0.987-1.637-0.758-1.932-0.541
						c-0.294,0.216-0.919,0.79-1.655,2.849s-1.22-2.987-1.22-2.987l2.292-1.644c0,0,1.322-0.214,2.287,0.685
						c0.353,0.274,0.774,0.922,0.898,1.558S515.568,1626.361,515.568,1626.361z"/>
				</g>
				<g>
					<path fill="#00EFE3" d="M466.983,1626.349c0,0-0.482-1.627-1.341-2.614c-0.86-0.987-1.637-0.758-1.932-0.541
						c-0.294,0.216-0.919,0.79-1.655,2.849s-1.22-2.987-1.22-2.987l2.292-1.644c0,0,1.484-0.214,2.449,0.685
						c0.353,0.274,0.761,0.922,0.884,1.558S466.983,1626.349,466.983,1626.349z"/>
				</g>
			</g>
		</g>
	</g>
	<rect x="620.065" y="1583.804" fill="#5B5B5F" width="1.579" height="155.421"/>
</g>
<g>
	<path fill="#00BFBA" d="M80.063-119.647H11.26c-3.092,0-5.599-2.507-5.599-5.599v0c0-3.092,2.507-5.599,5.599-5.599h68.803
		c3.092,0,5.599,2.507,5.599,5.599v0C85.662-122.154,83.155-119.647,80.063-119.647z"/>
	<path fill="#00BFBA" d="M80.063-92.746H11.26c-3.092,0-5.599-2.507-5.599-5.599v0c0-3.092,2.507-5.599,5.599-5.599h68.803
		c3.092,0,5.599,2.507,5.599,5.599v0C85.662-95.252,83.155-92.746,80.063-92.746z"/>
	<path fill="#00BFBA" d="M80.063-65.844H11.26c-3.092,0-5.599-2.507-5.599-5.599v0c0-3.092,2.507-5.599,5.599-5.599h68.803
		c3.092,0,5.599,2.507,5.599,5.599v0C85.662-68.351,83.155-65.844,80.063-65.844z"/>
</g>
</svg>
