<?xml version="1.0" encoding="utf-8"?>
<!-- Generator: Adobe Illustrator 21.0.2, SVG Export Plug-In . SVG Version: 6.00 Build 0)  -->
<svg version="1.1" id="Capa_1" xmlns="http://www.w3.org/2000/svg" xmlns:xlink="http://www.w3.org/1999/xlink" x="0px" y="0px"
	 viewBox="0 0 80 65" enable-background="new 0 0 80 65" xml:space="preserve">
<g>
	<path fill="#00BFBA" d="M74.401,11.197H5.599C2.507,11.197,0,8.691,0,5.599v0C0,2.507,2.507,0,5.599,0l68.803,0
		C77.493,0,80,2.507,80,5.599v0C80,8.691,77.493,11.197,74.401,11.197z"/>
	<path fill="#00BFBA" d="M74.401,38.099H5.599C2.507,38.099,0,35.592,0,32.5v0c0-3.092,2.507-5.599,5.599-5.599h68.803
		c3.092,0,5.599,2.507,5.599,5.599v0C80,35.592,77.493,38.099,74.401,38.099z"/>
	<path fill="#00BFBA" d="M74.401,65H5.599C2.507,65,0,62.493,0,59.401v0c0-3.092,2.507-5.599,5.599-5.599h68.803
		c3.092,0,5.599,2.507,5.599,5.599v0C80,62.493,77.493,65,74.401,65z"/>
</g>
</svg>
